<mxfile host="app.diagrams.net" modified="2024-04-07T15:04:24.462Z" agent="Mozilla/5.0 (Windows NT 10.0; Win64; x64) AppleWebKit/537.36 (KHTML, like Gecko) Chrome/123.0.0.0 Safari/537.36" etag="uS5h87LnKJJ_td-bEL7g" version="24.2.2" type="device">
  <diagram id="C5RBs43oDa-KdzZeNtuy" name="Page-1">
    <mxGraphModel dx="2933" dy="1420" grid="1" gridSize="10" guides="1" tooltips="1" connect="1" arrows="1" fold="1" page="1" pageScale="1" pageWidth="827" pageHeight="1169" math="0" shadow="0">
      <root>
        <mxCell id="WIyWlLk6GJQsqaUBKTNV-0" />
        <mxCell id="WIyWlLk6GJQsqaUBKTNV-1" parent="WIyWlLk6GJQsqaUBKTNV-0" />
        <mxCell id="WIyWlLk6GJQsqaUBKTNV-2" value="" style="rounded=0;html=1;jettySize=auto;orthogonalLoop=1;fontSize=11;endArrow=block;endFill=0;endSize=8;strokeWidth=1;shadow=0;labelBackgroundColor=none;edgeStyle=orthogonalEdgeStyle;" parent="WIyWlLk6GJQsqaUBKTNV-1" source="WIyWlLk6GJQsqaUBKTNV-3" target="WIyWlLk6GJQsqaUBKTNV-6" edge="1">
          <mxGeometry relative="1" as="geometry" />
        </mxCell>
        <mxCell id="WIyWlLk6GJQsqaUBKTNV-3" value="Usuario procede a registrarse" style="rounded=1;whiteSpace=wrap;html=1;fontSize=12;glass=0;strokeWidth=1;shadow=0;" parent="WIyWlLk6GJQsqaUBKTNV-1" vertex="1">
          <mxGeometry x="160" y="80" width="120" height="40" as="geometry" />
        </mxCell>
        <mxCell id="qbzAYk6FdeuOr6aEGjq--6" style="edgeStyle=orthogonalEdgeStyle;rounded=0;orthogonalLoop=1;jettySize=auto;html=1;exitX=0.5;exitY=1;exitDx=0;exitDy=0;entryX=0.5;entryY=0;entryDx=0;entryDy=0;" edge="1" parent="WIyWlLk6GJQsqaUBKTNV-1" source="WIyWlLk6GJQsqaUBKTNV-6" target="qbzAYk6FdeuOr6aEGjq--5">
          <mxGeometry relative="1" as="geometry" />
        </mxCell>
        <mxCell id="qbzAYk6FdeuOr6aEGjq--7" value="Si" style="edgeLabel;html=1;align=center;verticalAlign=middle;resizable=0;points=[];" vertex="1" connectable="0" parent="qbzAYk6FdeuOr6aEGjq--6">
          <mxGeometry x="-0.12" y="-1" relative="1" as="geometry">
            <mxPoint as="offset" />
          </mxGeometry>
        </mxCell>
        <mxCell id="qbzAYk6FdeuOr6aEGjq--22" style="edgeStyle=orthogonalEdgeStyle;rounded=0;orthogonalLoop=1;jettySize=auto;html=1;exitX=0;exitY=0.5;exitDx=0;exitDy=0;entryX=1;entryY=0.5;entryDx=0;entryDy=0;" edge="1" parent="WIyWlLk6GJQsqaUBKTNV-1" source="WIyWlLk6GJQsqaUBKTNV-6" target="qbzAYk6FdeuOr6aEGjq--21">
          <mxGeometry relative="1" as="geometry" />
        </mxCell>
        <mxCell id="qbzAYk6FdeuOr6aEGjq--25" value="No" style="edgeLabel;html=1;align=center;verticalAlign=middle;resizable=0;points=[];" vertex="1" connectable="0" parent="qbzAYk6FdeuOr6aEGjq--22">
          <mxGeometry x="-0.2057" relative="1" as="geometry">
            <mxPoint as="offset" />
          </mxGeometry>
        </mxCell>
        <mxCell id="WIyWlLk6GJQsqaUBKTNV-6" value="Email correcto" style="rhombus;whiteSpace=wrap;html=1;shadow=0;fontFamily=Helvetica;fontSize=12;align=center;strokeWidth=1;spacing=6;spacingTop=-4;" parent="WIyWlLk6GJQsqaUBKTNV-1" vertex="1">
          <mxGeometry x="170" y="170" width="100" height="80" as="geometry" />
        </mxCell>
        <mxCell id="qbzAYk6FdeuOr6aEGjq--13" style="edgeStyle=orthogonalEdgeStyle;rounded=0;orthogonalLoop=1;jettySize=auto;html=1;exitX=0.5;exitY=1;exitDx=0;exitDy=0;entryX=0.5;entryY=0;entryDx=0;entryDy=0;" edge="1" parent="WIyWlLk6GJQsqaUBKTNV-1" source="qbzAYk6FdeuOr6aEGjq--5" target="qbzAYk6FdeuOr6aEGjq--18">
          <mxGeometry relative="1" as="geometry">
            <mxPoint x="220" y="573" as="targetPoint" />
          </mxGeometry>
        </mxCell>
        <mxCell id="qbzAYk6FdeuOr6aEGjq--14" value="Si" style="edgeLabel;html=1;align=center;verticalAlign=middle;resizable=0;points=[];" vertex="1" connectable="0" parent="qbzAYk6FdeuOr6aEGjq--13">
          <mxGeometry x="-0.0667" relative="1" as="geometry">
            <mxPoint as="offset" />
          </mxGeometry>
        </mxCell>
        <mxCell id="qbzAYk6FdeuOr6aEGjq--24" style="edgeStyle=orthogonalEdgeStyle;rounded=0;orthogonalLoop=1;jettySize=auto;html=1;exitX=0;exitY=0.5;exitDx=0;exitDy=0;entryX=0.5;entryY=1;entryDx=0;entryDy=0;" edge="1" parent="WIyWlLk6GJQsqaUBKTNV-1" source="qbzAYk6FdeuOr6aEGjq--5" target="qbzAYk6FdeuOr6aEGjq--21">
          <mxGeometry relative="1" as="geometry" />
        </mxCell>
        <mxCell id="qbzAYk6FdeuOr6aEGjq--26" value="No" style="edgeLabel;html=1;align=center;verticalAlign=middle;resizable=0;points=[];" vertex="1" connectable="0" parent="qbzAYk6FdeuOr6aEGjq--24">
          <mxGeometry x="-0.7776" relative="1" as="geometry">
            <mxPoint as="offset" />
          </mxGeometry>
        </mxCell>
        <mxCell id="qbzAYk6FdeuOr6aEGjq--5" value="Contraseña valida" style="rhombus;whiteSpace=wrap;html=1;shadow=0;fontFamily=Helvetica;fontSize=12;align=center;strokeWidth=1;spacing=6;spacingTop=-4;" vertex="1" parent="WIyWlLk6GJQsqaUBKTNV-1">
          <mxGeometry x="170" y="433" width="100" height="80" as="geometry" />
        </mxCell>
        <mxCell id="qbzAYk6FdeuOr6aEGjq--18" value="Registro con éxito" style="ellipse;whiteSpace=wrap;html=1;" vertex="1" parent="WIyWlLk6GJQsqaUBKTNV-1">
          <mxGeometry x="160" y="800" width="120" height="80" as="geometry" />
        </mxCell>
        <mxCell id="qbzAYk6FdeuOr6aEGjq--23" style="edgeStyle=orthogonalEdgeStyle;rounded=0;orthogonalLoop=1;jettySize=auto;html=1;exitX=0.5;exitY=0;exitDx=0;exitDy=0;entryX=0;entryY=0.5;entryDx=0;entryDy=0;" edge="1" parent="WIyWlLk6GJQsqaUBKTNV-1" source="qbzAYk6FdeuOr6aEGjq--21" target="WIyWlLk6GJQsqaUBKTNV-3">
          <mxGeometry relative="1" as="geometry" />
        </mxCell>
        <mxCell id="qbzAYk6FdeuOr6aEGjq--21" value="Volver al inicio" style="rounded=1;whiteSpace=wrap;html=1;fontSize=12;glass=0;strokeWidth=1;shadow=0;" vertex="1" parent="WIyWlLk6GJQsqaUBKTNV-1">
          <mxGeometry y="190" width="120" height="40" as="geometry" />
        </mxCell>
        <mxCell id="qbzAYk6FdeuOr6aEGjq--33" value="" style="shape=flexArrow;endArrow=classic;html=1;rounded=0;exitX=1;exitY=0.5;exitDx=0;exitDy=0;" edge="1" parent="WIyWlLk6GJQsqaUBKTNV-1" source="WIyWlLk6GJQsqaUBKTNV-6">
          <mxGeometry width="50" height="50" relative="1" as="geometry">
            <mxPoint x="310" y="220" as="sourcePoint" />
            <mxPoint x="480" y="210" as="targetPoint" />
          </mxGeometry>
        </mxCell>
        <mxCell id="qbzAYk6FdeuOr6aEGjq--34" value="Actor" style="shape=umlActor;verticalLabelPosition=bottom;verticalAlign=top;html=1;outlineConnect=0;" vertex="1" parent="WIyWlLk6GJQsqaUBKTNV-1">
          <mxGeometry x="510" y="170" width="30" height="60" as="geometry" />
        </mxCell>
        <mxCell id="qbzAYk6FdeuOr6aEGjq--45" style="edgeStyle=orthogonalEdgeStyle;rounded=0;orthogonalLoop=1;jettySize=auto;html=1;exitX=1;exitY=0.5;exitDx=0;exitDy=0;exitPerimeter=0;entryX=0;entryY=0.5;entryDx=0;entryDy=0;" edge="1" parent="WIyWlLk6GJQsqaUBKTNV-1" source="qbzAYk6FdeuOr6aEGjq--46" target="qbzAYk6FdeuOr6aEGjq--39">
          <mxGeometry relative="1" as="geometry" />
        </mxCell>
        <mxCell id="qbzAYk6FdeuOr6aEGjq--69" style="edgeStyle=orthogonalEdgeStyle;rounded=0;orthogonalLoop=1;jettySize=auto;html=1;exitX=0.155;exitY=1;exitDx=0;exitDy=0;exitPerimeter=0;entryX=1;entryY=0.5;entryDx=0;entryDy=0;" edge="1" parent="WIyWlLk6GJQsqaUBKTNV-1" source="qbzAYk6FdeuOr6aEGjq--36" target="qbzAYk6FdeuOr6aEGjq--68">
          <mxGeometry relative="1" as="geometry" />
        </mxCell>
        <mxCell id="qbzAYk6FdeuOr6aEGjq--36" value="" style="verticalLabelPosition=bottom;html=1;verticalAlign=top;align=center;strokeColor=none;fillColor=#00BEF2;shape=mxgraph.azure.computer;pointerEvents=1;" vertex="1" parent="WIyWlLk6GJQsqaUBKTNV-1">
          <mxGeometry x="777" y="177.5" width="50" height="45" as="geometry" />
        </mxCell>
        <mxCell id="qbzAYk6FdeuOr6aEGjq--48" style="edgeStyle=orthogonalEdgeStyle;rounded=0;orthogonalLoop=1;jettySize=auto;html=1;exitX=1;exitY=0.5;exitDx=0;exitDy=0;" edge="1" parent="WIyWlLk6GJQsqaUBKTNV-1" source="qbzAYk6FdeuOr6aEGjq--49" target="qbzAYk6FdeuOr6aEGjq--47">
          <mxGeometry relative="1" as="geometry" />
        </mxCell>
        <mxCell id="qbzAYk6FdeuOr6aEGjq--61" style="edgeStyle=orthogonalEdgeStyle;rounded=0;orthogonalLoop=1;jettySize=auto;html=1;exitX=0.25;exitY=1;exitDx=0;exitDy=0;entryX=1;entryY=0.5;entryDx=0;entryDy=0;" edge="1" parent="WIyWlLk6GJQsqaUBKTNV-1" source="qbzAYk6FdeuOr6aEGjq--39" target="qbzAYk6FdeuOr6aEGjq--60">
          <mxGeometry relative="1" as="geometry" />
        </mxCell>
        <mxCell id="qbzAYk6FdeuOr6aEGjq--39" value="" style="shape=image;verticalLabelPosition=bottom;labelBackgroundColor=default;verticalAlign=top;aspect=fixed;imageAspect=0;image=data:image/png,iVBORw0KGgoAAAANSUhEUgAAAgAAAAIACAYAAAD0eNT6AAAACXBIWXMAAJ16AACdegHu2JUgAAAAGXRFWHRTb2Z0d2FyZQB3d3cuaW5rc2NhcGUub3Jnm+48GgAAIABJREFUeJzs3Xt4VNXVP/Dv2mcmCcELKEGtvYCtVTIJeEHrvaBIuZhkggbb19ba1hJJAra2aFvf1thaq2KrDZlgrBZt7duaKLmgoHhBf1VbFRVIJtBSxfslAUWQQDIze/3+SNpaCxiSs86Zy/o8j8/TKnzXIiQza87ZZ29AKaWUUkoppZRSSimllFJKKaWUUkoppZRSSimllFJKKaWUUkoppZRSSimllFJKKaWUUkoppZRSSimllFJKKaWUUkoppZRSSimllFJKKaWUUkoppZRSSimllFJKKaWUUkoppZRSSimllEoT5HcDSqWSsl89NSyRNWI0DA6Lg0c71o5iwv4AHcBE+5PlA0F0IMAHgJHd97/7EDjIwH67iY0DtP3f/5d7AO4G0/sgbAfzdiazDcTbCfQemLdb4G1m6syxPZ2N84/r8uCPrpRKMzoAKNVves3G7GCge4zDgbHMdiyIxgA8BqBPABgN4BPY/Ru432IAugC8A/BbBLxmiTaB+WUyZhMh/nLT3AmdfjeplEouOgCojFRdzeaFg6Nnk4NpxHwcgz4H4DCk78/EDoA3ASYKwpO21za0fqfwHb+bUkr5J11f7JTao3Ck/SsArgFwhN+9+CgGxhIb55/oIKBUZtIBQGWMskh0vxj4twDK/O4liXRa4MutlQWr/G5EKeUtHQBURpi6cO3w3FxnBYDT/e4lCfWAqLS5IrTC70aUUt4xfjeglBeG5zp10Df/PckGc8O5i9Yd7XcjSinv6ACg0t6suraZDFzodx9Jbr+EcW7xuwmllHd0AFBpzzJ+6ncPqYG/WBxpn+x3F0opb+gAoNJacV3beICO87uPVGFA3/S7B6WUN3QAUGnNMGb53UNq4eI59auDfnehlJKnA4BKczTD7w5SzAGdvdmn+t2EUkqeDgAqbZUuXjsawPF+95Fq2DE6NCmVAXQAUGmLbWAG9Ht8n5HlmX73oJSSpy+OKm0R9I1sUAj54Zq2z/rdhlJKlg4AKi1Nql4VYGCK332kKgrQNL97UErJ0gFApaURB486DcAIv/tIVcys6wCUSnM6AKi0RMbo5f8hMZOL6lfn+t2FUkqODgAqLbHe/x8iHhZMZOuugEqlMR0AVNopWrR2LIBxfveR6iz0KopS6UwHAJV2Ao6j96/dwHyO3y0opeQE/G5AKbf1LWAjL0vGGdhM4M0g2kxM7zE4DkYMwAcAQETbwJxggxj3/zsAMMwBMO0PAEzYH4wAiAIA9/07YH8CRgI0GuA8APt5+Of6VOnijoKmufntHtZUSnlEBwCVVorqV+cibiYD7Ho2gW5k2A3EZjMxb447ic3ZWYGuxotD77pebA8uWrIpZ9v2baOsExjFlg8xhkYx7CgCfZuBkNv1LNuZAHQAUCoN6QCg0kogln0mEw9zP5m6JnTlX1FdTdb97IG74xtjdwF4vf+ffwlH2rMBXO92PdP3OKDruUop/+kaAJVW2MjsY0/gFX6/+e9Ngul+iVyGObXstuhBEtlKKX/pAKDSC/N0iVgLXi6R65ZlVaEogJfdT2ant8ee7X6uUspvOgCotFG6uKMAwBj3kymRlW0ecj/XZUQrJGKNHqmsVFrSAUCljf4Fa64j2Ce9XOg3WAZW6DYATa+uZn2tUCrN6A+1ShtGaP96hsz9dbc5u7Y/CqDb/WTOe2FUxwnu5yql/KQDgEoLZfWrD2TQyRLZZExS3///p8bLTtkJ8GMS2US6tbJS6UYHAJUWeuPZ0wAEBaJfS6WNcIhIaFjRdQBKpRsdAFRaEFuoRnSfSK6QuEPLZJL5uOJFGz4hk62U8oMOACrlVVezYeBLEtlSC+ukLCsPvQpGh0A0ORSbJpCrlPKJDgAq5fUvUDvE7VwGdsWcnlVu50pjI7QpEJGuA1AqjegAoFIeGZlT6whYtax8osCqelmUsFKLFs++aMmmHKFspZTH9CwAlXLKGhqc2OajjwFTEWDOAfNxEnWIkFKX//9p65bNT4zIy9sKYITL0ftv7d6xOVzXvgqgZSYeX750/oTXP/63KaWSkadnpio1WDPr1o0MsCkyQBGDzgb4QOmaCZs4Ytm8CZuk60gIR9ruBmi2cBkG+AWA7reGmlrnhl4QrqeUcpEOACppldauP9hSYiYRymAxFYQsD8uvb64syPewnqvCkehFAC/xuOwrDGoxQOOErvynkvnwJKWUDgDJjZlKF7edwUxFYDoWhE8BcAj8umVqA8zyrNHtDzbOnp3wu1W3hG96YQSyAucS6AIGnQGw40cfBLqxqTK0wI/abii+ue0QE6Q34dM6HwK9wcx3W4fuSrcrA+fWrTsizjSLQKeBcSQIOQBvZaK/w+IRA6epqWrcFr/7VOrj6ACQpEoWtX+JDC0EuHDvv5I2EfgX73V1LXmsenLcm+7cNb1mY3Z2IDYd1n6VCTMJ8H2hmQXObK0sSLknAD4sXNv+NAgn+t0HGB0M/oMD5w9Lq/Jf8budwTp30bqjE8b8FMC52PtgtQOM+iDRVY2VoQ88ak+pfaYDQJK5aMmmnPe7P7iZQeX79BsZHUz4QUtlgdBGMO4rqo2GHMK3wfw1EJLozHl6f3RgZ96t5RNjfncyFOFI9CqAq/3u40OYgMcY+E1PInvpivlH9vjd0ECURaKHxmGrGfQt7NvC6VeY6fyWqtDTUr0pNRQ6ACSRovrop504NwD4wmAzGPxXA7OgqTL0hIutueaiJZty3t/ZXcRs5wB0FpLwe5CAe5oqC8r87mOoZkXaT7DAM373sQdbwWiwhiOtFYXr/G5md6YuXDt82HCnihg/AnDAIGPiTPjfloqC693sTSk3JN2Lb6aaVdc20zL9HsBIF+IYoAaHEj+6t2L8Sy7kDVm4pu2z5FAlg77pxQr+oWCib7ZUhLxeQOe66mo2L+RF3yDgUL972Tt6nGBrAnnrW5JhPcuk6lWBkaNHXWyZrnLra8fgP+zstuUrF0zY4UaeUm7QAcBvzFSyOHo5Ma6F+wu2YmAsISfx46a5Ezpdzh6Q0kj0NAbPB2iWXwv69pENgg5vrAy97XcjbghH2pcAuMjvPgboTYB/QxxY5NciupK6jinE/KuPX3uz7xjYYJnOW1YVirqdrdRg6ADgo7Ka5/NiTtYfAZwlXGorE67L2rWtpu/IWFlz6lcHO+PDLgDs9wAqkK7nstXNlQUn+N2EW0oi0fMI3Oh3H/toB4A7EzZxo1f7MMyq6zjJsl0I4DThUttg8c3meQX3CtdR6mPpAOCT0sUdBWy5FeCxHpZ9HUQ/C46K3i5xqXV6zcbsLKfnfAJ+DOBzbud7g69uriys9rsLt0yv2XhAttOzGTJHJUuzICwHbHVzxfjnJArMqu34jDX8MzB/Fd69HjIxbpiwOfQj3StB+UkHAB/03+//I4D9fWmAsBbMlzdXFq50I66sfvWB8Xh2FcNcCnCeG5l+McCJSysLnvW7DzeVRtofZWCy330MARNjmQVd69aK+rKa5/NiJvhjEF0C34Yjbgj2bL/Ii6tySu2ODgAeC0faLgXML5Pjfjg/bI25fLAbtfxrlbTF5cn1GN+g/aO5IvR5ELHfjbipJBItJ/AtfvfhDn7YgH402CGtqH51rknkzCOmHybJYtQ1iQCVLCsPvep3Iyrz6ADgkbKGaFa8097CRN/wu5ePsATcFQ/Qjwf6IlRUvzrXxLMrCObyVP/E/x+I5jdXhBb53Ybb+m8DvAhglN+9uIQJ1Gxt4qqWeePbBvIbyhoanHjnuK+DzE8ZfLh0g/uCQG8krA23zitc7XcvKrPoAOCBstuiB8V6uBnA6X73sicM7CKgBr2xXzR/99itu/s1Eo9HJZH1PYnsY1Nlc5p9Fa5tmwuiOr/7cJkFcHfCJq7c22LBktqOGUSJ65N8QWo3LC7UxYHKSzoACCuqj37aifEKEFLlYJktDPw8K48ijbNDvf/8l6W1becw0Q0AxvnYm5QPKIHTmuYXrPW7ETHMFK5rXwpQ2O9WBPQQaFEvJa69v2L8e//8l+G6dcfDmhtAONPP5vaBJcL8poqCiN+NqMygA4CgkkXrCo1xViTbJccBeokYV7KxG4nNwhRfRLY325nMrJaK/If9bkRa2a+eGhbLPqAZwFS/exGyBYxrCM5yRuIqEL6CVHyNY/5Fc2XBlem2FkUln9T74UgR4UVtk2CoCcAIv3tRe7SGjPla09z8dr8b8cqk6lWBkaPyrmHC97Bv+9orLzHuHB3c9e1UP49CJTcdAASU1kXLmPn3ALL97kXt1mqAIlu7Ou9K1RMUh6rklmg+JXgB+k628+dxVPVxVgRBs/VEQSVFBwCXlUTaKwhYBJ/OYVe7wXiVCI8xaBXDPtJSWfia3y0li+k1G7Nzgr2nMvNkMCah7yCqVNw0KD0xngnm0PTGi0Pv+t2KSj86ALiotC56GTPfCP26+oy6ADwI2Mcc4lXJciBSKpi6cO3w4cPMKQxMBtEUAMdDh1l/EdYSJab6dZ6HSl/6RuWSkrr2K4hxnd99ZLCXGHQfiJa93/nOY5l6ad9tRfV/GxVIxCczUATmEgz+WFw1BAxsSJj4lPvmHvOG372o9KEDgAtKItFrCHyl331kFkoQ+P8xc2MiaO7XndTkTa/ZmJ1FPZPIoRIwnwtgtN89ZZh/JAJ0ln6vK7foADAUzBSORG8E4TK/W8kYjA42+J3jmN8tLc9/y+92MlV1NZu1eR2nWKCMgK+k1Y6QyYzxqiU6q7Uy9A+/W1GpTweAwWKmcF20BkCV361kgPUA7jBs7l5alf+K382o/zS9ZmN2MND7JcP2AoBKoE+/iCLQG8ahyfdekr/R715UatMBYJBKa9uvY8IVfveRrvq3Jl7GZG5tmTvuEd0UJTWEb3phBLKzZgNcAcYEv/tJY68nbOKMvW2BrNTH0QFgEHy95894FUR/A/hsX+qLo+cY+E1vIuuPK+Yfuc3vbtTgldauO5nJuRjg8wEM97sfAZuJ8RQTin2q/1LcxM/QhYFqsHQA2EfhSPR7AN/oU/k1JpEoWjp/wusldR1TiO0NAI71qRc3WRCWM8yvM2FL3kzTdxrhrm8A9F0An/G7nyFj9DLRLdTbe1Xzd4/dGq6LzgFzBP7srLjRBMwXdT2MGgwdAPZBONJ2KUA3+1R+aSKw62vLyid2/+vfMFPp4o7zmHE9wGN96msotjHoDofpV3pvP/1VV7N5IS86k8DzAZridz+DYAHcC+Nc3jx33Msf/g8li9q/RAYN8OUxSWojNpObqsZt8b62SmU6AAxQ/w5/tfDha8bAdcd2ha6sria7u/9+0ZJNOVu7d8wH8EOkxtkDrwF0Q3d3fMnKBRN2+N2M8t6suo6TLNsfAChGCrwOMfAAE1/RWlG4bk+/JhyJHgPwMgCf9LC1fvx8MNBzZmP5xPe9r61SVdL/4CWDcG3bbBD9Ed7viBYn4nlNFYW3DOQXl90WPSi+iy+3hEsJyJFubhBeAfimEbn71d/xjbG7/G5G+a90cUcBM18Oxv8A7Pjdz0cRECXiK5ZWFN4/kF8/q77jMBu3rQAmCre2G/T4iNzcafqzpQZKB4CPUVq37ovM5kF4/2jTexY4t7WyYNW+/sai+uinnRhfCcLFSIptXGkTYH/dk8i5ZcX8I3v87kYln5Jbovlk8QMwfwXJcUrhayC6Jjgqenvj7NmJffmNUxeuHZ6ba+4CKCzV3F60BPM6zt3XnlVm0gFgL0oWrSsk4/wZ4AM9Lv0PYmdmU9W4vw8lZFak/QRLuKH/kBc/vE7MVwVGr79TX5DUQBTXrT3KWOfnIMyCP69P7zH42pG5+9UO5ZN0dTWbNXntNwD0PTebGxDmRc1VhfM9r6tSjg4AezCrZu0nreM8BeBTnhZmdFgOnN067+g33YosqeuYQrA3evhc9ntMuD5r17aaxstO2elRTZVGZkXaT2DgegYme1KQ0QvgjqDt/d/G+cd1uRUbjrRfDuA6ePxaS6AfNlWG9GwStVc6AOxG2W3Rg2I9/ASAcd5WpucSgcC0ZeVHbXY7ubqazdrRHecy80JIPYol9CKqMlf/464LARwjVIIB3OOQ/YHUqZElkWg5gevg7e04ZqJvtVSElnhYU6UYHQA+oqwhmhXr4ocBnO5tZXrc5jhFrd86ertklakL1w7PHeZ8F4TLAezvWjDjXgPzPX2cT7mtrKHB6e0KXUzgnwM42LVgxqMw9vLmivHPuZa5B+G6tq+CaQm8Xd8QA9P05qrQIx7WVClEB4CPKIm030rAtz0uuyLYs+1cLy+Xl9auPxhILGDCdzC0BY4bQXRpc0VohVu9KbU7M+vWjQywU01A5RCfGFhPRFc1VYQaXWtuAEoi7UUAGjx+Quc9Yuekoa4nUulJB4APKa1tW8BEN3hZkxitu2z2bL9Wx5fWrv88U+IaAOdh374fugFe2JPI+YWu7FdeKl4cPdZYrgVwyr78PgK9wYSfDmZlv1uKI+2TDdAKYD/vqtLfYpQ4+f6K8e95V1OlAh0A+pXWtp3DRC3w8D4dAb8L5HV8MxlWyJdE2k4hop9//BMDlAD493ET/1/dg1z5hplK6qJfI8bPQPj0x/zqzSD6VcLZ+ev/2EnTJyV10dOJ+T54umsgPbS1q3PGY9WT497VVMlOBwD0b0Zi7VNw8574x2DQLcd25VfuaXc/v4Tr1h1P1pQx4RQGjqS+2wPbQNgA0OPG0v/pfX6VLMoaolmxzTSDbKKYyUwEcCjAAQLeZGAdmFckgj33JsMb/4cVL2qbaAytBDDSw7K1zZUF8zysp5Jcxg8AZTXP58WcrGcAjPGsKOPOYzaHvplsb/5KKe/0nZZoVsLD2wFEPHegO4uq9JcEu8T5p7qaTczJ/gO8fPMHN2/d3HWxvvkrldmaqsb/hQyVMODZ1r3MVFNSF/X4CSeVrDJ6AFgzqv0agM/2riI91JPI+bLeh1NKAUDT3NCjBC4B4NVC2iCYG2bVdxzmUT2VxDJ2ACitbTsHRFd4WPKp7u54qa6YV0p9WHNl4UoC/w8ATz4YEHAox+0fyhoaku7wJeWtjBwAZtV2fIaJ7oBXf37GMzYnME2PvlVK7U5TZeFS6ju8y5NbgwxMjm8O/dSLWip5ZdwAcNGSTTmW+F64uaPYXlEbwZkhvcOfUiq1NVUU3AnQpV7VY+YfltS2lXpVTyWfjBsA3uveUQPw8R6V+4eN2bObqsZt8aieUiqFNVeGagH8xKNyRES/LVq0dqxH9VSSyagBoDQSnebZNr+Md4mdma3fKXzHk3pKqbTQXFnwMwLXe1RuhOM4vwVzxj8SnokyZwBgJoBv9KhaDKDZuv+2Umow8gI98wB4c4gPY1JJZP10T2qppJIxA0BxXXQSAyEvajFRuZ7ApZQarFvLJ8aC2TQboL95UY/IVnlRRyWXjBkADKHYizoMXKdncCulhqrx4tC7FjgHgBdriM6cunDtcA/qqCSSMQMAMR8nXoRx77FdoSvF6yilMkJrZegfBApDfqOg7Nz9Ap5cIVXJI2MGACY6XLjEs4ngrgt1i1+llJuaKkNPMDAHAEvWIWs/KZmvkk/GDABgkvuzMl4NgoqT7cQxpVR6aKks+B0IP/e7D5VeMmcAAN6WCmaitsbKkFi+UkpZax4SzRd8jVTJKXMGAOY2qWgCzwwvapskla+UynDMRJS4Xq4AJeLE6+XyVTLKnAHAmBWy+XSDbqahlJJQurjjPAKdJFeB/3J/xfj35PJVMsqYAWC0030/GK8KljihNBI9XzBfKZWB5tSvDjKz7P1/8mznQZVEMmYAuLV8YgxECyVrMOHnZQ3RLMkaSqnM0pkYdgmAI8UKEF4c7fTcLZavklbGDAAAMDqwsx7ARsESR8Q6uUIwXymVQYpv37A/mGX3FrH8o1vLJ8ZEa6iklFEDwK3lE2NEJPvDRPhJ2W3Rg0RrKKUygtkZ+yGAQ8QKMJ5prixoFMtXSS3gdwNea5qbf09JXftfBRfUjIzv4ssB/EAoXyWZ4ts37E/dvWNgzBgiOoytHUWggwEczESjQDyCmHL6fjUfAMD5jwDCdjDF+/6PfQ8wWwDeAmALwFsIZjOAVygRf3n8u+Pf1M2mMsM5i9ccDkuXStawMAtAJLrBkEpeGblqvTQSPY3Bf5arQDsZ9qiWysLX5GooTzHTuYvbxsYtTTDGFDJzAUBHADwGwMHe9YFeEF4B6GWw3UBEbWxobfcH8ejKBRN2eNaHEheORG8H+JtS+cRobaoqKJHKV8kvIwcAAAhH2prQt8e2DMadzVUFF4nlK1Gz6jsOS8T5VCI+FYwTARQC2N/vvvbCAngJoOeI7VMJxlPbtmxe81j15Ljfjal9V7JoXSEZ5wWAnY//1YMSJ/D4pspCffY/g2XsAHDuonVHJ4xpg9xtEEsJHNc0v2CtUL5yUVkkemgMmAbgLACnAjzW755csAOMp0H0/5jxQNbo6OrG2bMTfjelPl440r4cwHSxAoxbm6sKysXyVUrI2AEAAEoi0cUEvkSsAOHB5oqCaWL5atDKGhqceFfoZBCmM9tpAB2L9P952AzGSoAfCNrYA43zj+vyuyH130oXR89ky48IlthhAubIpeX5bwnWUCkg3V/w9qp08drRbJ2NAA6QqkHMU5uqCkX38FYDU13NZm1exykWKCNwGYDD/O7JR5YJfyHmRhvDn1q/U/iO3w0pAMwUrut4FuDjBYtc3VxZWC2Xr1JFRg8AABCORK8CuFqwxJpjukLH68pt/4Tr1h3P7FxI4PMAfMLvfpJQHIRHCPhj3NnVqKda+qc0Er2AwXdJ5TPwdhboyMbK0AdSNVTqyPgBYOrCtcNzc52NkPw0yHxhc1Xh78Xy1X+ZXrPxgOxA75fBmCP7aSrtbAPjTwamfmlV/vN+N5NJyhqiWbEuXg/gCKkaDLqkpTKk2/4qADoAAADCddE5YMG9sBmvjhg+/Kg7vjF2l1gNBQAorWmfwA7NB/h8AMP97ifFrSbmxbtszh9WzD+yx+9m0l04Ev0ewDdK5TOw4f2urkJ9MkT9kw4A+OeCsPy1DIQEy1zRXFlwg2B+RiuNRE9j4ivAmAn9vnZbJ8CLiQOLmqrGbfG7mXQ0s27dyCCbjRDcU4KYwk1VoRapfJV69IWyX3FdtNgwS/5wbA1m02cbLw69K1gjo5Q1NDi9XfkXEOj7ABf63U8G2AFgSSJAC5eVhyRP1sw4pZHoQgZ/X7DEE82VBacL5qsUlFFnAexNa0WoFYxHBUuMiO0SPtQjQ1RXsymti5bFukJRAu7UN3/PDAdQ5cR4Y7i2vf6cxWsO97uhdBBevH4Mg+cJlmAGXyGYr1KUDgAf5tAPAUjui10Vrmn7rGB+emOmkkh70Zq86HPM3ADwUX63lJEIWSDMCSQCL4Vr2+tn1Xdk8uOUQ8Y2fg2AbMEKjS2VhU/J5atUpbcAPiIcabsboNliBRj/11xVcIFYfpoqXtQ2kRy6mRin+t2L+i87AL5xRO5+1+lC133Tt2gVz0Puw1jMcUzo3kvyJY9BVylKrwB8RMLaHwCQW/FM+ErxoraJYvlppnjRhk+Ea9vrjaGn9c0/aQ0H6Kqt3Tv+XhJpv9DvZlIJO3wjBF+HGbRY3/zVnugA8BHL5k3YxCDJ52TJOHSNYH5aKGuIZpVG2q40Jv53EOZAv1dTwacIuLM00v5oyS3RfL+bSXbh2uhZAE0RLLEtK9GjrzVqj/RFdTdsIPAzgN4XK8D4UsmidbpwbQ9KaqNfiHXZ5xh0DfRZ/pTDwGRK8POlddGflDVEs/zuJ2kZXiAZz8zX63kPam90ANiNZeVHbQbheskaZEyZZH4qmrpw7fBwJHozEZ4EqMDvftSQZDPz1fEufn5WXcdJfjeTbMpuix4ExllS+QR6wwZ7bpbKV+lBB4A9CO56/2YAr4sV0PvZ/6G4tuOM3FynHeBLBc9AVx5jIGTZPhmubf/l9JqNgivdU0vvLjoJckeRwxJ+rGc6qI+jA8AeNF52yk6AfixY4nOC2SljTv3qYLi27VpD/CiAMX73o0QYEC7LDvQ8XVQbldxtM2UYJAR//qkta1T0d3L5Kl3oALAX1tp2sXBCrlh2iiitXf/5znjOkyD6oX7qzwCMCQ7h2dK69kowZ/QjyEyUIxfOf2+cPTshlq/ShtglqHRgiOTWARDkFhmmgHBd21eZE7cgPRf5bQH4LcBsAXgLgbvAtNUSxUG8HQAI1A3mYUwgsggSsF//m8LBAB8MxsEADgXhE0irn1MexozacF30S7jphQubv3vsVr878gOD3iepPccIs2bVdZy0tCL/rzIFVLpIoxcWd5XWtp3DhDPFCjD/TSw7ic2pXx3sjGX/EkySW5+KY2AXgTsAWgdQuyVspERiE+dmvdz6raO3u1VnUvWqwEGjDjmcTXyMhXMEgHHEPAFAISSPsJZXhKzgs8V1bee2VhSu87sZrzH474KXQMiyXQhA9/5Xe5XRl+H2ZFL1qsCIvLx1AMYJlsm40wFn1XccZuO2AcBpfvcyCH8H4y8MPGFBf9m+ufNvfh+rWlbzfF4iEDwxweZkAk4D+AQg5W4t7WCiOS0Vof/zuxEvTV24dnhubqAL4GFSNQh8blNl4VKpfJX6dADYjXBt21wQ1clVoATDjm2pLHxNrkZyKamNfoGIm5A6n1o3g7EShlfYXjzU+p3Cd/xu6OPMqV8d7IoP+wII05ntNICORYr8jBNwUyCvY0Em3bsuibTdRSDJbcE3jg7sCt1aPjEmWEOlsJR4cfBSUf3qXBPPeZGAQ+Wq0G+bK0PfkstPLqWRtlkMc5fkpx2XvEKgRsu459jN+c9WV5P1u6GhKL657RAnSMUMng2Yycm+0JIYrTt2Jv5n5YIJO/zuxQtFtdGQQ1gr+fdCxHObKgpvkcpXqU0HgI8orW1bwESSl+a3x0183H1zj3lDsEbSKK2LXsbMC5G8T5xsBuEuA3Nz5xabAAAgAElEQVT30rnjngaR5GmQvimreT4vHgiey0xfA3CK3/3sxeogqKixMvS23414oSQSXUzgSwRLvD4id/iRekiT2h0dAD6k+PYN+5td8ZcAjJKqQcyXN1UVLpTKTxZlDQ1OrCu/BkCF373sBhPwGBi37rLZTSvmHyl3+FMS6v/k+W0wfw2Eg/zuZzdeYYdmtFwS6vC7EWmltesPZkr8DcDBUjWI+dKmqsIaqXyVunQA+JDSSNuV/fvPS1kfzKNjGmeHegVr+G5O/ergO4mc3xHjy3738hHdDPqdYXNTU9W4v/vdjN8uWrIpZ2v3BxeA6TIQku3wni0g+6XmivHP+d2ItJJItJzAYpfpGXjbBnZ9VncGVB+lA0C/8E0vjEBW8CUAI6VqMJmzWyryH5bKTwbTazZm55ieBiYU+93Lh3QCqE0EgouXlR+12e9mkg4zlUTWTzdkv8/AZL/b+Td6n4BzmipDT/jdiaTqajZr8jqeAfh4qRoMXtBSWXijVL5KTToA9AvXtv8vCD+TyifgnqbKgrQ+AKiofnWuE89pAjDV7176bSHQjTu644syZWHZUJXURU83bK9h0Bl+99JvB5MJp/vgPKuu4yTL9inIvSZ3Bnu2jenb4lypPjoA4F9vXK9A7N4/7UwEcPSy8tCrMvn+6/saDlsO8Bf97gXAdoB+2ZPIumnF/CO3+d1MKiqp65hCbK8B8AW/e2FglwGVNlWGHvC7F0nh2vY7QPi6VD4RqpoqCiJS+Sr1JOvKbE858exvQ3DhH4N/nc5v/mUN0Swnnt2YBG/+DKLfB0Gfb64MXa1v/oPXUpH/cHNF6GQimg3gFT97ISCHgaXhRW2T/OxDWtyJXwlA7D49W1w+p351UCpfpZ6MHwDKGqJZAH1PrADj3TjZtN3xb0796mC8kxsBmuFzK08YNhObK0IXZsojZOKIuKki1NjdnQgB+BkDPj5KxsNgqLWkNur7FQkp98095g0mkvuETvh0Zyw72RbmKh9l/AAQ77RfBfApsQJE195fMf49sXwflTU0OJ3xnDt9XvC3DeDvHNMV+uLSqvznfewjba1cMGFHc2XBTyjBBWA86mMr+xPhwVm1Hcf52IMo6um9Fox35QrQD6urOeNf91WfzP5GYCaW/fT/6ojc3LS959b/nP9X/KpPjNa4iec3Vxb+OtV37UsFzfMLX2yuDE0h4rkA+XSaJR9oyS4PL14/xp/6spq/e+xWAl8nWGLcC6PWTxPMVykkoweAcF372ZLPP5PBT9J1B66SSNv34d8mP9tBVN5UVVCSKTsqJg0ibqoovIVhCwF63KcuDoFNLJ9Zt07skV0/HTh8v0VgiK0ZIrKXSmWr1JLRAwDDzBeM/8d7nV1/EMz3TUmkvYhgJD+l7BnjGccxxzdXhG71pb4CALRUFr7WXJE/GeDvgOHHxlbjspiap9dszPahtqg7vjF2Fxn+hWCJqSWL1hUK5qsUkbEDQHEk+jkCT5fKJ8I1fh8XK2FWXcdJBLrbh4NlmIiu3bq569R7L8nf6HFttTtE3FxZ+Gs4dLrkJ9Y9YdAZ2aanHsxp9zjzrnjOEgCvixUwTjJu0a08lrEDAAHzIPfnfykdP/2XRaKHWrb3+nCq33ZYlDVVhK5Mx6Eq1TXPDT1DcI4DsNLz4oSvh+s6LvO8rrAV84/sob5DtEQQ+MLS2vVi5w+o1JCRA8DUhWuHE+Q23GDGL9LtjWpO/epgL/E9AD7hZV0CosTOxOZ5Bfd6WVftm6aqcVuCeR0zGLgOgMcnKvJ16bhHQKB3+28YkHqkNRfGir0GqtSQkQPA8GHmfIAPFIp/LWs0/U4o2zfvxHJuIsap3lblhwOBXafqwT2poXH27ERLZcEPieh8j/cMCMDQ3bNq1n7Sw5ri+rbt5V9K5TNjTjrePlEDl5EDgCV8WyqbgevS7bS/cF3bV4lQ6WVNIty2tWvz9MbyiT49bqYGq6ki1GjIThN9nv2/jU44prFvY6/0sbPbLgYgdIAVH1WyuOM0mWyVCjJuAChZtK6QQCeJhDPetYFdd4hk+6S0dv3nwSR2VOluMDNf2VRR8O10u42SSZoqxj/usD0VwMte1STQSbFO0dXznlu5YMIOBtVL5RPkPgyp5JdxAwARCX7Dc306nbk9qXpVgCnxOwDDPSrJAH+3parwWo/qKUH3zhu/wQTMKQREPStK+G5JbYff21K7yglQROxRS8Z56bqfgvp4GTUAXLRkUw6IvioUHzPW1gll++LAvLyfwbPT4CjBRN9qriz8tTf1lBeWlue/FQBNAajNo5JEZH9TVP83scO9vLa0PP8tEDXIpPOwABvfdvNU/sqoAWDrBztmAhCZdplw79L5E+Se2/VYad26LxJwuTfVKAHw11oqQku8qae81FgZepvYTAawxqOSn3Disds8quUNStwsF85fk8tWySyjBgAydIFUtgOTNp9cyyLR/ZjNnfDm+4OZ8O3myoI/elBL+aSpatyWYKJ3KoD1HpUsCUeiF3lUS1xzxfjnAPxZIptAXyiORD8nka2SW8YMADPr1o1ksMy9QcYzSyvy/yqS7YNe4OcAPuNBKSbCPP3knxka5x/XZW1gCggvelKQ+ZfFN7cd4kktDzCoRiiaDCD24Uglr4wZAIJwygCI7BtOhLS53Ni31S9XeVKM6MqmioK0PS1R/bfWeUe/CXKmAHhLvBjhIBNMnytzWXloBdApk846AGSgjBkAiK3UN/gHiZzAn4SyPVXWEM1itrfBg+8LBn7TXBFKq0e21MA0zx33MsgWAdghX43PL4m0F8nXkdc4O9RLENtk7Mjw4uiJQtkqSWXEAFAWiR7KIKENL+ju1m8dvV0m21uxLr6CgZB4IcKD73d16WEkGay5YvxzDHylbwGoLALqyiLR/aTreMHYxO1S2cw4TypbJaeMGADiZMMQ+rMaorS4/N+/jeoPpOsQEO2JZ8/WTX5US2XBMsB+z4NSn+z14HvbC/fOG78BwBMS2QSeJZGrkldGDADMJDTZcnu6LP6zxrkeQK5wme0Al62Yf+Q24ToqRfTv+3CHfCX+Xnjx+jHydbxAMlcBGJ8NR6LHiGSrpJT2A0D/kZdnyKSbO2RyvVVau+5kEKQ3A2FL9NWmykKvHgNTKSIR2FUJwlrJGgTkwCZukKzhle7ueCPE1k/oVYBMkvYDAPctNgoKRFuGFdqdy0PMxDA3AxA9FYxB17ZWhFola6jUtKx8YjfifC6ArcKlyoprO4Q+DHhn5YIJOwCI/CwRoANABkn7AYCAYplcfqKlsvA1iWwvlS7uOA8E6dW/zx4S2Hm1cA2VwprnF77IkDyno48he2M6HIFLTHdL5DIQCte0fVYiWyWftB4A5tSvDjJwpkS2hcwPoJeqq9kw48fCZT5wHHPBreUTY8J1VIprqQzdQ4DUY27/dMKsxe0pf1hQYDRWiB237JjpIrkq6aT1ANBlh50O8IHuJ1OCY3yv+7neWjO6/X8ALpSswUDlvZfkb5SsodJHAFQJQPT7xTJ+mupXAfr2BOAWmXSrA0CGSOsBwDKmCSWvav1O4Tsy2d6YVL0qAKafyFbh5pbKAulPdCqNNFaGPiCy3wbAclXouJJIe1gu3xtMENqAzEwuql8t/USQSgJpPQAQy0yyDHOPRK6XRuSN/iqAI+Uq0PvWBivl8lW6aqoY/zgYv5GsYYiqU/0qwNauzY/K3AbgYSaWO8n9XJVs0m8AYKbiRW0TS2rbrwaoQKKCk4jfL5DrHWYi8PdFaxAub5139JuiNVTaCgZ3XQ5A7PuHgfHhxR1CVwi90b+Z1gMS2UT8v+Hattnhm14YIZGvkkNKT8D/NL1m4wFZTu9Uw3aGJZpOwKGC5V5oriw4TjBfXLguOh3MywVL/Lm5IvRFEAlexlXpLryo/VwYSF5te6S5smCKYL64cKT9KwD+T7BEHKAnAV5OxixvmpvfLlhLeSxlB4Bz69YdkYAzBeAiWEwFIcubynx1c2VhtTe1ZIRr2x8ByTwdAcCC7In955crNSThSHQlwGdL5Rs2xy+tyn9eKl/azLp1I4NsOgEEPCr5ChgPkqGHE9nOA+lyDkqmSpkB4KIlm3Le27nzNGPtFCYUAxjnRx8GOHFpZcGzftR2Q3Fd23jDtAZCf/cM/KalsmCORLbKPEW10ZBDvAZCb3AM/kNLZeFXJbK9Eo5EHwP4i17XZWAXgZ9goocDCdvSf06BSiFJPQAU1Uc/HUjYGcw0A8BZkN+rfq8YePvYrtDh1dVk/exjKMKR9iUALhKK32Zj/PlUf0JCJZeSSHQxgS8Rio+ZgPnM0vL8t4TyxZVE2r5PoIV+9wFGBxu6nxJ2+eisnid174/k59VlowGZVL0qcODo0ScbyzOZaAbiXMhJNKMYYGVKv/n3LeiZLVjiRn3zV24zJn4VW+drAIYLxAcTscQ3AFwrkO0JY5wH2Fr/BwBCPjHnw9CCzviw98OR9pUALbcxu0JfF5KT7++upbXrD4axZzJQBOZzAIz0u6c9IcJFTRUFd/rdx2CV1rVXMqNWKH5LTyL7CD3pT0koibT/gsSO9KVNx3Tlfy5lh3tmCtdF3wJwiN+t7BGjg4BlILpvQlf+Uyn7tU4zvlwBKF3cUcAJG2bimYzEieDUeByRrHnM7x6GghkXC8bfoG/+Soph50amRAWAA9xP57FrRnVMBvCI+9keIGJE2h4HSPLq3tAQ8hnIB/iKNXnRd8KR9hUMuj+r5/37Gy87Zaff7WUqT994SyPRaeFI+7NsbRsIPyPQSV73MHi0aWlV/it+dzFYsyLtJwCQOuv7nURgl9SVBaXQVDVuCzNuFitAED+ISBTjMb9b2AeHALiIwI2x7APfKq1tv073G/CHJ2++UxeuHV4aab+TwSsATPSiptuI7WN+9zAUCcbXpbIJvGhZ+cRuqXylAMDAqQEg9H3G4bL61QLnhnjDYV7ldw+Dwwcy4QpkBdtKI9HT/O4m04gPAGWR6H65uc4KBi6UriWJgRT9AQPKGhocEM4Viu8GB24RylbqX/qvAiwRis/ujeeUCGWL638EL2WfZADwSQY/XFLbkfInNaYS8QEgDl4C4HTpOsI47iQe9buJwerpyj9DandEZixpqhq3RSJbqY8iyzcBlBDJBp8vkesdSs01DP+WTWQbi2qjIb8byRSiA0BpJHoBA+dJ1vAE49n75h7zht9tDJYj98LGgYD5tVC2Uv+leX7hiwS0ioQzTSm7LXqQSLYHiIS+Lt7Kdcj+rrqaU2RtWGoT+yKXNTQ4DL5GKt9LTIj43cNgTapeFWCYWTLp/Mi9l+SLnt2u1EdZy/UiwYSs+C6bsscEB0ahBcDrfvcxdHTcC3ntZX53kQnEBoDY5tBUAGOk8r3Dz7/f1SV52IaokaMPPhXgPJFw4SNbldqdY7eEHgIg8kQOGyqVyPVC4+xQL5h/5HcfbiAm3U7cA3KXWaydLpbtne0JNhf2H7uZmqyR+nvoDI42zULZSu1R/yYyt4uEMyZPr9mYLZLtgebKgrsAbvC7jyEjnDF14VqJnR/Vh8gNAGRS8nG/D/mAycxaVhWK+t3IULCBzJnnjLsaZ4d6RbKV+hgMvgOAxG5yw7MCsdRdtEzEwZ7tFwFY6XcrQxQYNjyQ0seupwLBhRZ8hFy2LAY2AHR6S0X+w373MhTnLF5zOBjjJbIN4U8SuUoNREtl4WsAnpLIphS/etl42Sk7g3lURMBNANjvfgbLpPB7SKoQGQCK6lfnAhgtkS3sJTC+25vIPqa5MrTG72aGKmCdaRA574E2La0IrXY/V6l9QXcLBctcNfNQ4+xQb1NlwWUgewKAFgApdxuTmcf63UO6kzkLIDZsLIh9P2hoABjgF0C03MDcv3TuuKdBlLIT83+js0RSmRvS6+ukUlEQuCcGuhlgx9VgQn7xog2faJ139Juu5vqguWL8cwDCZTXP5/UGss8xzDMYmAqRMxVcxjTG7xbSncgAEDR2jE3e9//tBHrYMi9nDiz/jx/yCh+7ksA4VeTzP+Fe91OV2jeNlaG3SyNtTzLoDLezHSdxKoBGt3P90jj/uC4ASwAsmVO/Ovh2POc0BzSDwTMBjPO5vd0i0isA0kQGAMtmbJLdenoJjIeZcF9vInvlivlH9vjdkLRzFq85HBafdj+ZusZ35T+31P1gpQbBrADY9QGAGWk1AHzYreUTY+jb2nwVgAXhxevHgO1UME8BMB3Afr422I/1CoA4mVsAzGMlPnnugzgTngawDIaWtVwS6vC1Gx8EE4HTJS7CEHiFnuWtkgUDDwD4hUDyqe5nJqfmueNeBnArgFvLfvXUsN6cEaeCuYjAJQA+41tjRIfPqV8d7B9YlACZAYB82QDodTCWE2j5jp3xh1cumLDDhx6SBoNPkVj/Z4kedD1UqUFqrshfG66LvgngEy5HHzN14drhmfY60njZKTsBPNz/z6Uli9YVwjEz+tYO0CmQes/YLXY6e7I/DeBF72pmFqG/TDpM/hYAJZj4rwS6H4wV6bBq3130BYFQzor3PCSQq9TgEDFq2x8CuX7cdSBnWPB4AP/P5dyU0jJvfBuANgDXz6xbNzLANJXIzARjmtgOox9CjjkMOgCIERoA+DCZWLwLwiMgejjIaG2sKHhbpE6KK2tocGJdKBCI3tC/mEippMHAEwTXBwAYwxOQ4QPAh91fMf49AHcDuLu6ms2a0W3HMswUAEXEOBkCj5Wz5UPczlT/JnU5R2IPgBuCozt+1Dh7tshRoOkk3ln4WVAi1/1kEtl4RamhMMRPssDtLmYudD00TfSvA3qu/5/rZ9V3HGbj/Jrbj2SSI3OMuerj+sRWfPuG/QG4/uZDhA598x8gYydIxDLhSYlcpYaiqaJgA0ACV6Z0ABiopeX5bwG8xe1cZugVAEHu7wS4KyHzF2bd/+ZKV9ayxOV/BBKJv0jkKjUkRAzip12PBRXoufT7gLFZIFMHAEGuf3MHhO7ZWBi99zxARCL3/7vNIRs2CuQq5QaJRcD7tY1uGyOQm55I4CoM6QAgyfUBwELmno3leKdEbloifNb1TEa73oJRSctym0RsHAE9kGagmN2/AiD0fqL6uD4AkMFBbmcCQJxz9RbAQEnsoEUk8gKrlBsc5nUSuYatbkc7QCxxBQAy7yeqj/uPbYAkDpnoWTH/yG0CuWlnZt26kQAf6H6y1QFAJa2+21O00/VgojGuZ6YpIpErAMl/aFEKc38AYJb4C9P7/wOUbQMin1iYHb3/r5JW3+0pftntXLY8xu3MtCVyC0DkA6XqJ3ELQOIvTGKyTEsJJGT27g64/+KqlLt4k+uRRHoLYICYJBZq87A59auD7ucqQOIxQBaZ2HQB4AAZQ27viQ4A2Lk9/opErlLuoZcFQnUR2gARW5EPau85w/aXyFUSVwAgcAuAsd31zLRFBwuEdmbaoSgq9RBLXKXiUe5npidDjsg6rVjM6G0AIQKLAEVuAfQIZKYly5AYAN4QyFTKVdYYie/T/afXbMwWyE07cWKR12nLcR0AhEjscrWf64mEXtcz05aVGADeFchUyl0Jmd1Cg5SQ+JlKO0QyH9QCCdJbAEIkBoAstwMJMpNlOiIi1y9ZMulTGCr5scBe9ABA6NUBYACo14q8TrNjpQ6ty3gSA4Drf1kWRgeAAWJ2fw8AYr0CoJKfCQRknhZynBEiuWnGQGYAgCXXP1SqPgIDALs+ABjoLYCBIpDr9ysZ9J7bmUq5bteurTLB7v9MpSMHCZk1AHD0MUAhAgOAcf0vi4l3uZ2ZrkhvwagMNWLECJnXCev+z1RayrYiH9TYuP+hUvWRuALg/rRm9SmAgWLA/SsAughTpYAxr4wR+T4lowPAQAzPOljkddphXQMgRWAjIPfXAOhTAPuABa4A6ACmUkB1NVkAMbdzmRN6C2AA7rhojNAtAOgtACHuDwAkMACwDgADRu7/sJBx/0VVKSECb0K6BmBAiFjitZoEXtNUH4mnAKzbgWRIos+0RCDXv/4M/fqr1MACTyGBKO56ZroictyOZBjXX9NUH4kXdtd/WCTua6crFnhigtnq11+lBIlFsHoFcmAmVa8KAOz6AGAEbuuoPhIDgPt/WfoGtC/cf7ESWFeglNv6T42TWNisa2AGIGv4QSKv0wzSAUBIilwB0HtwAyXxyB6RDgAq+b0XHybzOmH1CsBAHDgyIPL1N0joACBE4DRA968AGL0FMGAStwAgcb6DUi7ridnhErlsdAAYiERC5oNaIqFrMKQInAbo/uUaXQOwL0jg2F6RI4aVchXlGJHvU2MkfqbSj7UyA4AJ6C0AKRL3y1yf1vQS9L4QORBFBwCV9IxN5EnkOpyQOWMgzVjuFRkALOsiQCkCAwC5vh2nrgEYOAYEBgD3TxhUym3W0kESucbpFTllMP0Ykddph3UreCkSVwC2uR+pTwEMFDELfFphkU9WSrmJjJH4Po01zjne/de0NBRgmQ9qcUro11+IwBoAgQEANMz9zDRFRuLTyqeqq1k3A1JJjYDPuJ3JwBYQsdu56ShBlCMTnL1dJFcJPAVARmJa03vQA8TgLoHY7NWHrD1MIFcp1zDzWLczCRJX1NITCS0WzjZ6BUCK+wOAlbgCAL0HPUAMvCaRmxUPjJHIVcotDPcHAACvCmSmJWIrcAuGEo0V+foUhhDXBwArcgsAeg96gIxxNknkWkfkxVUpF9EYgcyX3c9MT0wSi4V5u96CkeP+FQBjJO7XjOjf5lN9jK3vvP06BHZjhEW+65lKuaTstuhBBBzqdi6DRQbqdEQssFiYoZf/Bbm/sMvara5nAvRefJiuAxiAx6onxwG87nYukxnvdqZSbonttELfn+Zlmdz0I3IFgOh91zPVv7g/ABDecT0TQK/QJh9pifCy65HMhW5nKuUagwkSsQ7TSxK56YglrgDAiryfqD7u3wJIkMhfGBujCwEHiJk2uB5K+PTMunUjXc9VygVEVCAQy/FhZqNAbloigcXaDJkPlKqP6wNAwJEZAIzIdJmuuE0iNcvSRIlcpYaMcaLrmYSXWr91tD6DPnCuv0YT8Lbbmerf3L8FkBftAijhdiwZ0gFggAxonUQuE06VyFVqKKbXbDyAQSG3c4llfo7SmPsDAOsVAEkBtwMbZ89OhCPtWwCMdjOXmcpLIu1Zhp37m6rG/d3N7HQTCOxsi8VzGAC5HK0DgEo6WdRzMgDH7VwGt7udmW6mLlw7PGd44CxjeSaAXNcLGOp0PVP9i+sDQB96B2BXBwCACwn4FVPiV+FI+0tgPMyE+3oT2StXzD+yx91aqa2xfOL74Uj7KwDGuJtMJ02qXhXof9JAqaRADk6DwJPiLHQlLdUVLVo71nECZwNcxIwpxJzj+keNfsz8lkyyAsQGALwNQHLV+BEgzCFgTrbTsyMcaXuIQMtjJr78vrnHvCFYN5U8D9cHAOx34KjRxwN42uVcpQaNgckS7z+UsC8IxKacsoZoVqwTpwM8A0QzAT4K3DdxCb3vf4jRKwCCpAYAke1o92A4QGEGwgEbQDjS/hKD7gPRskOc7sdvLZ+YoWdJ01MAz3I9lTANOgCoJDGzbt1IYnzB7VwG3m6ZX/ii27mpoqzm+bx4IHsSA0WxLhSD+MC+/+LtpnzBbN2KWZLQAMAvy+QOyBEEng/m+Z2xnHfDkfZHQPRwkNHaWBnKmBWlhuhJy+7/sDLsNABXux6s1CAELZ0Ncv91zABPuJ2ZzKqr2awZ3XYsw0wBUBRjnAJm+Q/4e7e98eLQuz73kNZkBgDiTfD9ewcA4SAAZWAuiwGLw5HoC4C9D8TLmucWPp/Oe0yPcrqf64zndMPlhTkEOrGs5vm8xvnHSZw6qNQ+IWCaxA8xM54UiE0qUxeuHT4s1zmTGOesoWgR2ByWBK/a/0bQTZiEiQwAJkGbbPKdHm8APh6g48F0Vbgu+jpq25cTaPmOnfGHVy6YkFYnTt1aPjEWjrQ/B+B0l6NNPJA1A8CdLucqtU/KGhqcWBfNEAl36CmRXJ+VLFpXCMfMMMwzGHQKgIAHN/IHh93f0VT9J5EBII7AJiNwHo3LPgnCHAbPyc11esKR9seZ6E87d8Qb0mUYYND/I7DbAwCYeTZ0AFA+i3WGJoH4EIHo7aPNzrRZAFi8qG2iMfR1MIpB+DQY4KR91/8wPYlRmsjn9Naqo95iYJdEtpBsAFOJ+be5uc6LpbVt3/S7IVcQHhQKPrvstuhBMtlKDQwTny+U/Eg6LB4uWrR2bDjSdr8x9CyAKhA+7XdP+8bqSYzCZC7UEzGBXhHJlncIE90ejkT/NL1mY7bfzQzF+52dfwEgcTpjMNZjSwVylRqQOfWrgwS4/pQLADDMAxK5XgrXRac7xlkDCN0i8QCxnsQoTfBOPUflsr3A52cHeu4pa2hwfYcxr/Rv2POQTLr5mkyuUh/v7cSw6QBEjgh3mFJ6AAhH2qbCcjOAA/zuZSgShBR/D0l+YgMAEaX+KlrGOb2d+T/xu42hIGahFzM+o7R2/edlspXaO8N8sUgwo2NpVX6qXr1ESaTtUwDdDUKW370M0ZutlaF/+N1EuhMbAGIUu1viUCCvEfCDVH6jo6CzAoCViLbGyrwIK7UX5yxecziA6RLZbOh+iVyvGNCvAIzwu4+h4z/63UEmEBsA7pt7zBtgvksq3zOELEbie363MVhLy/PfIrDIpibE/PWyhmiqf9JQKSZonYsg9ASTw9wokeuF4rq1R7HQughv0c5EwNT43UUmEH1a33LgRwC2SNbwBKFsTv3qoN9tDBpRg1Dy6FinFVqJrdR/m1O/OsigS4TiX1paEVotlC3OQeB8CL+me4HZXrOsPKRbAHtA9Juldd7Rb7LFBQBS/ZGake8khp3kdxODlejle8RuxxhK2asjKvV0xrK/DOCTEtkMNKTy7qDMmOZ3D0PFoPuP3Vxwnd99ZArxabFlXsGDxJnzjiEAACAASURBVFQGIKU31zHAZL97GKzW7xS+A+bHRcIZE0rqOqaIZCv1YcwkOXCyEbtSJq749g37AzzR7z6GhptH5uaeV11NEmuW1G54crmoqSrUwg6dyJTC+2szT/K7haFgQGxRDcF+XypbqX8K17WfDcYEiWwGNrTODaXs7n+mJ3EagBS9TUnvg/Hd5oqCWXd8Y2wqbSCX8jy7X9RySaijpaLgNAJNB7gBKXZFwAInX7RkU47ffQwWDwvcDeADmXB8aVZdR8reIlGpgq4SSwbdJpXtiZT8gEJtAK5IBAKfa64quDmVb7+kKqHjgPesqTL0AIAHJlWvCozMG30SmM9hoAiEfK972RcE5Gz94IOTADzmdy+D0fqto7eX1rX/iRkij+5Z5p8CmCqRrVS4LjodzKeIhDN6yYn/XiTbO2f63cDHo52AfRLAfYad5lTebyFdJM2JEOfWrTsiAWcKwEVgnI2+/fmTDF/dXFlY7XcXgxVeHD0Rlp+Wyieyk5oqxsusNVAZLVzb/jQIJ8qkc0NzZWHKPs1SVr/6wFh82BaAk3HX0pfBWEmGHg4wVjRWhmSuQqpB8fwKwJ7cWzH+JQC3Ari1+PYN+zu7YmczzAyAZwA4zOf2AABMNAVAtd99DFbz3NAz4br2tWL3UdlcA+Yz9FKeclNppG0WQ+rNHwBwu2C2uFgidzJgk+XNP0bAExa8HI5Z3nJJqMPvhtSeJc0VgD1iplmR9cda2BlMPJNAJ8K3Z10pkQgEDl1WftRmf+oPXUkkWk7gW8QKMJ/fXFWYsqupVXKZXrMxOzvQEwXjs0IlNh7TFTo6lVeel9a1/0bq1t4AvQNgBREtDzg7VzaWT3zfx17UPkiaKwB7RMRLgefR9881pbXrD4axZzJQBOZzAIz0rhl2nFjvdAApe79wZG7unVu7d1wNQOIcdYDoxqL61fctK5/YLZKvMkp2oPcywTd/EPGvUvnNH8zEdVHPT/zj3u7XQU6jCeYsndCV/1RKfw0zWPJfAdiLsoYGJ7b56GPAVASYcwA+DuJ/ptS+XwgA4UhbteSKajB+3FxVcI1YvsoIxTe3HWKC9HfInWq3pbs78ZmVCyak1BNJHzYr0n6CBZ4RL5ToRe87f0PP62vR+2YbbPdWANgF4EEiWgpg2RNPPPGeeB8fcvLJJw9zHOdUa+04Y0yutZaJ6A1m/utTTz31ope9pKqUHgA+qvjmtkMoSF8i4BwA0wDsL1BmWzCP8hpnh3oFsj1RVvN8XszJfgXgYUIlupHg8c3zC/WHUA1aOBL9E8CCw3ZqL+oFgJLa9quJIHJiaeKDzeh5Yx1631iHeNdGcCK+t18eY+YHjTG/3blz533PPfec2O6vp5122uettVcQ0ZcB5O7u1xBRG4CbDzvssDsbGxtT/lA6KWk1AHzY1IVrh+fmOm9BYAggQ2c1zQ096naul8K17fUgzBEs8UhzRehsXRCoBmNWXdtMy3SfXAXaGUz0fKZx/nFdcjXkhSPR1QAf73buBy/cg53rHxrsb+9k5t87jvPbP//5z64tApw0adKhsVjsKgAXY+C3r1cnEokL//r/2Tv38Kiq6/2/a89MEu4ooBWtlapVmHBRVMicQWNFFBQyAYNWW6vVSkmCVVu1Wqup1dZLq21Iglipl69tLVESgojiLZI5E1CiQDIRRQVFUG5yTTKZmbPX749gfxQBAzn7nLmcz/P0efrIzPsuhmT2OnuvvdbSpe+bFUcqkfSDIw7G4luHtxDoNRXaUiJPha6VuIR8EGpnNFyQN6v5GoX6DinKpDmre0lJFYptHk/2xT+vvPG7e489TSf6+cquvP0YIvqVlDKsaVrQ5/NNKSgoOOJbCuPGjevh8/nuicViawD8AodXu3aWy+V62+fzXXGk/qlMyiYAHfAiFaoEvqykhJP6s3uhcNgnDDyl0oMk/3nSzNUDVXo4pB4iEn8AhBMVWrR6gKQfOEMQU6FgF9fYvRnG7s1myWlE9PzGjRvX+P3+23Nzc/sexnuF3++/uqWlZQ0RlQDoeYQx9CSif/t8vtler9cZX74PSb2IfRtkGIsAqNiCHvjugPB5CnQtRbrpPgDtygwIRwth/CvZkyUH68gvD18MYLpim7LKIu+Xij2s4EcqRKMbm1TIDmLmB+Lx+Dq/3//gmDFjBhzqxZqmTfL7/U3M/DRM6gNDRDf07dv3jVGjRqm5AZWEpPQX87wbh38OkJKfZpfS4iRrWDDN+xkzFPdA5/NWDGi+Wa2HQyqQP2vlMRL8JNTWJu0hYfxFob4lBEobT1Zx9g8oSwAAAMzch5lvk1Ku9fv9f/P5fMfs++c+n+9sTdPeBDCfmQcrCEFzu90Nfr9fyWeXbKR0AgAADF6oRpem3DB7eZJO3/r/MLv/CEDxnX2+f9Ks8BlqPRySGmZi6XqKgO8odnq0avpw0/a3bUOQkqd/jrcjtvlDFdL704OZbySiNX6/vyQnJ+cMTdP+Q0TLAOQq9j6emWt9Pl/S13J1lZRPAEhQlSLp/puNbmMVaVtGzYzTNxLRg4ptMoXkqvyy9/sp9nFIUgIV4bsAjFfpQaANHtBDKj2sgghKitqiGxvBhsra4G/Qm5nvEUK8C0BJTcNB6ElE8zRNS+vdyZRPAKp/MeQdAOuViDOuVKJrMXFX25/B+EyxzfeY4s849QAO+5M3s+kiWDBjQ4LvTIVhNIHy8AgGvCq0o+tXqJBNVASAR3w+35+RwlfiD0XqfxkTMUDzFKlPuaRilYWtiNWwYNpZrQTcrt6JJqwY0KSkaYlDcjK5rPl7JPAslH8XUcMZW7zPqvWwCr5OiayMo13h+X+iQkS/0jStMjc3N8vuWKwm9RMAAJJVJQDcLQMiJXYBqoqznwNQp96J7s6rCKfEZ+bQNSbNWd1LCjkfQH/FVkzATanQr/6aJ9dmAbhKhXZ0Yxgca1MhnQxMicViVTk5Oaq6oyYkaZEAZB7TpKNjYpXp2DyFy1TIwAyobQ4EAATmOXnljT7FPg4JzA2zl3tEJP68qtHU/wv9o6rIG1Tvo57tba2ToWgAWvvnabX9fyAuFkK8rGmaihbyCUlaJACVU6caYFY1onZEoGJVSlwpqboxeyURPazah4AsAtVMeaz5VNVeDonJZqPb3wCMU+3DwJcxMm5V7WMVglnJAwcbMbSvf0+FdLJxLoDXc3JyjrY7ECtIiwQAABjin8q02ZUyuwB9unX/A0AfWGDVzzDkS5NnN5vS5MMheQiUN90LZtXNfvZCMxYWDrN0Sp0qAqWNJ7OiK3LRDavSeft/f852uVyLRo0apWoKZcKQNgnA/GLvMgBrVGgT+MrxpWtS4oflqWsHRSTTDVDTQXF/TuG4fHXi7A9UnwE7JAiB8qbbAPzOGjeunl/kfd4aL/WQS/wCiqrV29epnyicTDDzOW63e+G4ceN62B2LStImAeiAVO0C9M5wtaupzLWBmuIhS5ihehgLAIABrysefSXw6HuH0yPcIQkJlDVOh1U9+BlfSekpssTLAgrKwz0Zarb/ZXsLol+kX/V/J/C3tLS8nMpJQFolABL4JxQ92RJoRsHcuUc88SrRyIjuuhUM00Z5Hho6ExmexQVPhNPi3C0dCZQ1TgdRGSy6b03EP6+ZcfpGK7ysIAZcA0BJktz+WQPYiKuQTgX8LS0tc0eOHJn0XV8PRFolADVF3o8A6GrUeVB08+BJarStp/IWXxuIroLKYUH/y9nxdn5z0l8bnUEdKUZ+WeOtICqHRd83RHiiqmioqt4fltPRPItvVKXfvrYeRPQKgHoAhiqfJGZCVlbW35GCzYLSKgEAAAb+rkpbEG5SpW0H1UXeFUR0p1V+DAwTHvHW5NKVJ1jl6aCWQHnTvUz0EKz78vywpcVIqd/Dd49pvhSAkhsz8R0bENv6STQWi/1U13Wfx+PpS0QXElEpgHUqPJOUn2qadr/dQZhNymU030bBI6FusczeG6FoO02wGDmveMi7KrRtgZkCs8KLwLjIQtfPJfElNYVDV1no6WAiuSVvuo86ZsAsi/tktIOkVl04rMFCT+Xklze9wcD5KrRbGv6D1g/emKvr+gGnm2qadhoRXczMVwAYrSKGJGOGrutldgdhFmm3A1B5i6+NGcquBEqSv1GlbQtE7MmgKwF8YqHrCYJJn1zReImFng4mUVAe7tl3QP/5VjfJYkZxqi3+eWXhUaoWfzZiiKxbBinl4wd7ja7rHwSDwb/pup5DRKcx830APlURT5LwV03TlA6tspK0SwAAgAUf9AfeBKbkPRYeolDfciqv934FklMZiFho21MyVedXNP7CQk+HLhKY9f5JcbAO0ARrnWnO/OLsJ6z1tABSd2Wy/bN3YUT2rKmvr3+jM68PBoMfhkKh3+m6PkgIkcvM/wCwW1V8CYqLiP49ZsyYlPiOT8sEoGNrmeoVyQsY0rJzc6uoLhzWAKJCi23dzDQrUB6es7cHukMCEyhvHAdpLGdgmMXWy/t2715ssadyJs0Kn0FgZYlU5KMlIKK/4/BvRnFdXd1boVDoOo/HcyKAOwF8aX6EncbSwkVm7iOlrDnnnHOSfrx5WiYAAEDMpcq0Ia5IxTa38wu9TwLW9Af4X/hnO1pb6iaXNX/Pem+Hb4WZ8ssbfwuIlwBY/aW4WbC47KlrB1m5O2UJQvJdUFSnFd/+GWJbPooKIZ7qik5tbe0OXdf/5PF4BhHRNGZW0mztIESI6KF4PH48AFWt3g/GyR6PZ25BQUFSX/1O2wRggCfyAoE2qFFnl5GCuwAAsGPLll8y8LIN1mdJkg15ZY35Nng7HIRJf208NlDR9CKD7gPY4i9DahMk8uYVD0m5M+n8Wc3ZAAKq9FtXvw4Az9XV1W0xQ6+2tjYSDAYfD4VCpzPzZQBU1mJIAM8Q0WnBYPD2ZcuWbdJ1/UcAHlXoeSB+uHHjxvss9jSVtLsFsC95ZY13EpGqqx0xGDy4+sahHyvSt41Jc1b3Eu3xOmsmuX0TBv7e1mrcvPjW4S12+Dt0kFfWPIFI/gOAHb0bJCSmVs/IfsEGb+UEyhv/A9BUFdoysgvbqu8AsTEiGAyuVOEBgDRNuxLAnwB810TdV5n5tlAodMDRhT6f7xYi+jOsW9sYQEDX9RqL/EwlbXcAAEB6Mh5XWNjmgYv+oEjbVmquO323iBuXqttBOTQE/Lx7d9e7+WWrcuzwT3cKysM988qayojki7Bn8QdAt6Xs4l+xaiRABar0I2uWADL+msLFHwBY1/V/RiKR0wHcA6CryfpKZr5I1/VxB1v8ASAUCj1CRL9Axy6BFRCAp/1+//ct8jOVtE4AFkw7basgPKvQ4orJZc1nKtS3jXk3Dv8cBl8CYIdNIfyASQQDZY2lk+asTpv53XaTV9Y8IcYcJkIRbNpBZFBpdZH3L3Z4WwKLB6Hos2UjhrY1b4GILPn8GhoaWnVdvxfAD5j5cRzmwkxEnxPRtIEDB44MhUKLO/OeYDD4OBH9GIBV/Y37MvMcJOGOetIFbDb5Ze//gEk2qzu/5Neqi4ZeqEbbfvLLVuUwicUAetoWBOMzJhTPL8peYFsMKU5Befg7MfAjAH5kcyhPVRd6fwYiK6ZVWk7ezKaLSKirsWlb8xb2vPOvZl3Xs2HNxM//QdO0s9BxLDD2W166iZkfYeaZ9fX1RzSnWNO0y9Ex/8Wq2pQJuq4vssjLFNI+AQCAQHnTXADKttwAvqi6aGinstdkZPLMJk0KvALA7qlZr7OUN8+fMazR5jhShhtmL/dsjmcWAnQvALtHXs/bsWXL5bUl56fk5JqSEhYrBjS9A5CaXUNmfPXi3TB2b75e1/U5Sjw6yZgxY4Yw82RmPhvASehYpL8C0ExEr7jd7kW1tbVdPp71+/1XM/OTsGC3m4gWBoPBS1X7mImTAACYXNZ8piSpsmr1vRFbvGeVlJBV51KWk1fWPIEgq0DIsDmUGINmCRb3VhUP3mZzLElNoKI5AJYPAzjF7lgYtPBYd1v+49POitkdiyoCFY0/BtP/qdKPrFuG3aF/bPR4PCebsbgmC36//wZmfgzq17uIlPLoI92xsIO0rgH4mnnFQ94F4RWFFmesGNB8tUJ925lfPOQlKagA1k0PPBgeAt/IZHySV9b0+4LZy/vYHE/SkTez6aJAWdMysKxCgiz+R3XvflkqL/4TZy/vDqnsRhLAjLbmV8DMD6bT4g901AQAuN0CqyyXy5VUHQKdBGAvUoo/qnXgBwKPvqdkAFGiUFPorSHmiQBa7Y4FQG8i3B2LZ63NL2/8bap/9maQV9E8NlDeVEcCL4Nwjt3x7KUyYwAmp2Kjn30R8W53gnCiKv3oxkbEd2z4gpmVTUNNZHRdf3jvhEOlMPPxqj3MxEkA9lJTPGQJgNcVWhyLjIwShfoJQVXx0FcJdBFAO+2OZS9HMeg+ZHjWB8qaZqdih8auUFLCIq+8aWKgrGkZsXwVgN/umL6Gwf/csWXLlZVTvVG7Y1FJoLTxZIB/pcyAGa1NC0FEDybT9rTZBIPBmwEovTrKzEl1rO4kAPtALJUN3uiAiyZVNFrdJ91yqoq8QSnlWABb7Y5lH3qCcINhyOZAefi5/FnhHyLJflnNZPLs5uMCFeE7VvQPryWgJoGe+Dtgnjm/MPsnqVrwty/sEn8jQNmsi/b17yG2bd0XhmGoHIKWDEgASosfhRB2zkQ4bNL2C/BgBMobF6qcZEbgJVWF2bmpeo1pXyaVh08R4JcAJOpT90cEmkNuenretCFf2B2MagrmznUZWwdfLJl+DuASAG67YzoAEqDbUvqe/z7klzVeykTKrq8yS+xYdB/iOzbcrOv6X1X5JAlC07TlAM5QpB+Px+P9li1btkuRvuk4CcB+TJrZeJYQ9DYUfjbE+FFVcfZzqvQTifyy9/sxGdVIoK3lb0IGmN9iornS7X5hwbTTEmnnoksUzJ3rim0aPIaFuJyAKQAPsDumg0NtkPyTVO3wtz8Fc8MZsa3cDMbJqjzaP30Hu/QnNkopT0nn7X8A8Pl8PyZSd8sCQK2u6+cr1DcdJwE4APnl4XkMVjl05pMdW7aclg7bmwBwzZNrs7a3tTxJjCvsjqUTxAG8BdAidmHR/F94m+0O6HApmL28TyyaNZZcuJgZlwA4zu6YOsFmQSJvXuGQpXYHYhWB8nAxwDNV6bM0sH3h72Hs3vRzXdefUOWTDOTm5mbFYrHVAJRNFCWiK4PB4L9V6asgEbcAbceg+B2CXZcC8Ciy+P7Rx/S/CMBCRfoJxVPXDoqA+cq88qZGInGv9VPjDgs3gAsAvoAM/DlQ1vQZCSwGEDSY9Joi70d2B7g/BeXhnlGi0cSsATg/FmcNAm5OmkMmahBMU+YVpd5Uv0PCPF3lI1j7x0EYuzeFBw4c+KQ6l+QgFosVQ+HiD+BDt9tdqVBfCc4OwEEIlDfNBFCszIDxeHVx9jRl+glKoLxxHED/gvVz402BgS8FqB6EFVLKRpJYNeKr7LVWNXkqmL28T9ToNoykzCbCcAbOBsTwBE+qDgH9o2/37kWpfs1vf6Y81nyqYcgPVelzrA1fLfgduH3PxGAw+KIqn2QgJyfnaCHERwCOUmgzRdf1eQr1leDsABwEjxG9N+bK/AnAahrJEJ+lRDfBqS4aujgw6/2zIOMvKGt5qhACvsPgfDDyiQhwASsGhFsC5eFPiHmtJFpHzGuZ+AshxBbEeBvB2NaG7rsW3XjqQYuDxpeuyXRnyl5kRPoRi34A9RPMA5joJBCdBOZBBBoUi/PxBAaI9mnknjSP+vvSDqIbqwu9aVmZbhhS6e9/a/MrkJHdtbqup/XiDwBEdCfULv56Mi7+gJMAHJTKG8/ckl8efoA7BleYDoMGqtBNBqqnD153zZNrte0tLX8mQiGSfyeqB8BDmTC0Y3EGCASWDLgAhguZaEegvOnr17cA+Ppuex8AAmjfO7vs/z/IM+39WPbu5XNyLvQHYo2UfGXNjOzldgdiF0R0HCs6ozFat6Nt9WsM4A4lBknE6NGjTyIidTu5AIQQVnQZVILTB+CQyPl2R5CqPHXtoMj84uxiQTwRwGa747GYHuh4IjkKafc7SHM8oDNrZgxN28UfAJjVJb2xL1eDjVidrutpU1B5MFwu130AMhVazKurq9MV6islzb58Dg9mukuVNoG2qNJOJuYVDl0oYzwMQFKN0XQ4TBhfQeKy6iLv9ZVF3j12h2M3RKzsqmnm986Gq9cxvnPPPTdR+29YwpgxY86E2vHVMSJK6l0WJwE4CIGKVSNB6q6tMeQqVdrJRs1NQzdVF3ovYdAvEqiFsINJEKMm7ooPS5f7/Z2BmVaq0iaXGz2GB9yGYSg5vkwWpJQPQO0a93gwGFRWyGkFTgJwMKR4CCo/HxIvKdNORoh4fpF3tpSuIQBX2x2OQ9dh4EsimlpVnJ334vQRG+yOJ5GoLhyykkDKPpPM754Jd79Bk30+X44qj0TG5/OdDeBChRa7mflehfqW4CQAByCvrHkCCD9U50BbMiI7q9TpJy81M07fWF00NB8SlwFI+fa8KQoD9I84ySFVhd6kuxttCUTMkOqa8xCh5xlTiIgeVuaRwBDRlYr1HwqFQklfu+QkAPtRMHeui8h4UKUHE/+l8hZfWrfl/DaqZ2S/0G5kns5ED4OR0tPgUox3GOyvLvJet7Bw2Ha7g0lkPJmiFGBlR16eY05F5gkjNL/fr7KraaKisiXvxra2tkcU6luGkwDsR3TzkGsBylalT6AN0hVR1v4zlVh046m75hd6b5NEXgDOk2Ri8wWIpnkGNOfMLxoasjuYZKDyeu9XAP1RpUePEZPBoAdyc3PT7cr36Qq1725oaGhVqG8ZTgKwDxNnL+8uiEqUmhD/dsG0s1Lih8cqaoq8H1UXZU9lEhcC/K7d8Tj8D3sYdL8H9IPqQu/jlVOnGnYHlEz07d6jFMzrVem7eh+LrJP9P4hGoz9X5ZFojB8/PhPqrv5FIpFIUvX7PxROArAPrljWLQw+XpU+AauGb/aqnEaV0swvHPJaddHQkU4ikBC0g/G4B3Tq/CLvXc7VviNjbwvk36r06DFsEkRG99+PGjWqt0qfRGHRokVRQNmxYVa3bt2uUaRtOU4CsJeC0ncHgHCrSg8pcZtVPeNTmfmFQ14bsSX7bGL8CMD7dseTTjAQAfNM4RaDqouzp1UWeb+0O6ZkZ8TW7H8CWKFKX2T1QvfTxw5wu92/UuWRYDAzKxssxcx35ubmZqnStxInAdhLVGTcA0BZhkzAm/NnZL+iSj/dKCkhWVWc/dyILd5sBiYB/JrdMaU2tJNBpYaIn1JdPPTGedOGODc0TKKkhKQEblHp0W3whRDd+/56zJgxyTAaussQkcrufMfH4/GUGOSW7D3YTWFKxarvG1K8D0KGIgspWJw9r3iIs22tkMllzWdKwTeB+Udw5lyYBK0F5N9aW+UTi28d3mJ3NKlMoKLpZTAuUqXftmYJdr/97OOhUCglFq9D4ff7L2Zmld1Fv4xEIicnezGgswMAwGDxsMLFHwQ86yz+6plXPOTd6kLv1VK6v8eE33QsXg6HDxkAv0ZEU3ds2fyD6qKhf3MWf/VI8G0AlB0RdjtlDNx9B143evTowao8EoVgMLgYgLJuiwC+k5WVlfSJVNrvAOSXrcphEjoUfRYMRFwsTp9XPETZmZTDgSkpYbHimOaLwHw9gIkAPHbHlOB8CGCOjPHTNTcN3WR3MOlIoKzpKRB+qko/+vkK7Fwyq0bX9TxVHolCTk7ORUKIlxVafOrxeE6pra2NK/RQStonAHkVTUFiaAotHqouyk7acZGpwiUVq45ys5hIhIK926xOMtDBegZVCaCyqnCIDqKUmTmcjFw6a8XxbsO1BkTdVHnseP0RRL9cfUEoFHpDlUeioGnaQgATFFpcoev6fxTqKyWtE4C8ssZ8IpqnzIDxVUzIU5yOaIlFQem7A+JuzxQGBZhxHgEpUdHbeegDMC8UQlTOmz54mbPoJxb5ZU0PMEHZQ0Ns6yfY+drDbwfr6kYDSOl/+5ycnNOFEKugLuFfruv62Yq0lZO2CUBuyZvuvgMGrAKg7DyMgVvmF2U/qkrfoesUPBLqFs3qqwkpxzLRWIBH2h2T+VAbIHUmek0w11QVDXWuTiYwBbOX94nFMj8GUT9VHruCj6P9s4Z7I5HIIw0NDSk9gVPTtFIAM1TpSym1+vr6pOx+mbYJQH5FUxEzyhRarGs3Mk9fdOOp7Qo9HExm0szVA0nERwqGJgX8xDgHSXdcQDsB+Q4AnckVPKpbt+DehjMOSUKgrOkmEJQ9PBh7tmL7wnvARnwPgGcBlOm6HlblZyfnnHNOP4/H8yGAoxVZzNV1/XJF2kpJywRg0pzVvUQkvgbAsao8mOiq+YXef6nSd7CG8aVremeK6NlMPEwwD2USwxjsTaBjg09BaITkRiasZJIragqHf2B3UA5do2BuOCO6Wa4mokGqPPY0/AdtH/y3DIC541jormAwqLJ63hb8fv8vmfmviuSjQogT6urqtijSV0ZaJgCB8qZ7AfxOnQM1VBcOOds5W01NCubOdcU3Dz2ZhTwZUp7EQgwi5pMAnATgOID6AWxGEZcEaBuDtxHhU2JeB4h1EnItWKzL8LStrpx2Vkpv36YzeeWNlxPoOVX6sn0Pvqq5Cxz7n8GkEsAzzHx7Koy7/ZqRI0d6srKyPkTH76gKbtZ1XVWCoYy0SwAmzVw9UIj4hwB6qPIgQRdUTfemfIWtw8GZOHt5dxHP7EcQ/ZioPwAINnqDhAuSXSyoNxhRInTcr2fslkRxsNHKJLexK2vbght+sM1JItMYZgqUh5eCcI4qi9bwIrSsrD7QH+0gopLjjjuurLKyMiUGPPl8vhlEVKpIvknX9aGKtJWRdglAfkXT35lxvSp9Bi2cX+S9VJW+g4ND+jCprPlcQfItVfpsxPDVgt9Bth70otIy1bXC8wAAIABJREFUZr4qFAp9rCoGqxg5cmT3rKysdQAGKLI4W9f15Yq0lZBWnQDzyxsHM+MadQ5kCEG/Uafv4OCQTtQUD1kCYIEqfXJ50GPYpEO9ZBQRLdc0baqqGKyioaGhlZnLVekz87WqtFWRVgkAg+6D2h7xT1dNH9KkUN/BwSHNYBf9pqM9sxqyBuXA1euQ9dB9AfzH5/PNzs3NTeoZG8w8E4CS0dVENKWgoMClQlsVaZMATCoPnwIgoNCiNS5idyvUd3BwSEPm/8LbzOB/KDMgQrfTL+jEy+iGeDz+4siRI/soi0Ux9fX1XwF4UpH8sRs2bFDZVdZ00iYBcAGXQeXfl/DIi9NHbFCm7+DgkLYIYdwFZiVPrgCQeeJIEH371yMzX5SVlfVmbm5uf1WxqMYwjEcAKNlREUJMUaGrirRJACTgV6dOW9rjmQ+r03dwcEhnqqYP38ygR1Tpi8yecPU6prMvPyMejy/RNG2gqnhUsnTp0nUA3lShzcxTkETF9WmTAAB8siplAr+16MZTd6nSd3BwcHARXlSq36vzxfHMPBjA68m6E0BEzyiSPj4nJydHkbbppE0CQKBMVdoMXJZX3lSoSt/BwSG9yS97v58E/qnURBx2x+vTY7HYS+PGjVPWU0UV3bt3nwdFxYBCiCWapgX9fv/tfr8/oWeLJM1WRVfJL29aycAwhRZxgC+pLhq6WKGHg4NDmjG+dE1mhrv9dcVjy7HzzVJEvziicQALBg4cmJ9sDYM0TXsawNUWWH0M4CUp5cLMzMy3amtrE2YuR9rsADBjjWILNyDmTiwLexX7ODg4pAvMlOGKzFG9+ANAfNeXR/rWiRs2bCgxMRRLkFKqOgbYn5MBzBBCvByLxbZqmjZf07Rp55577nct8j8oabMDkFfeVEiAsiYQ+7BOxnh0zU1DN1ng5eDgkMIEyhtLALpHtY9s2YZt8+/skgSAS3VdX2RSSFYgNE1bB8DOhXgVgIXM/K9QKGR5D5m02QEQwnieASu2Xk4iD6qveXJtokyLc3BwSELyy8NXAWRJb5HI2qVdlRAA/i/JbgZIAC/YHMMwAHcQUaOmaYtzcnIsnSeQNglA1fThmwl4wgovAo3e0dr6FJjTZofFwcHBPCbPbNIYPAcW7NJyrA1tH9aaIdUPwCwzhKyCiF6xO4Z9uFAI8Y6madOsMkybBAAAPO7IXQA+t8aNLw/MCt9rjZeDg0OqEChtPFkKVANQdnNpX1pWVEFGTLvFPEnTtMvNElNNW1vbElizM9xZMgE85vf7f2WFWVolAJXTztopSBSAEbXEkHFXoDxsyT+kg4ND8jNp5uqBcNFiAJbcr2//fAXaPlpituzfRo0a1dtsURU0NDS0AgjaHcf+MPNDOTk5F6n2SasEAADmFQ5ZSoLusM6RH84vb/q5dX4ODg7JyMTZH/QXFH8VwPet8DN2b8aepU8BzGZLH+vxeG4zW1QhiXQM8DVCCPF4bm6u0lqytEsAAKCq0PsIgEqL7IhBs/LLmq6wyM/BwSHJGF+6prcrHn8ZhCGWGBpR7Kp7DDLapkSemW8eNWrUCUrETUYIkai9W06Mx+PXqTRIywQAADygn4HRbI0bu5jwTH5Z46XW+Dk4OCQLE2cv757liiwA2LKucbve/ifiO5TOLuvu8Xi6dK/QKurq6hoBbLQ7jgPBzNeq1E/bBKCyyLtHCmMygN0WWXqYxNxJ5U3nW+Tn4OCQ4BTMDWe44lnPM+hcqzyjG5tWtK9davq+//4w8zVjxozp/IAB+2AAidq/4Ay/33+UKvG0TQAAoKZw+AcApqHjB8ACuJsA5ueVhUdZ4+fg4JCo5Ja86Y5t4bkAxlvnSvU9hg8dRUQ/hvrq926GYSTFjBQies7uGA6CYOYRqsSde+oAAmWNfwRZWRiI7WTg/Kobs1da6NlpAo++1xcZ7nOI8H0J6gPQZsFY06d79+VPXTsoka7MODgAACbOXDnIReJs2b77ZNm2qy+3795ptG5vePkvN7yKjoYvCUVJCYsV/cP/B8KVFtqu94DOqSzyfgkAOTk5FwkhagBkKPTc5PF4TqitrY0r9DAD0jTtbQBn2R3I/hDRdcFg8B9KtFWIJhslJSxWDGh6AaCAhbZbQfLi6sJhDRZ6HpJJ5U3nC+BWAGMBHGg02B5irgTcD1QVD/7Q4vAcHP6HG2Yv92yKZ/0cRuyX5PL84ECvMVq/4ujnK5vbP17yh9oXK+fCst2+g5Nb8qa7b/8BT1u8+LdIQWNqpnvf2/c/+v3+Amb+NwCXKmNmvjQUCi1UpW8WPp/vbCLSceDvPjv5g67rSjpCOgnAXgrKwz1jxEEwhlvnSjsJuLSqyGvrPdRAeXgEgIcAvrCTb4kBVOFxt91TOe2snSpjc3A4EHllzRPA8VIS4uTOvJ7b96Dtgzc+b19bd8NbixfZdt47vnRNZqar/T8A8iy0lQQuqCoaOu9Af+j3+29g5tkK/f+j63pS3ILy+XzTiajC7jj241ld13+iQthJAPZh0szVA4WIvwPAyn7WrSwxef6MbMvvok4uXXmCFK7fgeg6gI/kCWAbwH8YsSV7ZkkJJdw2q0PqkVfe+F0icT+Yj+gLUbZ8hdYP32hs/aj26lBt7Qqz4zsUE2cv7+6KZ1UBGGelL4Hvqioaev+hXqNp2hMAVF05a+vRo8eAxYsXtyjSNxW/31/IzH8D4LY7lr3U6bqupEjUSQD2I79sVQ6TeBMWteEEADCiYFxZPSPbksEUBeXhnjHIXwPiNoC7mSC5nJmK5xd7l5mg5eDwDQoeCXWLZfa6nSXfQUJ0+cw6/tWnaFv92sux9Q03LFmyZL0ZMR6KgtnL+0SNrIVWjPXdj8rqQu/lIDrk0ce4ceN6tLS0NAE4SUUQyXIM8DWapo1Gx1wDZQV4h8FHuq6fqkLYSQAOQKC86UcA/glrP584iK+tLhz6rCqD8aVrMjNc7YUE/BYdgztMhAwwzxEeUTJv2pAvzNV2SFuYKVARvgIsHwIJ0xvLRDc0Gq0fvv7k7rXv/bqhoUHJcVZB6bsDYi7PywCdqUL/YDBBP6pbj7GdLdzVNG0SgPmKwinTdX2GIm1VCL/fP4GZr0bHTY2eNsWxR9f1XiqEnQTgIHT08Oc/W2zLxHxTVfHQUnNVmfJnNV/G4D+B0akz0y7QSoyZbk/kT059gENXyKtoHkssHwJwhkofZonoZw3tratfvX/rxysfDIfDps0KKSgPfycGLAbY0jGvYDR7smhM5fXerw7nbZqm1QHwK4joA13XT1egawlerzfjqKOOOpeZJwC4BMABi05V0aNHj54qjlCcBOAQBMqa/gLCLRbbMoDfVBdlP2SG2N7K/odg/fWWrQDf5xkgZlVO9VozfMkhJZg0K3wGSfkQgcZaamxE0frBm9sjHy25ackr8/8PXbwxEChtPBku8SrAg0yKsLN8brhJWzDN+9nhvlHTtAsBqGiNy0TULxgMblegbTk5OTmnuFyuS5j5EgDnQvGRMRGdHAwGPzFd12zBVKLjemD4WQA/stqbQY/t3LJ5Rm3J+Ud0f3ZiWdgrCA8S+BKzYzs8aC0T/nCsq+3Zx6edFbM3FodEJu+x8BAY8m4AUwlk23eTjOxC2+rX1rV++NbP9Ldef/NINCbPbNL2jvS1ZKrfPuwgIcZUTR/SdITvJ03TVkPBE66Ucmx9ff3rZuvaTW5ubk/DMMYy84S9OwTHm+3BzOeEQqF3zNZ1EoBv4YbZyz2b41kvwuLK3Q7oVUSjU6tvPmNHZ98xaebqgYLi94DwMyROFSsAfArwo32795ztNBNy2Je8mauGkqDbwHQlKHG6kxq7N6HtgzeW7/5oyU+X1dV1em5IfkW4gBlPm1Rg23kYUYAmVBd7u7TIapp2B4A/mhTVf2Hm20OhkCk7m4lKTk7O8UKIz83WVZU8OQlAJxhfuqZ3pqu9ForPIg8EAWEWrkurpw9ed6jXTZqzupdoj98Gxi0AulsT3RHxOYge8kR2PlF5i0/NKDKHpGByedPZhpT3kBATkMDfRbGtH6M1/MrL8S8af1ZXV3fwAldmClQ03QPQ3bD870MGJF9uxk2i0aNHD3a5XKYPSiOiJ4PB4M/M1k0k9t6m2GO2rhAiv66urtps3YT9pUs0CkrfHRATGbWWjev8XzYLEnnzCocs3f8Pbpi93LPFyLqBGXcDOMaG2I6UTURUAYo/VjV9+Ga7g3GwhpISFiv7N01g8K9AItfueDoNM9o/Xxlv/6h2ltz60Z21tbX/8yXfccMmModAV9kQnQTouuoi71NmCfr9/vXMbPatizd0Xb/AZM2EQ9O0GEzefSWinwaDwWfM1ATSfBjQ4VB545lbyGWcz8BqG+yPkSxr88vD//PlklfRPHZLPOs9ZpQhuRZ/ADiWmX/Phmt9oCL8zKSKxmF2B+SgjmueXJuVV9509YqjV65mogVJtfgDABEyvzvC3eu8GTOyzrxy0/mTfnxrbm6uGwAKnggfnemKvmLT4s8MzDBz8d/LNx42TOBEBZqJiIrbT841wEQgr7zxuwRaAkUNM74FBuNuwXhTCnoY4BwbYlDJ65KodNfmzS8dafGjQ2IxcebKQW5yTWPIQpBQ8iVmBxxrQ2RN7ZZ4y64Hep1zeaEF12sPHAdwy/yi7EfN1tU07W4AvzdZNqLrurV1ETagadpnAL5rsuwtuq6b/u/sJABHwMTZ4RNdcV4C4Ht2x5KifEGMZwyiJ2qKvB/ZHYzD4TG+dE1mljs6SRqx64jcFyZSYV8q0ZkWv0eK3++/mpmfNlvX4/F4kmAyYJfQNO0TAKZe/VRVQJlIVeJJw4Jp3s8mVay8iNhVS8B37I4nBTmOCbcL8G355U21kuiJo7p1n+fcHkhs8mauGgqi68Et1zC7e5Nwvl5UwaD7q4uylSz+e1FSl9PW1tYdwC4V2gmEir4nSiYUOr+hR0hN4fAPJlWszBXsfp3Bpt/7dAAAEAPnE/P5O1pbWgPlTQsZ+L+MAfSK01woMejYDZP5HG+/hoTo6JtOzteKSojxYHWx9y7FNqZXsgNAt27d0iEBUNHvRMkvlfOb2gVqCod/EJj1vh/SeB3A9+2OJ8XpDqCAgILYFt4eqAi/yMyVO7dsWeTUC1jLpbNWHO+WrsukEb1axPkMgIjcWXaHlSZQSVWx1+yz+W8gpRSkoBdTNBp1poYmEE4C0EWqpw9eN3F2+HxXnF8HcIrd8aQJR4H5JwT8pO+AAdsC5U1vMPBihjsy35k/oIaOzpLGRI5HryDpGgYQCZd1AzMdwET066pC7yNWmAkhejN3qRPyAWHm3aaLJh6mb9cTkZIuqk4CYAILpnk/u3TWilyXdL9GQNIOvEhS+uHrnYFYVjRQ3rgEwIuS5Ms1hcM/sDu4ZGXSnNW9KBLPJSMeADgPxP0AAedJ3xYkERdVFWY/ZpUhM5s8LRQAEK+vr0+H5l+mJwDMrGSX00kATOLF6SM25M9aeR6zazEYw+2OJy0hZKBjgMxYwS4Eyps2AVgCotcMCX1BsTdsd4iJysTZy7sLo7uPZPQ8bm8bT23RESDhgsv5irAXMpjw8+rC7CctNlYx7S4dnv5BRBlm7544OwBJQNX04ZsLngj/MNbOCwD47I7HAccCKABzgYuAQFnTZyB6DUQLdmze9GK61w5Meaz5VGkYUxl0MUflaBLSDXKDslLmun5Sw0CEJP94vgntfY+AwQo0Oz3TJJlhZtNbsRORkqJn536uyVRe7/3K075rLID5dsfisB+EEwH+GVhW9R0wYE1eeePldodkB5NLV54QKG/8j2HI1Qy6D4CfhHNnL8HYIUhebEZv/yOAAPgV6KZDTw8C0FuBrpLdEycBUEDlLb42z4DmKWA8bncsXYLRjNRNZE4i0HOBivAz40vXpE01W6C8cZx0uRoBmooU/P2XbTsQWbcMzNL8CjaLINAGlvLcqsJhb9nh7/f7hwEYoEA65WtycnNze0DBzjoRKbk6mXJfAIlC5dSpRnVx9jSASuyO5Qj4goAbdmzdMry6KDsgJPwMVtEb3H6Yf5Lpbn/+htnLlTTaSCQCFeHxYFoAoK/dsZgNx9vR2rgAXy24593doX/8kAUPli3bku9nltEcd8M3f8awRhujKFCkm/IJQDweP1qFrmEYShIApxWwBQTKw9cA/Hckfs1FCzHKjG7u+2uuO/0bW0555U0TifCoXX3PVcLAA/OLsu+wOw5VTJy5cpBLuFZAzfakbTBLRD99B3tWVH3GbTt+EwwGnwPw36f/vL+95+Po7qdE96NPtTHMzrLMcHsuXTDttK02xiA0TfsYamadjNN1/VUFurYyatSoY10u13ghxCUALmTmPgpsztZ1fbnZok4CYBEdT1/4N6Dkh6OrxED0hIzK39fcNHTToV5YMDecEduKaWC+A8BxFsVnBVISn1FTOHSV3YGoIK+8aREBF9sdh1kwS0TXv4vWpoU74js23tu7d++KRYsWtR/kxTTpL0uvZEKpK6uXkic0E/i3p33XdZW3+Gy9Jqdp2mQAKuoODI/H07+2tjYVCgFJ07SRACYAuBTASCjeTTcMY9DSpUvXma3rJAAWkvdYeAhJrkmkJ2gCVRkUv+Nw78wXPBLqFsvsUwjgdoBVnBdaDgHPVxVlq9r+tI3ArPA5kLzM7jhMgRntG1aipfHFXfGvPnukvb39rw0NDZ1q/nTD7OWeL3buuZUye/5OuLMSpaEBg3F3dZH3fhDZXbdAPp9vORGdqUD7HV3Xz1GgawmapvVi5nEAJhDRBFg8A0ZK2V1FDwUnAbCY/LL3+zHJFwA+z95IqF5IvnXejGy9KyoF5eGeMcIMMN8CoL9JwdkDI+rJouMqr/d+ZXcoZhIobyoHUGh3HF2CGe0bm9Da9OKu+LZ1f4lEIn/r7MK/P+NL1/QWrZ8/5Olx1PUQbpfZoR4GLZD4qU2V/t/A7/f/hJmfUaHNzA+GQqHfqNBWxciRIz3dunW7gpl/DCAXQIZNoezSdV3JzrGTANhAbsmb7j79B/yVCEU22H9IRHdVTR/yvJlPHOMeXtmje3dxPUC/gvmzsC2DQD+uKvL+0+44TIOZAhXhzwCcYHcoRwKzROyLMNqaXtoV3frJnyORSOmRLvz7M2nm6oHc8sVjrl79LwUUNL4/BATaYEgZqJkx1PRz3SPB7/cfxczvo6N3hukw80WhUGixCm0V+Hy+cURUAdi/W8vMa0KhkIrGTE4CYCeB8sZfAvRnWFMcuJkI9w5wRR5/fNpZSrpKAR01AtGtuIoYtwN8miofhfy7uij7SruDMIv80qbh7MIKu+M4bGQckU9CaH3/tY3G7k2PxuPxx5ctW6akEjpv5qqhHNn+tOje7wwV+vsjI7s+yszqM6ayyPulFX6dgDRNex7AZCXiRDvdbvd3amtrk2Kct6ZpdwK4DwmyPjLzW6FQKFeFdkL8BdOZ/IpV50kWz5G6M6VWEB6Rme6HDlTZr4qSEhYr+zdPBPEvGTjfKt8uw/jKc0zzMZVTpxp2h2IGeWWNdxKRyrnxpiIju9G25i1EP9FXGq3bH3S73ZW1tbWWdGyc9Nd3LkQ8Okd066NsByuy5i3seXfubmLpr6urS4iCU03TbgagcsjQE7qu/1yhvmn4fL7biOhBu+PYj6d1Xb9GhbCTACQA+bNWHsPS9S8AF5goKwG8IFjcOq94yKcm6h42kypWnkbsLiTw9egY65vQCAl/V2sjEoVAeZOOJGhLHd++Hm1r3uLop++8BCP6cF1dnS1NcMBMgUdCP5WgMpHVu4dpskYMe975FyKfhL7+T5+5XK7cJUuWrDXL40jw+/0FzPwcFFaxM/N5oVBoiSp9s/D5fOcS0ZtIsP44RPT7YDBYokRbhajD4ZNb8qa7b/8BD4JwM7r478KghZJxe6INv5k4+4P+wohdR4zrkcijk5n/VF089E67w+gqewtONwFsZ6HbwZFxtK9/D5FP9O3RL96fTUR/DwaDn9gdFgCMuShwTtZ3RyzrNmQ8RGbX8gBj9ybsqpuN+I4N+//RRnTcjbfl93Tvlb9/AVDZCXOdruvfxz69GRIUoWnaSgDZdgeyP8x8bSgUekqFtpMAJBiTKsKTBPPTOLJubcslcFtNUfabZsdlNoGKVSMhxQ0g/BiJtitAWFldmD3C7jC6Sl5F+EpiTriCRmPXJrR9EuLIJ/VBtO+auX379vnhcFjJsJOuoGlakDK6az2GXIys034Ich1+s8johlXYFfoHOHbQG1zbpJQT6uvr3+5SsIeJpmnFAP4KQHVyeKeu639S7NFlfD7fJUT0ot1xHAiVOyhOApCATHms+VTDkHMAjOncO2gtMd9ZVeT9TwLcJT4sJs7+oL8rHr0KED8BeKTd8eyFhWGcOO/G4Z/bHUhXyCtvfJZAV9kdBwBwtBWRzxrQvrYesS0fz5dS/rq+vj6hh8NomnY5gOcAwNWjH7oPy0PmSWeD6Nt3iDkWQcvKKrSteQv49tGwbQBu0XX9sS4H/S1omtYLwGMArCh03RGJRE4y69aGSjRNexrA1XbHcQBkPB4/SlUBrJMAJCrMFJj1fh7YKALoPAD7P35IgJYR8Wx3f/p35VRvwj1BHS755Y2DJcRVBL4KalqRdhoG/WJ+kXe2nTF0hYK5c12xLUM2AehnWxAyjujGJkTWLkX7hkZA/reW7yld16+1La7OIzRNawQw5Ov/4OozEN1PH4uME4ZDZPb8xhuMlm1oX/c22j54AzJy2N/Zi10uV/GSJUvWdC3sA+P3+/OZ+a8ATlShfwD+oOv63RZ5dQWhadoXAI6xO5ADUK/rurIaHicBSALGl67pneGKZAsSxwOAIWlTZhY3pVrDmv/CTPkVzRoDl4E5v2OMr7UQo6aqODvPal+zmDyzSZMCQat92Ygjtul9tK9/D+3r3wNHWw/0so26rp+AxD8XhqZpUwH85xt/QAR3n4Fw9RwACBdgRBHftQnG7s1dtWxn5jlut/uBJUuWrO+qGABomnY+gLvR0czGKvbEYrGT3n777W0Weh4RY8aMOVNK2WB3HAfh57quP6FK3EkAHBKeiWVhr4tkwd4RtoMtsm3p271H/6euHZQUd5f3J78ifD8zW1LIyEYMsU2rEfl0OWIbVkJGv71jqZRyWH19vZ0T7zqL0DRtOQBLegTsQ5yZXxRCPNPW1vZKQ0PDATOpg6Fp2kAAU9GxrW117CCi3wWDwfus9j0SNE27A8Af7Y5jf5h5TXt7u7ehoUFZ35ZEn07n4IC9txnCAEqmVKz6vgHXWIAngnEh1FUw99jRuudcAEnTvWxfGHyJSn3Zsg3RL5oR/fJ9RL8Ig2OHlye5XK5xAJIhAZBSymIhRBDWPjC5iSjAzIGsrKw2TdOWAqhn5vddLtdaZt4CIIKO7/BeAAYA+AGAbGY+D/scW1gNM6/p3bv3w3b5HwHj7A7gAMSJ6DqViz/g7AA4JDEdcwhoLFjeCeBss/UZVDq/yPtLs3VVM7l05QnS5foMCn6/W1bMQ/TzlYjv6nITu8W6rl9kRkxWoGnaEwCuszuOZCCZ2v7m5ub2jMVi22Bfn/8Dwcw8LRQK/V21UUI1PHBwOBwqi7x7qguHVIO4VIU+gS9Voasa6XZPgILFP75jA1qbXzFj8QeAMTk5Od3MELICj8fzGwBf2B1HEjA3WRZ/AIjH4+cjsRb/Pcx8pRWLP+AkAA4pgCdDvASQita9388ve1/JEA6lME9QIRvdaOqOfTcA55opqJLa2tqtzHwNkqBw0UY+lVJOtzuIw4GZE2UXSgKYS0TDQ6HQc1aZOgmAQ9Kz9zaEkkYqkgylZ+lmM750TSaAH6rQjm4w98ieiKaaKqiYUCi0mJlV9sxPZmIArqivr0+am0m5ubluAFNsDMEAECSiO4hokK7rl1vdCdMpAnRIDZhfAiHHbFkCLgHwqNm6qsh0Rc4DqJfZuhxtRWyrud9NRHTZyJEjZxxuhbud7Ny5886+ffuejSTavbACIrojGAwutTuOwyEWi10IdUPYDsZWAK8Q0ULDMF6xO2FydgAcUgLpooVKhBljJs1ZbfqCqg6hZPu//YswwNJs2d7dunULmC2qknA4HPV4PFMAJMTMggTh2WAwmHQ7I0RkRec/ZuZ3907kzBk4cOB3dF3/cTAY/Lfdiz/g7AA4pAg1vxiyIr+ieQODjzdVmJBBbbGxAKpM1VWGmvP/+OYP1wMwfUwuM/8EHQNpkoba2tqtY8aMmSilrANwtN3x2MzLkUjkZ0iy2ohRo0b1ZmZVjb52A3gVwEsAFoVCoY2KfLqMswPgkBoQMYgXqZEWSVEHsLdg8VQF0jK66cNvdsMzhwvHjBlznCJtZdTV1TVLKccC2G53LDbyjsfjKVB9V10Fbrd7KjoKUU1HCJGr6/oUXdfn6LqesIs/4CQADimElPySGmWeAOaE75mhrmCRlsV2bHxGjTZczGzFYBrTqa+vf4+ZL0HHE1+68Y7H45lQW1u7x+5AjgRm/rEi6XV1dXXvKdI2HScBcEgZMki8CqBdgfRxk8vft7yd6uFCirb/wfxSfX19IzMrGVLDzD9DkjYlC4VC9ei4ddHlIQBJxGKPx/PD2trarXYHciT4/f4fEJGSIk5mfgFJdBziJAAOKUNlkXcPwHUqtCWkmsXVJArKwz0B6uT46MPj6wJLInpBhT6AIX6/PymbLgGAruvLXS7XaAAf2B2LBbzQu3fvScn65L+XX0NRwklEz6vQVYWTADikFAxScgzApLa3fleJslQ1F+GLml8MWbH3/6tKAMDMt6nStoIlS5as9Xg8fiJ6xe5YFBFn5rt0XZ+6aNEiFbtslpCbm/udvYWnKtig6/oyRdpKcBIAh5RCsEvJdUACnZM/a2UizgsHAAhBSnYoiLAQRAwAuq43APhYhQ8Af05OjrK551ZQW1u7NRgMTgBwDzqavKQKG5j5glAodD84AEojAAAVi0lEQVQ6OtYlLbFY7JcAshTJVyKJtv+BJD13c3A4FIHypg+hohqeEQVhKwFbmbEVhE0AtgG0lYi3suQtYGyGi3dLckkPGzsBIBalFiODo67MjHjNdad/o2DshtnLPRuMjJ4A4CFPHxfHhGTKZOLuAm4PS6M/k+jPkP0FxLEM7g+gH0D90fH/jwXQ2/S/LwBmnjy/eOh/r0D6/f67mPkPKrwAzNd1Pan6AhwMn893LoAniEjFrQzLIKKFRHRtXV3dFrtj6SqjRo3q7Xa7PwXQV4V+Eo24/i9OAuCQcgQqmh4F4ya74/gWdqPjGlLi9uJgRGU3d/99k5Zzzz33u4ZhrAXgUuAoDcPIXrp06fsKtC0nJyenmxDi9wBuRiL/Ox+Y9QBu0nV9nt2BmIWmab8GoGpM8Tu6rp+jSFsZzhGAQ+rBavoBmEwvJPqiQLxk/x2LJUuWrEdHkxMVCJfLldS1APtSX1/fpuv6bQBGECnqVGk+USJ6qEePHoNTafHPzc3NAtQ9FDDzk6q0VeIkAA4pR7uR9RbS8262ufCBFy0i+odC15/4/f7hCvUtR9f1cDAYvJSZLwAQtDueg9AGYKbL5TolGAzevnjx4ha7AzKTWCx2MwBzu4T+f9oyMjL+rUhbKU4C4JByLLrx1HYAb9gdR7JDcB3wRkWvXr1qAKg6E3al6sS9UCj0hq7rYwDkoONGRSIUCm4H8HA8Hh+k6/qNe3d4Uorc3NzvALhDlT4zP19bW7tDlb5KnATAISUhIFm2XBOVT6qKB394oD9YtGhROxFVKPT+oc/nU9Wn3XZ0XV+q6/plAE4kopuY+V2LQzAAvEZEP41EIifoun7bsmXLNlkcg2XEYrH70HHkpoqZCrWV4hQBOqQkk2auHihE/HM4P+NHCP2tush70DPTUaNGHet2u9dB0ZUqZl6zc+fO7HA4HFWhn2homuYloouZ+SIAY2D+5/oZgDeI6I1oNPrS22+/vc1k/YTE5/ONIKLlUFO0CmZ+KxQK5arQtgLny9EhZQlUNK0AI6XOk62CmMdVFQ89ZLGfz+ebQ0Q/UxUDM/8qFAql5HHAoRg/fnzmjh07hgshzgQwEsBpAE5Exxn2txWOtgP4CMBqAB8S0WrDMEL19fUfKQ06QdE07Q0A5yu0yNN1vUahvlKcBMAhZcmvCN/PzHfaHUcS0tJuZPbbW0txUHw+XzYRrYK675EdHo/n1GTtOW82BQUFro0bNx5LRFlSyt5E5CYiFkLsYuY9Uso9uq47xa978fl8eURUrUqfmdeEQqHTkcTNkRL7GpKDQxeQLBcSyEkADht+9dsWfwAIhUJNmqa9AuBiRYH0jcfjdwD4lSL9pKKystIAkNDjZROF3NxcdywWe0CxzaNI4sUfcIoAHVKYjAHvLwOQFmedZkKHN0/hd1DY/pSZp+Xm5vZUpe+QmkSj0UsAnK7QYn2fPn1UXoe1BCcBcEhZKqdONcBI1eEsqmAyjE43UtJ1fTmRmgFMe+kRj8fHK9R3SEGI6DLFFvcn81Ckr3ESAIfUhvCi3SEkGSvm3Tj888N8zz1QuwuQo0rbIWVROVhq3Y4dO5Ky89/+OAmAQ0rT2mrUwOkK2GmI6NnDfU8wGGxg5vkq4tnLSQq1HVIPAeC7CvXvS5XrqU4C4JDSLL51eAsBT9gdR5Kww52Bp47kjUIIleeh3RRqO6QYXq/XDcCjSD4ipfyXIm3LcRIAh5THnUn3MfCl3XEkPlxSeb33qyN6J/N0s6P5GiJKyjarDvaw9+k8okg+y+VyKet9YTVOAuCQ8lRe7/1KCLoKjJTYtlMDV1cXZpceyTtzcnIuAKCsUE9KuVqVtkNqwszNCrXv1jRNZWthy3ASAIe0oGq69w0IcTmrezJIYvilvt17/ghER1LIJ4QQD5oe0j64XK7XVOo7pB5E9LpC+WOYOSXGVjsJgEPaUF04pJpAOQA12h1LIsBABIzfjdiSPfGpawcdUWLk8/muREe7WlV8XFdXV69Q3yEFEUI8C4U3U4joFk3TBqrStwonAXBIK6qLvCs8A8JngPlqdMxmT+pOXkfIJgIelW46rbo4+76SEjqizyA3NzeLiO4zO7j9eBjp+W/k0AXq6upWMbPKiaDdAdyrUN8SnFkADmnN+NI1vbM80bOkwd8H0UmAPIlAgwAMAnCcvdF1iVYC1jJhLRjrAFpHkGsNkuGawuEfmGGgadqtAB4yQ+sgfBCJRIY2NDTEFHo4pCijR48e7HK5VkFdy3uDmUeEQqEmRfrKcRIAB4eDcM2Ta7N279l9knThWGYxEOBjiMQxzDyQQQMI+A7ARwE4Ch3zxlXP1ti99387AdrMxF+AabOA3CxJbHRBbpbgL4l4fdX04ZtVBuL3+49i5o8AHK3KQwiRX1dXp2yYi0Pqo2naEwCuU6VPRAuDweClqvRV4yQADg4mUfBIqFu8W49ehnT3FmT0IXL1kUwCAAjoSWAPAEiWgkj0IXA7QK1fv18avAsuYQCAC9gTk7wbHuyWhrF7YeGw7fb8rQ6M3+//CzPfotBiqa7rPig8x3VIffae038IoIcqDynl2Pr6epVFh8pwEgAHB4fDYvTo0Se5XK7VADJVeQgh/HV1dboqfYf0we/338fMv1VosULX9ZFIwloVpwjQwcHhsBBC/BEKF38iet5Z/B3MgpkfBLBJocUIv99/hUJ9ZTgJgIODQ6fx+/0jiUjll10MgMqnNYc0Q9f13QCU3lZh5vu8Xm+GSg8VOAmAg4NDp9m7lary6HB2MBj8UKG+QxoSiURmM/MahRaD+vTpc6VCfSU4CYCDg0OnGDVq1LEA8hRa7GbmPyjUd0hT9l4lvUOlhxDi5yr1VeAkAA4ODp3C4/GMg8LvDCJ6KBQKKb2+6JC+hEKheQCUdZVk5lF+v/8oVfoqcBIABweHTiGl9CqU397W1vaIQn0HBwZwj0J9l5TydIX6puMkAA4ODp1CCHGMQvmjunXrlnRbqA7Jw8iRIz1E9CvFNip/R0zHSQAcHBw6BTMrvefMzI/4/f4ClR4OaQtlZWU9zswXKTU5somatuEkAA4ODp2CmdcrthDM/MyYMWPOU+zjkGb4/f4/ALhGtQ8zf6baw0ycBMDBwaGzLLfAI0tKWZOTk3OOBV4OaYCmabcq7gT4NS0ZGRmrLfAxDacVsIODQ6cYOXJk96ysrC/RMfhINduZ+YehUGhFV4XOPffcUw3DuIzo/7V378FxVXUcwL+/u7tpQx+JVEUcLaIoamaQIdh092zKIiNQVCxCfAHVgo/O4KgoQhUE0fFVVEQeg844KE9fCPgKxNouyT13k2rVUYIP3q3ToK00pNak2d3z84+0vqaPdPc+NpvvZybTmWT3/L4z2e755dyz98hJzrmXikgbgB0AHhORfufcd4IgeKr+yDRd3d3dplqtniUiSwAchamDtHYAeEhE+sbHx+/etGnTs/XWyefzF6nqDfWOM033WGvfElOtULABIKJpM8ZcC+DDMZXbBuBka+1wLU82xhwL4DMAzsaBVzsdgDtV9Qo2AtEyxpyMqSOkTzzIQ8dE5Ppyubx2aGhorMZa7wHwDcQ3z73OWrshplqhYANARNO2ZMmSRZlM5mHEt9t5h3Pu9FKptHG6TygUCs+dnJy8REQuBnAot2edFJGby+XyJ2uddGjf9qzCfBbAoW7y/LuIXLNgwYKv9vb27p7uk4wx7wdwE+K7zN1rrT0jplqhYQNARIckl8udLSLfR3zvH6Micrrv+0MHetCpp546b9euXR8F8DEA8+uo9zSAK6y1t2AGnvDWSPL5/HNU9ZMALsKhNWP/71ER+YTv+z/AQY6INsZcgqlVhrhen9sqlcoJQ0NDf4mpXmjYABDRIcvn819W1Y/EWHKnqq4IgmD9//+gUCikJycnV4nI1QCODLHmb0TkI77vF0Mcc1YoFArpSqXyflW9GsCiEIceBHCptXZgXz80xlwN4MoQ6x1MdU9zui7GmqFhA0BEh6xQKKTL5fJ6AN0xlp0UkVW+79+59xv5fP5NqvoFAK+OsO79IvJFNgIHt3z58jljY2PnY2oV5hURlrrPObemVCr9Efj36/FmABdGWHNfLrfWfi7mmqFhA0BENenu7j7SObcJ4f7VfTAK4DLn3IMislZEYrtngIhsdM6tDYLgHvDSwP/o7Oxsa21tXa2qH0J8r4cKgG+q6jWe512nqm+Iqe5eP7LWrsBBLkk0MjYARFQzY8xSABsAzE06S4z+rKpfamtru/VQNqY1o+7u7iNV9cOquhrAwqTzxOihSqViZvpmUTYARFQXY8y5AG7D7Hs/2SYidwG41ff9TUmHiUtHR0dLW1vbchFZCeCNqG9z30y0PZVKLenv738i6SD1mm3/YYkoAsaYzyHi89YbmYj8AcD3PM/7djNMDPtijOlQ1fNFZBVm2KE3ISoDOG2mfd5/f9gAEFEYPGPMXQDemnSQhDlV3QDgbs/zHvB9//GkA9Wqp6cnNTIyciKA5ar6dgDHJp0pYSoi7/Z9/9akg4SFDQARhaKjo6Olvb39JwBen3SWBvK4qq7zPG/d+Ph4Xxi3t41SV1fXEZlMZplz7k0i8gYAhyedqVGo6mVBEKxNOkeY2AAQUWg6Ozvb5s6d+yCA1ySdpQGVVTUQkZ+KyHd932+Ik+Oy2WzO87yzAJyBaD9OOWOp6nVBEMR1C+zYsAEgolAZY14IYADAS5PO0sDKqnpbS0vLZcVicXsSAYwxJwL4GoBsEvVnClW9KwiC89CEH/3kccBEFCpr7dZqtXoKgC1JZ2lgGRG5oFwu/z6Xy8U+ARtjLsbUXfU4+R+Aqt67e/fud6EJJ3+ADQARRWBwcPBJ59zrAGxNOkuDe4GIrDPGxHZHRWPMlQC+AiAVV80Z6uctLS3v2LRpUznpIFHhJQAiikx3d/ernXMbMHs/NjZdf1XV44Ig+FuURYwxZwK4L8oaTWK9c+6NpVJpPOkgUeIKABFFZmBg4OFqtVoAVwIO5ggAX4qyQGdn52EAbo6yRjMQkQdmw+QPsAEgoogNDg7+wTl3EoCG2PXeqETk3Gw2e0xU47e2tr4X8Z7bMBPdt2DBgjfPhskfYANARDEolUqPquoyAI8lnaWBeZ7nnR/V4M65lVGN3SS+OzEx0TObzndgA0BEsQiC4KlKpWIAzJr75tdgRRSDLlu27MUickIUYzeJG62172zmDX/7wgaAiGIzNDT013nz5p0EoDfpLA3quFwud1TYg1ar1biPyp0pVESuttZ+AE36Ub8DYQNARLHq6+vbNTo6ugLA7UlnaUQisjyCYc+IYMyZrqyqF/q+/6mkgySFDQARxW54eHjSWrtSRNYgvr+8nhGRNc65l4vI1wA06rXeUCfrQqEwF8ApYY4Zou0iskZEjtrzO6nEVPcZVT09CIJbYqrXkHgfACJKVC6XO1tEvg1gXkQlJkXk5nQ6fVWxWBzd+818Pr/YOXe5iFwAIB1R7VqMO+cWhbUT3RizHMDPwhgrRH8XkRvK5fJXhoaGxvZ+M5vNvtLzvE8D6ImqsKo+oqpnlkqlP0ZVY6ZgA0BEievu7j7BOXcPgMUhDutU9Q7P86440ME72Wz2GBH5uIicC2BOiPXrcYa1NpR9EsaY6wF8IIyxQvA0ps4fuMFau3N/D8rn8wVVXQvgtSHX781kMu/870ZwNmMDQEQNYcmSJYtaWlruUNXT6h1LVX+RSqUuHRgY+PV0n5PL5Z7ved4qVf0ggBfWm6FON+7ZmFY3Y8yjAF4Wxlh1+J2I3FitVm87hJUNyefz56jq51F/flXVtUEQfAKzcLPf/rABIKKG0dPTk9q6detVAC5HbXuUfuecu7RUKj1Qa4ZsNtuaSqXO39MIdNQ6Tp2esNbWfZri0qVLX5VKpR4OI1ANHID7ReRa3/fX1TpIR0dHS3t7+0WYek0sqmGIZwCcF9aKSjNhA0BEDSebzZ7med43MP1LAltU9cogCG5FiH/hGWOWisgFqvo2AAvDGnc6PM/rGBgYqGvyNsZcAuCakCJN1+MAvpVKpb7V398f2omQhUKhvVKpfHxPYzZ3mk9bX61WLxwcHHwyrBzNhA0AETWkQqEwv1wurwawGvtfAh4WkZuq1eotUd6+tbOz87DW1tZzVPXdAJYhnpP0LrXW1jV5G2PWAzg5pDwHslNV7xWRW6y1RQAaVaGurq4XZTKZi1V1JYDn7uMhDoDved61AwMD90WZZaZjA0BEDc8Yc6yIHKeqi0TEAdjmed5v+/v7n4g7S1dX1xHpdHoFgLMxNblG9QmCorW25sm7q6trYTqd3g4gE2Km/zYK4EcA7s5kMn3FYnEiojr71NPTkxoZGTneOfcqz/MOU1UBsDmTyfyyWCxujzPLTMUGgIioRtls9nAROU9ErouoxCSAZwGMYWrC/Sf+c/+CSUxN7nvfx+cDaMXUpYr2PV9RvMc/LSKrduzYsX54eHgygvEpJmwAiIjqZIx5CuF+hLGRfd1auzrpEFQ/3gmQiKhOqnp/0hniIiI/TToDhYMNABFR/RrtTntR2Z1OpzckHYLCwQaAiKhO8+fPXwcg1k1wSRCRYrFY/EfSOSgcbACIiOrU19e3C0B/0jmi5pzj8n8TYQNARBQCEWn6ywCqyrvpNRE2AERE4fhx0gEi9qdSqfRo0iEoPGwAiIhC4Pv+46r6SNI5osLd/82HDQARUUiaeZKsVqtNf4ljtmEDQEQUnmadJP/R3t7uJx2CwsUGgIgoJKOjow8C2Jl0jgj09fb27j74w2gmYQNARBSS4eHhSVX9RdI5ItCsKxuzGhsAIqIQich3ks4QsgkR+WHSISh8bACIiEK0cOHCewFsTjpHiG73fX9H0iEofGwAiIhC1Nvbu1tE1iSdIwwi8iyAq5LOQdFIJR2AiKjZbN68+aHFixe/BMDxSWepgwNwnrV2Y9JBKBpcASAiisDExMT7ROQHSeeoUVVVV1tree2/iXEFgIgoAiMjI27z5s13L168eBJAHkA66UzTISJ/cc6dUyqVZmrzQtPEBoCIKDq6ZcuWgaOPPvoOVZ0D4BgAc5MOtS+q+oiIfHFiYmLlxo0b/5x0HoqeJB2AiGi26OzszMyZM+d4EXmNiLxEVY/e+y+A5yH6VYJxAFtV9UkReUJVnwTwmKr+igf9zD5sAIiIGoPkcrnnAXi+qh6RSqUOd861A1iw56vV87xW59z+VhB2AqiIyJiq7hSRMQA7ReRvqroNwFZrbTPepZCIiIiIiIiIiIiIiIiIiIiIiIiIiIiIiIiIiIiIiIiIiIiIiIiIiIiIiIiIiIiIiIiIiIiIiIiIiIiIiIiIiIiIiIiIiIiIiIiIiIiIiIiIiIiIiGa7fwGo+1uVRpHZBwAAAABJRU5ErkJggg==;" vertex="1" parent="WIyWlLk6GJQsqaUBKTNV-1">
          <mxGeometry x="1060" y="170" width="60" height="60" as="geometry" />
        </mxCell>
        <mxCell id="qbzAYk6FdeuOr6aEGjq--43" style="edgeStyle=orthogonalEdgeStyle;rounded=0;orthogonalLoop=1;jettySize=auto;html=1;exitX=0.5;exitY=0.5;exitDx=0;exitDy=0;exitPerimeter=0;entryX=0;entryY=0.5;entryDx=0;entryDy=0;entryPerimeter=0;" edge="1" parent="WIyWlLk6GJQsqaUBKTNV-1" source="qbzAYk6FdeuOr6aEGjq--38" target="qbzAYk6FdeuOr6aEGjq--36">
          <mxGeometry relative="1" as="geometry" />
        </mxCell>
        <mxCell id="qbzAYk6FdeuOr6aEGjq--71" style="edgeStyle=orthogonalEdgeStyle;rounded=0;orthogonalLoop=1;jettySize=auto;html=1;entryX=0;entryY=0.5;entryDx=0;entryDy=0;" edge="1" parent="WIyWlLk6GJQsqaUBKTNV-1" source="qbzAYk6FdeuOr6aEGjq--47" target="qbzAYk6FdeuOr6aEGjq--50">
          <mxGeometry relative="1" as="geometry" />
        </mxCell>
        <mxCell id="qbzAYk6FdeuOr6aEGjq--47" value="" style="image;aspect=fixed;html=1;points=[];align=center;fontSize=12;image=img/lib/azure2/general/Module.svg;" vertex="1" parent="WIyWlLk6GJQsqaUBKTNV-1">
          <mxGeometry x="1370" y="175" width="50" height="50" as="geometry" />
        </mxCell>
        <mxCell id="qbzAYk6FdeuOr6aEGjq--72" style="edgeStyle=orthogonalEdgeStyle;rounded=0;orthogonalLoop=1;jettySize=auto;html=1;exitX=0.5;exitY=1;exitDx=0;exitDy=0;entryX=1;entryY=0.5;entryDx=0;entryDy=0;" edge="1" parent="WIyWlLk6GJQsqaUBKTNV-1" source="qbzAYk6FdeuOr6aEGjq--50" target="qbzAYk6FdeuOr6aEGjq--53">
          <mxGeometry relative="1" as="geometry" />
        </mxCell>
        <mxCell id="qbzAYk6FdeuOr6aEGjq--50" value="Verifica email" style="rounded=1;whiteSpace=wrap;html=1;fontSize=12;glass=0;strokeWidth=1;shadow=0;" vertex="1" parent="WIyWlLk6GJQsqaUBKTNV-1">
          <mxGeometry x="1510" y="180.5" width="120" height="40" as="geometry" />
        </mxCell>
        <mxCell id="qbzAYk6FdeuOr6aEGjq--54" value="" style="edgeStyle=orthogonalEdgeStyle;rounded=0;orthogonalLoop=1;jettySize=auto;html=1;exitX=0.5;exitY=0.5;exitDx=0;exitDy=0;exitPerimeter=0;entryX=0;entryY=0.5;entryDx=0;entryDy=0;entryPerimeter=0;" edge="1" parent="WIyWlLk6GJQsqaUBKTNV-1" source="qbzAYk6FdeuOr6aEGjq--34" target="qbzAYk6FdeuOr6aEGjq--38">
          <mxGeometry relative="1" as="geometry">
            <mxPoint x="525" y="200" as="sourcePoint" />
            <mxPoint x="777" y="200" as="targetPoint" />
          </mxGeometry>
        </mxCell>
        <mxCell id="qbzAYk6FdeuOr6aEGjq--38" value="Introduce email" style="rounded=1;whiteSpace=wrap;html=1;fontSize=12;glass=0;strokeWidth=1;shadow=0;" vertex="1" parent="WIyWlLk6GJQsqaUBKTNV-1">
          <mxGeometry x="600" y="180" width="120" height="40" as="geometry" />
        </mxCell>
        <mxCell id="qbzAYk6FdeuOr6aEGjq--55" value="" style="edgeStyle=orthogonalEdgeStyle;rounded=0;orthogonalLoop=1;jettySize=auto;html=1;exitX=1;exitY=0.5;exitDx=0;exitDy=0;exitPerimeter=0;entryX=0;entryY=0.5;entryDx=0;entryDy=0;" edge="1" parent="WIyWlLk6GJQsqaUBKTNV-1" source="qbzAYk6FdeuOr6aEGjq--36" target="qbzAYk6FdeuOr6aEGjq--46">
          <mxGeometry relative="1" as="geometry">
            <mxPoint x="827" y="200" as="sourcePoint" />
            <mxPoint x="1060" y="200" as="targetPoint" />
          </mxGeometry>
        </mxCell>
        <mxCell id="qbzAYk6FdeuOr6aEGjq--46" value="La vista envía email al controlador" style="rounded=1;whiteSpace=wrap;html=1;fontSize=12;glass=0;strokeWidth=1;shadow=0;" vertex="1" parent="WIyWlLk6GJQsqaUBKTNV-1">
          <mxGeometry x="890" y="180" width="120" height="40" as="geometry" />
        </mxCell>
        <mxCell id="qbzAYk6FdeuOr6aEGjq--56" value="" style="edgeStyle=orthogonalEdgeStyle;rounded=0;orthogonalLoop=1;jettySize=auto;html=1;exitX=1;exitY=0.5;exitDx=0;exitDy=0;" edge="1" parent="WIyWlLk6GJQsqaUBKTNV-1" source="qbzAYk6FdeuOr6aEGjq--39" target="qbzAYk6FdeuOr6aEGjq--49">
          <mxGeometry relative="1" as="geometry">
            <mxPoint x="1120" y="200" as="sourcePoint" />
            <mxPoint x="1370" y="200" as="targetPoint" />
          </mxGeometry>
        </mxCell>
        <mxCell id="qbzAYk6FdeuOr6aEGjq--49" value="Controlador envía email al modelo" style="rounded=1;whiteSpace=wrap;html=1;fontSize=12;glass=0;strokeWidth=1;shadow=0;" vertex="1" parent="WIyWlLk6GJQsqaUBKTNV-1">
          <mxGeometry x="1181" y="179.5" width="120" height="40" as="geometry" />
        </mxCell>
        <mxCell id="qbzAYk6FdeuOr6aEGjq--59" style="edgeStyle=orthogonalEdgeStyle;rounded=0;orthogonalLoop=1;jettySize=auto;html=1;exitX=0;exitY=0.5;exitDx=0;exitDy=0;entryX=0.75;entryY=1;entryDx=0;entryDy=0;" edge="1" parent="WIyWlLk6GJQsqaUBKTNV-1" source="qbzAYk6FdeuOr6aEGjq--53" target="qbzAYk6FdeuOr6aEGjq--39">
          <mxGeometry relative="1" as="geometry" />
        </mxCell>
        <mxCell id="qbzAYk6FdeuOr6aEGjq--53" value="Comunica al controlador si es correcto o incorrecto" style="rounded=1;whiteSpace=wrap;html=1;fontSize=12;glass=0;strokeWidth=1;shadow=0;" vertex="1" parent="WIyWlLk6GJQsqaUBKTNV-1">
          <mxGeometry x="1175" y="268" width="129" height="49" as="geometry" />
        </mxCell>
        <mxCell id="qbzAYk6FdeuOr6aEGjq--60" value="Controlador avisa a la vista que cargue mensaje correcto o incorrecto" style="rounded=1;whiteSpace=wrap;html=1;fontSize=12;glass=0;strokeWidth=1;shadow=0;" vertex="1" parent="WIyWlLk6GJQsqaUBKTNV-1">
          <mxGeometry x="878" y="270" width="140" height="60" as="geometry" />
        </mxCell>
        <mxCell id="qbzAYk6FdeuOr6aEGjq--67" style="edgeStyle=orthogonalEdgeStyle;rounded=0;orthogonalLoop=1;jettySize=auto;html=1;exitX=0;exitY=0.5;exitDx=0;exitDy=0;entryX=0.805;entryY=1;entryDx=0;entryDy=0;entryPerimeter=0;" edge="1" parent="WIyWlLk6GJQsqaUBKTNV-1" source="qbzAYk6FdeuOr6aEGjq--60" target="qbzAYk6FdeuOr6aEGjq--36">
          <mxGeometry relative="1" as="geometry" />
        </mxCell>
        <mxCell id="qbzAYk6FdeuOr6aEGjq--68" value="Usuario visualiza mensaje correcto o incorrecto" style="rounded=1;whiteSpace=wrap;html=1;fontSize=12;glass=0;strokeWidth=1;shadow=0;" vertex="1" parent="WIyWlLk6GJQsqaUBKTNV-1">
          <mxGeometry x="600" y="272.5" width="120" height="40" as="geometry" />
        </mxCell>
        <mxCell id="qbzAYk6FdeuOr6aEGjq--70" style="edgeStyle=orthogonalEdgeStyle;rounded=0;orthogonalLoop=1;jettySize=auto;html=1;exitX=0;exitY=0.5;exitDx=0;exitDy=0;entryX=1;entryY=1;entryDx=0;entryDy=0;entryPerimeter=0;" edge="1" parent="WIyWlLk6GJQsqaUBKTNV-1" source="qbzAYk6FdeuOr6aEGjq--68" target="qbzAYk6FdeuOr6aEGjq--34">
          <mxGeometry relative="1" as="geometry" />
        </mxCell>
        <mxCell id="qbzAYk6FdeuOr6aEGjq--73" value="Actor" style="shape=umlActor;verticalLabelPosition=bottom;verticalAlign=top;html=1;outlineConnect=0;" vertex="1" parent="WIyWlLk6GJQsqaUBKTNV-1">
          <mxGeometry x="510" y="425" width="30" height="60" as="geometry" />
        </mxCell>
        <mxCell id="qbzAYk6FdeuOr6aEGjq--74" style="edgeStyle=orthogonalEdgeStyle;rounded=0;orthogonalLoop=1;jettySize=auto;html=1;exitX=1;exitY=0.5;exitDx=0;exitDy=0;exitPerimeter=0;entryX=0;entryY=0.5;entryDx=0;entryDy=0;" edge="1" parent="WIyWlLk6GJQsqaUBKTNV-1" source="qbzAYk6FdeuOr6aEGjq--88" target="qbzAYk6FdeuOr6aEGjq--79">
          <mxGeometry relative="1" as="geometry" />
        </mxCell>
        <mxCell id="qbzAYk6FdeuOr6aEGjq--75" style="edgeStyle=orthogonalEdgeStyle;rounded=0;orthogonalLoop=1;jettySize=auto;html=1;exitX=0.155;exitY=1;exitDx=0;exitDy=0;exitPerimeter=0;entryX=1;entryY=0.5;entryDx=0;entryDy=0;" edge="1" parent="WIyWlLk6GJQsqaUBKTNV-1" source="qbzAYk6FdeuOr6aEGjq--76" target="qbzAYk6FdeuOr6aEGjq--95">
          <mxGeometry relative="1" as="geometry" />
        </mxCell>
        <mxCell id="qbzAYk6FdeuOr6aEGjq--76" value="" style="verticalLabelPosition=bottom;html=1;verticalAlign=top;align=center;strokeColor=none;fillColor=#00BEF2;shape=mxgraph.azure.computer;pointerEvents=1;" vertex="1" parent="WIyWlLk6GJQsqaUBKTNV-1">
          <mxGeometry x="777" y="432.5" width="50" height="45" as="geometry" />
        </mxCell>
        <mxCell id="qbzAYk6FdeuOr6aEGjq--77" style="edgeStyle=orthogonalEdgeStyle;rounded=0;orthogonalLoop=1;jettySize=auto;html=1;exitX=1;exitY=0.5;exitDx=0;exitDy=0;" edge="1" parent="WIyWlLk6GJQsqaUBKTNV-1" source="qbzAYk6FdeuOr6aEGjq--90" target="qbzAYk6FdeuOr6aEGjq--82">
          <mxGeometry relative="1" as="geometry" />
        </mxCell>
        <mxCell id="qbzAYk6FdeuOr6aEGjq--78" style="edgeStyle=orthogonalEdgeStyle;rounded=0;orthogonalLoop=1;jettySize=auto;html=1;exitX=0.25;exitY=1;exitDx=0;exitDy=0;entryX=1;entryY=0.5;entryDx=0;entryDy=0;" edge="1" parent="WIyWlLk6GJQsqaUBKTNV-1" source="qbzAYk6FdeuOr6aEGjq--79" target="qbzAYk6FdeuOr6aEGjq--93">
          <mxGeometry relative="1" as="geometry" />
        </mxCell>
        <mxCell id="qbzAYk6FdeuOr6aEGjq--79" value="" style="shape=image;verticalLabelPosition=bottom;labelBackgroundColor=default;verticalAlign=top;aspect=fixed;imageAspect=0;image=data:image/png,iVBORw0KGgoAAAANSUhEUgAAAgAAAAIACAYAAAD0eNT6AAAACXBIWXMAAJ16AACdegHu2JUgAAAAGXRFWHRTb2Z0d2FyZQB3d3cuaW5rc2NhcGUub3Jnm+48GgAAIABJREFUeJzs3Xt4VNXVP/Dv2mcmCcELKEGtvYCtVTIJeEHrvaBIuZhkggbb19ba1hJJAra2aFvf1thaq2KrDZlgrBZt7duaKLmgoHhBf1VbFRVIJtBSxfslAUWQQDIze/3+SNpaCxiSs86Zy/o8j8/TKnzXIiQza87ZZ29AKaWUUkoppZRSSimllFJKKaWUUkoppZRSSimllFJKKaWUUkoppZRSSimllFJKKaWUUkoppZRSSimllFJKKaWUUkoppZRSSimllFJKKaWUUkoppZRSSimllFJKKaWUUkoppZRSSimllEoT5HcDSqWSsl89NSyRNWI0DA6Lg0c71o5iwv4AHcBE+5PlA0F0IMAHgJHd97/7EDjIwH67iY0DtP3f/5d7AO4G0/sgbAfzdiazDcTbCfQemLdb4G1m6syxPZ2N84/r8uCPrpRKMzoAKNVves3G7GCge4zDgbHMdiyIxgA8BqBPABgN4BPY/Ru432IAugC8A/BbBLxmiTaB+WUyZhMh/nLT3AmdfjeplEouOgCojFRdzeaFg6Nnk4NpxHwcgz4H4DCk78/EDoA3ASYKwpO21za0fqfwHb+bUkr5J11f7JTao3Ck/SsArgFwhN+9+CgGxhIb55/oIKBUZtIBQGWMskh0vxj4twDK/O4liXRa4MutlQWr/G5EKeUtHQBURpi6cO3w3FxnBYDT/e4lCfWAqLS5IrTC70aUUt4xfjeglBeG5zp10Df/PckGc8O5i9Yd7XcjSinv6ACg0t6suraZDFzodx9Jbr+EcW7xuwmllHd0AFBpzzJ+6ncPqYG/WBxpn+x3F0opb+gAoNJacV3beICO87uPVGFA3/S7B6WUN3QAUGnNMGb53UNq4eI59auDfnehlJKnA4BKczTD7w5SzAGdvdmn+t2EUkqeDgAqbZUuXjsawPF+95Fq2DE6NCmVAXQAUGmLbWAG9Ht8n5HlmX73oJSSpy+OKm0R9I1sUAj54Zq2z/rdhlJKlg4AKi1Nql4VYGCK332kKgrQNL97UErJ0gFApaURB486DcAIv/tIVcys6wCUSnM6AKi0RMbo5f8hMZOL6lfn+t2FUkqODgAqLbHe/x8iHhZMZOuugEqlMR0AVNopWrR2LIBxfveR6iz0KopS6UwHAJV2Ao6j96/dwHyO3y0opeQE/G5AKbf1LWAjL0vGGdhM4M0g2kxM7zE4DkYMwAcAQETbwJxggxj3/zsAMMwBMO0PAEzYH4wAiAIA9/07YH8CRgI0GuA8APt5+Of6VOnijoKmufntHtZUSnlEBwCVVorqV+cibiYD7Ho2gW5k2A3EZjMxb447ic3ZWYGuxotD77pebA8uWrIpZ9v2baOsExjFlg8xhkYx7CgCfZuBkNv1LNuZAHQAUCoN6QCg0kogln0mEw9zP5m6JnTlX1FdTdb97IG74xtjdwF4vf+ffwlH2rMBXO92PdP3OKDruUop/+kaAJVW2MjsY0/gFX6/+e9Ngul+iVyGObXstuhBEtlKKX/pAKDSC/N0iVgLXi6R65ZlVaEogJfdT2ant8ee7X6uUspvOgCotFG6uKMAwBj3kymRlW0ecj/XZUQrJGKNHqmsVFrSAUCljf4Fa64j2Ce9XOg3WAZW6DYATa+uZn2tUCrN6A+1ShtGaP96hsz9dbc5u7Y/CqDb/WTOe2FUxwnu5yql/KQDgEoLZfWrD2TQyRLZZExS3///p8bLTtkJ8GMS2US6tbJS6UYHAJUWeuPZ0wAEBaJfS6WNcIhIaFjRdQBKpRsdAFRaEFuoRnSfSK6QuEPLZJL5uOJFGz4hk62U8oMOACrlVVezYeBLEtlSC+ukLCsPvQpGh0A0ORSbJpCrlPKJDgAq5fUvUDvE7VwGdsWcnlVu50pjI7QpEJGuA1AqjegAoFIeGZlT6whYtax8osCqelmUsFKLFs++aMmmHKFspZTH9CwAlXLKGhqc2OajjwFTEWDOAfNxEnWIkFKX//9p65bNT4zIy9sKYITL0ftv7d6xOVzXvgqgZSYeX750/oTXP/63KaWSkadnpio1WDPr1o0MsCkyQBGDzgb4QOmaCZs4Ytm8CZuk60gIR9ruBmi2cBkG+AWA7reGmlrnhl4QrqeUcpEOACppldauP9hSYiYRymAxFYQsD8uvb64syPewnqvCkehFAC/xuOwrDGoxQOOErvynkvnwJKWUDgDJjZlKF7edwUxFYDoWhE8BcAj8umVqA8zyrNHtDzbOnp3wu1W3hG96YQSyAucS6AIGnQGw40cfBLqxqTK0wI/abii+ue0QE6Q34dM6HwK9wcx3W4fuSrcrA+fWrTsizjSLQKeBcSQIOQBvZaK/w+IRA6epqWrcFr/7VOrj6ACQpEoWtX+JDC0EuHDvv5I2EfgX73V1LXmsenLcm+7cNb1mY3Z2IDYd1n6VCTMJ8H2hmQXObK0sSLknAD4sXNv+NAgn+t0HGB0M/oMD5w9Lq/Jf8budwTp30bqjE8b8FMC52PtgtQOM+iDRVY2VoQ88ak+pfaYDQJK5aMmmnPe7P7iZQeX79BsZHUz4QUtlgdBGMO4rqo2GHMK3wfw1EJLozHl6f3RgZ96t5RNjfncyFOFI9CqAq/3u40OYgMcY+E1PInvpivlH9vjd0ECURaKHxmGrGfQt7NvC6VeY6fyWqtDTUr0pNRQ6ACSRovrop504NwD4wmAzGPxXA7OgqTL0hIutueaiJZty3t/ZXcRs5wB0FpLwe5CAe5oqC8r87mOoZkXaT7DAM373sQdbwWiwhiOtFYXr/G5md6YuXDt82HCnihg/AnDAIGPiTPjfloqC693sTSk3JN2Lb6aaVdc20zL9HsBIF+IYoAaHEj+6t2L8Sy7kDVm4pu2z5FAlg77pxQr+oWCib7ZUhLxeQOe66mo2L+RF3yDgUL972Tt6nGBrAnnrW5JhPcuk6lWBkaNHXWyZrnLra8fgP+zstuUrF0zY4UaeUm7QAcBvzFSyOHo5Ma6F+wu2YmAsISfx46a5Ezpdzh6Q0kj0NAbPB2iWXwv69pENgg5vrAy97XcjbghH2pcAuMjvPgboTYB/QxxY5NciupK6jinE/KuPX3uz7xjYYJnOW1YVirqdrdRg6ADgo7Ka5/NiTtYfAZwlXGorE67L2rWtpu/IWFlz6lcHO+PDLgDs9wAqkK7nstXNlQUn+N2EW0oi0fMI3Oh3H/toB4A7EzZxo1f7MMyq6zjJsl0I4DThUttg8c3meQX3CtdR6mPpAOCT0sUdBWy5FeCxHpZ9HUQ/C46K3i5xqXV6zcbsLKfnfAJ+DOBzbud7g69uriys9rsLt0yv2XhAttOzGTJHJUuzICwHbHVzxfjnJArMqu34jDX8MzB/Fd69HjIxbpiwOfQj3StB+UkHAB/03+//I4D9fWmAsBbMlzdXFq50I66sfvWB8Xh2FcNcCnCeG5l+McCJSysLnvW7DzeVRtofZWCy330MARNjmQVd69aK+rKa5/NiJvhjEF0C34Yjbgj2bL/Ii6tySu2ODgAeC0faLgXML5Pjfjg/bI25fLAbtfxrlbTF5cn1GN+g/aO5IvR5ELHfjbipJBItJ/AtfvfhDn7YgH402CGtqH51rknkzCOmHybJYtQ1iQCVLCsPvep3Iyrz6ADgkbKGaFa8097CRN/wu5ePsATcFQ/Qjwf6IlRUvzrXxLMrCObyVP/E/x+I5jdXhBb53Ybb+m8DvAhglN+9uIQJ1Gxt4qqWeePbBvIbyhoanHjnuK+DzE8ZfLh0g/uCQG8krA23zitc7XcvKrPoAOCBstuiB8V6uBnA6X73sicM7CKgBr2xXzR/99itu/s1Eo9HJZH1PYnsY1Nlc5p9Fa5tmwuiOr/7cJkFcHfCJq7c22LBktqOGUSJ65N8QWo3LC7UxYHKSzoACCuqj37aifEKEFLlYJktDPw8K48ijbNDvf/8l6W1becw0Q0AxvnYm5QPKIHTmuYXrPW7ETHMFK5rXwpQ2O9WBPQQaFEvJa69v2L8e//8l+G6dcfDmhtAONPP5vaBJcL8poqCiN+NqMygA4CgkkXrCo1xViTbJccBeokYV7KxG4nNwhRfRLY325nMrJaK/If9bkRa2a+eGhbLPqAZwFS/exGyBYxrCM5yRuIqEL6CVHyNY/5Fc2XBlem2FkUln9T74UgR4UVtk2CoCcAIv3tRe7SGjPla09z8dr8b8cqk6lWBkaPyrmHC97Bv+9orLzHuHB3c9e1UP49CJTcdAASU1kXLmPn3ALL97kXt1mqAIlu7Ou9K1RMUh6rklmg+JXgB+k628+dxVPVxVgRBs/VEQSVFBwCXlUTaKwhYBJ/OYVe7wXiVCI8xaBXDPtJSWfia3y0li+k1G7Nzgr2nMvNkMCah7yCqVNw0KD0xngnm0PTGi0Pv+t2KSj86ALiotC56GTPfCP26+oy6ADwI2Mcc4lXJciBSKpi6cO3w4cPMKQxMBtEUAMdDh1l/EdYSJab6dZ6HSl/6RuWSkrr2K4hxnd99ZLCXGHQfiJa93/nOY5l6ad9tRfV/GxVIxCczUATmEgz+WFw1BAxsSJj4lPvmHvOG372o9KEDgAtKItFrCHyl331kFkoQ+P8xc2MiaO7XndTkTa/ZmJ1FPZPIoRIwnwtgtN89ZZh/JAJ0ln6vK7foADAUzBSORG8E4TK/W8kYjA42+J3jmN8tLc9/y+92MlV1NZu1eR2nWKCMgK+k1Y6QyYzxqiU6q7Uy9A+/W1GpTweAwWKmcF20BkCV361kgPUA7jBs7l5alf+K382o/zS9ZmN2MND7JcP2AoBKoE+/iCLQG8ahyfdekr/R715UatMBYJBKa9uvY8IVfveRrvq3Jl7GZG5tmTvuEd0UJTWEb3phBLKzZgNcAcYEv/tJY68nbOKMvW2BrNTH0QFgEHy95894FUR/A/hsX+qLo+cY+E1vIuuPK+Yfuc3vbtTgldauO5nJuRjg8wEM97sfAZuJ8RQTin2q/1LcxM/QhYFqsHQA2EfhSPR7AN/oU/k1JpEoWjp/wusldR1TiO0NAI71qRc3WRCWM8yvM2FL3kzTdxrhrm8A9F0An/G7nyFj9DLRLdTbe1Xzd4/dGq6LzgFzBP7srLjRBMwXdT2MGgwdAPZBONJ2KUA3+1R+aSKw62vLyid2/+vfMFPp4o7zmHE9wGN96msotjHoDofpV3pvP/1VV7N5IS86k8DzAZridz+DYAHcC+Nc3jx33Msf/g8li9q/RAYN8OUxSWojNpObqsZt8b62SmU6AAxQ/w5/tfDha8bAdcd2ha6sria7u/9+0ZJNOVu7d8wH8EOkxtkDrwF0Q3d3fMnKBRN2+N2M8t6suo6TLNsfAChGCrwOMfAAE1/RWlG4bk+/JhyJHgPwMgCf9LC1fvx8MNBzZmP5xPe9r61SVdL/4CWDcG3bbBD9Ed7viBYn4nlNFYW3DOQXl90WPSi+iy+3hEsJyJFubhBeAfimEbn71d/xjbG7/G5G+a90cUcBM18Oxv8A7Pjdz0cRECXiK5ZWFN4/kF8/q77jMBu3rQAmCre2G/T4iNzcafqzpQZKB4CPUVq37ovM5kF4/2jTexY4t7WyYNW+/sai+uinnRhfCcLFSIptXGkTYH/dk8i5ZcX8I3v87kYln5Jbovlk8QMwfwXJcUrhayC6Jjgqenvj7NmJffmNUxeuHZ6ba+4CKCzV3F60BPM6zt3XnlVm0gFgL0oWrSsk4/wZ4AM9Lv0PYmdmU9W4vw8lZFak/QRLuKH/kBc/vE7MVwVGr79TX5DUQBTXrT3KWOfnIMyCP69P7zH42pG5+9UO5ZN0dTWbNXntNwD0PTebGxDmRc1VhfM9r6tSjg4AezCrZu0nreM8BeBTnhZmdFgOnN067+g33YosqeuYQrA3evhc9ntMuD5r17aaxstO2elRTZVGZkXaT2DgegYme1KQ0QvgjqDt/d/G+cd1uRUbjrRfDuA6ePxaS6AfNlWG9GwStVc6AOxG2W3Rg2I9/ASAcd5WpucSgcC0ZeVHbXY7ubqazdrRHecy80JIPYol9CKqMlf/464LARwjVIIB3OOQ/YHUqZElkWg5gevg7e04ZqJvtVSElnhYU6UYHQA+oqwhmhXr4ocBnO5tZXrc5jhFrd86ertklakL1w7PHeZ8F4TLAezvWjDjXgPzPX2cT7mtrKHB6e0KXUzgnwM42LVgxqMw9vLmivHPuZa5B+G6tq+CaQm8Xd8QA9P05qrQIx7WVClEB4CPKIm030rAtz0uuyLYs+1cLy+Xl9auPxhILGDCdzC0BY4bQXRpc0VohVu9KbU7M+vWjQywU01A5RCfGFhPRFc1VYQaXWtuAEoi7UUAGjx+Quc9Yuekoa4nUulJB4APKa1tW8BEN3hZkxitu2z2bL9Wx5fWrv88U+IaAOdh374fugFe2JPI+YWu7FdeKl4cPdZYrgVwyr78PgK9wYSfDmZlv1uKI+2TDdAKYD/vqtLfYpQ4+f6K8e95V1OlAh0A+pXWtp3DRC3w8D4dAb8L5HV8MxlWyJdE2k4hop9//BMDlAD493ET/1/dg1z5hplK6qJfI8bPQPj0x/zqzSD6VcLZ+ev/2EnTJyV10dOJ+T54umsgPbS1q3PGY9WT497VVMlOBwD0b0Zi7VNw8574x2DQLcd25VfuaXc/v4Tr1h1P1pQx4RQGjqS+2wPbQNgA0OPG0v/pfX6VLMoaolmxzTSDbKKYyUwEcCjAAQLeZGAdmFckgj33JsMb/4cVL2qbaAytBDDSw7K1zZUF8zysp5Jcxg8AZTXP58WcrGcAjPGsKOPOYzaHvplsb/5KKe/0nZZoVsLD2wFEPHegO4uq9JcEu8T5p7qaTczJ/gO8fPMHN2/d3HWxvvkrldmaqsb/hQyVMODZ1r3MVFNSF/X4CSeVrDJ6AFgzqv0agM/2riI91JPI+bLeh1NKAUDT3NCjBC4B4NVC2iCYG2bVdxzmUT2VxDJ2ACitbTsHRFd4WPKp7u54qa6YV0p9WHNl4UoC/w8ATz4YEHAox+0fyhoaku7wJeWtjBwAZtV2fIaJ7oBXf37GMzYnME2PvlVK7U5TZeFS6ju8y5NbgwxMjm8O/dSLWip5ZdwAcNGSTTmW+F64uaPYXlEbwZkhvcOfUiq1NVUU3AnQpV7VY+YfltS2lXpVTyWfjBsA3uveUQPw8R6V+4eN2bObqsZt8aieUiqFNVeGagH8xKNyRES/LVq0dqxH9VSSyagBoDQSnebZNr+Md4mdma3fKXzHk3pKqbTQXFnwMwLXe1RuhOM4vwVzxj8SnokyZwBgJoBv9KhaDKDZuv+2Umow8gI98wB4c4gPY1JJZP10T2qppJIxA0BxXXQSAyEvajFRuZ7ApZQarFvLJ8aC2TQboL95UY/IVnlRRyWXjBkADKHYizoMXKdncCulhqrx4tC7FjgHgBdriM6cunDtcA/qqCSSMQMAMR8nXoRx77FdoSvF6yilMkJrZegfBApDfqOg7Nz9Ap5cIVXJI2MGACY6XLjEs4ngrgt1i1+llJuaKkNPMDAHAEvWIWs/KZmvkk/GDABgkvuzMl4NgoqT7cQxpVR6aKks+B0IP/e7D5VeMmcAAN6WCmaitsbKkFi+UkpZax4SzRd8jVTJKXMGAOY2qWgCzwwvapskla+UynDMRJS4Xq4AJeLE6+XyVTLKnAHAmBWy+XSDbqahlJJQurjjPAKdJFeB/3J/xfj35PJVMsqYAWC0030/GK8KljihNBI9XzBfKZWB5tSvDjKz7P1/8mznQZVEMmYAuLV8YgxECyVrMOHnZQ3RLMkaSqnM0pkYdgmAI8UKEF4c7fTcLZavklbGDAAAMDqwsx7ARsESR8Q6uUIwXymVQYpv37A/mGX3FrH8o1vLJ8ZEa6iklFEDwK3lE2NEJPvDRPhJ2W3Rg0RrKKUygtkZ+yGAQ8QKMJ5prixoFMtXSS3gdwNea5qbf09JXftfBRfUjIzv4ssB/EAoXyWZ4ts37E/dvWNgzBgiOoytHUWggwEczESjQDyCmHL6fjUfAMD5jwDCdjDF+/6PfQ8wWwDeAmALwFsIZjOAVygRf3n8u+Pf1M2mMsM5i9ccDkuXStawMAtAJLrBkEpeGblqvTQSPY3Bf5arQDsZ9qiWysLX5GooTzHTuYvbxsYtTTDGFDJzAUBHADwGwMHe9YFeEF4B6GWw3UBEbWxobfcH8ejKBRN2eNaHEheORG8H+JtS+cRobaoqKJHKV8kvIwcAAAhH2prQt8e2DMadzVUFF4nlK1Gz6jsOS8T5VCI+FYwTARQC2N/vvvbCAngJoOeI7VMJxlPbtmxe81j15Ljfjal9V7JoXSEZ5wWAnY//1YMSJ/D4pspCffY/g2XsAHDuonVHJ4xpg9xtEEsJHNc0v2CtUL5yUVkkemgMmAbgLACnAjzW755csAOMp0H0/5jxQNbo6OrG2bMTfjelPl440r4cwHSxAoxbm6sKysXyVUrI2AEAAEoi0cUEvkSsAOHB5oqCaWL5atDKGhqceFfoZBCmM9tpAB2L9P952AzGSoAfCNrYA43zj+vyuyH130oXR89ky48IlthhAubIpeX5bwnWUCkg3V/w9qp08drRbJ2NAA6QqkHMU5uqCkX38FYDU13NZm1exykWKCNwGYDD/O7JR5YJfyHmRhvDn1q/U/iO3w0pAMwUrut4FuDjBYtc3VxZWC2Xr1JFRg8AABCORK8CuFqwxJpjukLH68pt/4Tr1h3P7FxI4PMAfMLvfpJQHIRHCPhj3NnVqKda+qc0Er2AwXdJ5TPwdhboyMbK0AdSNVTqyPgBYOrCtcNzc52NkPw0yHxhc1Xh78Xy1X+ZXrPxgOxA75fBmCP7aSrtbAPjTwamfmlV/vN+N5NJyhqiWbEuXg/gCKkaDLqkpTKk2/4qADoAAADCddE5YMG9sBmvjhg+/Kg7vjF2l1gNBQAorWmfwA7NB/h8AMP97ifFrSbmxbtszh9WzD+yx+9m0l04Ev0ewDdK5TOw4f2urkJ9MkT9kw4A+OeCsPy1DIQEy1zRXFlwg2B+RiuNRE9j4ivAmAn9vnZbJ8CLiQOLmqrGbfG7mXQ0s27dyCCbjRDcU4KYwk1VoRapfJV69IWyX3FdtNgwS/5wbA1m02cbLw69K1gjo5Q1NDi9XfkXEOj7ABf63U8G2AFgSSJAC5eVhyRP1sw4pZHoQgZ/X7DEE82VBacL5qsUlFFnAexNa0WoFYxHBUuMiO0SPtQjQ1RXsymti5bFukJRAu7UN3/PDAdQ5cR4Y7i2vf6cxWsO97uhdBBevH4Mg+cJlmAGXyGYr1KUDgAf5tAPAUjui10Vrmn7rGB+emOmkkh70Zq86HPM3ADwUX63lJEIWSDMCSQCL4Vr2+tn1Xdk8uOUQ8Y2fg2AbMEKjS2VhU/J5atUpbcAPiIcabsboNliBRj/11xVcIFYfpoqXtQ2kRy6mRin+t2L+i87AL5xRO5+1+lC133Tt2gVz0Puw1jMcUzo3kvyJY9BVylKrwB8RMLaHwCQW/FM+ErxoraJYvlppnjRhk+Ea9vrjaGn9c0/aQ0H6Kqt3Tv+XhJpv9DvZlIJO3wjBF+HGbRY3/zVnugA8BHL5k3YxCDJ52TJOHSNYH5aKGuIZpVG2q40Jv53EOZAv1dTwacIuLM00v5oyS3RfL+bSXbh2uhZAE0RLLEtK9GjrzVqj/RFdTdsIPAzgN4XK8D4UsmidbpwbQ9KaqNfiHXZ5xh0DfRZ/pTDwGRK8POlddGflDVEs/zuJ2kZXiAZz8zX63kPam90ANiNZeVHbQbheskaZEyZZH4qmrpw7fBwJHozEZ4EqMDvftSQZDPz1fEufn5WXcdJfjeTbMpuix4ExllS+QR6wwZ7bpbKV+lBB4A9CO56/2YAr4sV0PvZ/6G4tuOM3FynHeBLBc9AVx5jIGTZPhmubf/l9JqNgivdU0vvLjoJckeRwxJ+rGc6qI+jA8AeNF52yk6AfixY4nOC2SljTv3qYLi27VpD/CiAMX73o0QYEC7LDvQ8XVQbldxtM2UYJAR//qkta1T0d3L5Kl3oALAX1tp2sXBCrlh2iiitXf/5znjOkyD6oX7qzwCMCQ7h2dK69kowZ/QjyEyUIxfOf2+cPTshlq/ShtglqHRgiOTWARDkFhmmgHBd21eZE7cgPRf5bQH4LcBsAXgLgbvAtNUSxUG8HQAI1A3mYUwgsggSsF//m8LBAB8MxsEADgXhE0irn1MexozacF30S7jphQubv3vsVr878gOD3iepPccIs2bVdZy0tCL/rzIFVLpIoxcWd5XWtp3DhDPFCjD/TSw7ic2pXx3sjGX/EkySW5+KY2AXgTsAWgdQuyVspERiE+dmvdz6raO3u1VnUvWqwEGjDjmcTXyMhXMEgHHEPAFAISSPsJZXhKzgs8V1bee2VhSu87sZrzH474KXQMiyXQhA9/5Xe5XRl+H2ZFL1qsCIvLx1AMYJlsm40wFn1XccZuO2AcBpfvcyCH8H4y8MPGFBf9m+ufNvfh+rWlbzfF4iEDwxweZkAk4D+AQg5W4t7WCiOS0Vof/zuxEvTV24dnhubqAL4GFSNQh8blNl4VKpfJX6dADYjXBt21wQ1clVoATDjm2pLHxNrkZyKamNfoGIm5A6n1o3g7EShlfYXjzU+p3Cd/xu6OPMqV8d7IoP+wII05ntNICORYr8jBNwUyCvY0Em3bsuibTdRSDJbcE3jg7sCt1aPjEmWEOlsJR4cfBSUf3qXBPPeZGAQ+Wq0G+bK0PfkstPLqWRtlkMc5fkpx2XvEKgRsu459jN+c9WV5P1u6GhKL657RAnSMUMng2Yycm+0JIYrTt2Jv5n5YIJO/zuxQtFtdGQQ1gr+fdCxHObKgpvkcpXqU0HgI8orW1bwESSl+a3x0183H1zj3lDsEbSKK2LXsbMC5G8T5xsBuEuA3Nz5xabAAAgAElEQVT30rnjngaR5GmQvimreT4vHgiey0xfA3CK3/3sxeogqKixMvS23414oSQSXUzgSwRLvD4id/iRekiT2h0dAD6k+PYN+5td8ZcAjJKqQcyXN1UVLpTKTxZlDQ1OrCu/BkCF373sBhPwGBi37rLZTSvmHyl3+FMS6v/k+W0wfw2Eg/zuZzdeYYdmtFwS6vC7EWmltesPZkr8DcDBUjWI+dKmqsIaqXyVunQA+JDSSNuV/fvPS1kfzKNjGmeHegVr+G5O/ergO4mc3xHjy3738hHdDPqdYXNTU9W4v/vdjN8uWrIpZ2v3BxeA6TIQku3wni0g+6XmivHP+d2ItJJItJzAYpfpGXjbBnZ9VncGVB+lA0C/8E0vjEBW8CUAI6VqMJmzWyryH5bKTwbTazZm55ieBiYU+93Lh3QCqE0EgouXlR+12e9mkg4zlUTWTzdkv8/AZL/b+Td6n4BzmipDT/jdiaTqajZr8jqeAfh4qRoMXtBSWXijVL5KTToA9AvXtv8vCD+TyifgnqbKgrQ+AKiofnWuE89pAjDV7176bSHQjTu644syZWHZUJXURU83bK9h0Bl+99JvB5MJp/vgPKuu4yTL9inIvSZ3Bnu2jenb4lypPjoA4F9vXK9A7N4/7UwEcPSy8tCrMvn+6/saDlsO8Bf97gXAdoB+2ZPIumnF/CO3+d1MKiqp65hCbK8B8AW/e2FglwGVNlWGHvC7F0nh2vY7QPi6VD4RqpoqCiJS+Sr1JOvKbE858exvQ3DhH4N/nc5v/mUN0Swnnt2YBG/+DKLfB0Gfb64MXa1v/oPXUpH/cHNF6GQimg3gFT97ISCHgaXhRW2T/OxDWtyJXwlA7D49W1w+p351UCpfpZ6MHwDKGqJZAH1PrADj3TjZtN3xb0796mC8kxsBmuFzK08YNhObK0IXZsojZOKIuKki1NjdnQgB+BkDPj5KxsNgqLWkNur7FQkp98095g0mkvuETvh0Zyw72RbmKh9l/AAQ77RfBfApsQJE195fMf49sXwflTU0OJ3xnDt9XvC3DeDvHNMV+uLSqvznfewjba1cMGFHc2XBTyjBBWA86mMr+xPhwVm1Hcf52IMo6um9Fox35QrQD6urOeNf91WfzP5GYCaW/fT/6ojc3LS959b/nP9X/KpPjNa4iec3Vxb+OtV37UsFzfMLX2yuDE0h4rkA+XSaJR9oyS4PL14/xp/6spq/e+xWAl8nWGLcC6PWTxPMVykkoweAcF372ZLPP5PBT9J1B66SSNv34d8mP9tBVN5UVVCSKTsqJg0ibqoovIVhCwF63KcuDoFNLJ9Zt07skV0/HTh8v0VgiK0ZIrKXSmWr1JLRAwDDzBeM/8d7nV1/EMz3TUmkvYhgJD+l7BnjGccxxzdXhG71pb4CALRUFr7WXJE/GeDvgOHHxlbjspiap9dszPahtqg7vjF2Fxn+hWCJqSWL1hUK5qsUkbEDQHEk+jkCT5fKJ8I1fh8XK2FWXcdJBLrbh4NlmIiu3bq569R7L8nf6HFttTtE3FxZ+Gs4dLrkJ9Y9YdAZ2aanHsxp9zjzrnjOEgCvixUwTjJu0a08lrEDAAHzIPfnfykdP/2XRaKHWrb3+nCq33ZYlDVVhK5Mx6Eq1TXPDT1DcI4DsNLz4oSvh+s6LvO8rrAV84/sob5DtEQQ+MLS2vVi5w+o1JCRA8DUhWuHE+Q23GDGL9LtjWpO/epgL/E9AD7hZV0CosTOxOZ5Bfd6WVftm6aqcVuCeR0zGLgOgMcnKvJ16bhHQKB3+28YkHqkNRfGir0GqtSQkQPA8GHmfIAPFIp/LWs0/U4o2zfvxHJuIsap3lblhwOBXafqwT2poXH27ERLZcEPieh8j/cMCMDQ3bNq1n7Sw5ri+rbt5V9K5TNjTjrePlEDl5EDgCV8WyqbgevS7bS/cF3bV4lQ6WVNIty2tWvz9MbyiT49bqYGq6ki1GjIThN9nv2/jU44prFvY6/0sbPbLgYgdIAVH1WyuOM0mWyVCjJuAChZtK6QQCeJhDPetYFdd4hk+6S0dv3nwSR2VOluMDNf2VRR8O10u42SSZoqxj/usD0VwMte1STQSbFO0dXznlu5YMIOBtVL5RPkPgyp5JdxAwARCX7Dc306nbk9qXpVgCnxOwDDPSrJAH+3parwWo/qKUH3zhu/wQTMKQREPStK+G5JbYff21K7yglQROxRS8Z56bqfgvp4GTUAXLRkUw6IvioUHzPW1gll++LAvLyfwbPT4CjBRN9qriz8tTf1lBeWlue/FQBNAajNo5JEZH9TVP83scO9vLa0PP8tEDXIpPOwABvfdvNU/sqoAWDrBztmAhCZdplw79L5E+Se2/VYad26LxJwuTfVKAHw11oqQku8qae81FgZepvYTAawxqOSn3Disds8quUNStwsF85fk8tWySyjBgAydIFUtgOTNp9cyyLR/ZjNnfDm+4OZ8O3myoI/elBL+aSpatyWYKJ3KoD1HpUsCUeiF3lUS1xzxfjnAPxZIptAXyiORD8nka2SW8YMADPr1o1ksMy9QcYzSyvy/yqS7YNe4OcAPuNBKSbCPP3knxka5x/XZW1gCggvelKQ+ZfFN7cd4kktDzCoRiiaDCD24Uglr4wZAIJwygCI7BtOhLS53Ni31S9XeVKM6MqmioK0PS1R/bfWeUe/CXKmAHhLvBjhIBNMnytzWXloBdApk846AGSgjBkAiK3UN/gHiZzAn4SyPVXWEM1itrfBg+8LBn7TXBFKq0e21MA0zx33MsgWAdghX43PL4m0F8nXkdc4O9RLENtk7Mjw4uiJQtkqSWXEAFAWiR7KIKENL+ju1m8dvV0m21uxLr6CgZB4IcKD73d16WEkGay5YvxzDHylbwGoLALqyiLR/aTreMHYxO1S2cw4TypbJaeMGADiZMMQ+rMaorS4/N+/jeoPpOsQEO2JZ8/WTX5US2XBMsB+z4NSn+z14HvbC/fOG78BwBMS2QSeJZGrkldGDADMJDTZcnu6LP6zxrkeQK5wme0Al62Yf+Q24ToqRfTv+3CHfCX+Xnjx+jHydbxAMlcBGJ8NR6LHiGSrpJT2A0D/kZdnyKSbO2RyvVVau+5kEKQ3A2FL9NWmykKvHgNTKSIR2FUJwlrJGgTkwCZukKzhle7ueCPE1k/oVYBMkvYDAPctNgoKRFuGFdqdy0PMxDA3AxA9FYxB17ZWhFola6jUtKx8YjfifC6ArcKlyoprO4Q+DHhn5YIJOwCI/CwRoANABkn7AYCAYplcfqKlsvA1iWwvlS7uOA8E6dW/zx4S2Hm1cA2VwprnF77IkDyno48he2M6HIFLTHdL5DIQCte0fVYiWyWftB4A5tSvDjJwpkS2hcwPoJeqq9kw48fCZT5wHHPBreUTY8J1VIprqQzdQ4DUY27/dMKsxe0pf1hQYDRWiB237JjpIrkq6aT1ANBlh50O8IHuJ1OCY3yv+7neWjO6/X8ALpSswUDlvZfkb5SsodJHAFQJQPT7xTJ+mupXAfr2BOAWmXSrA0CGSOsBwDKmCSWvav1O4Tsy2d6YVL0qAKafyFbh5pbKAulPdCqNNFaGPiCy3wbAclXouJJIe1gu3xtMENqAzEwuql8t/USQSgJpPQAQy0yyDHOPRK6XRuSN/iqAI+Uq0PvWBivl8lW6aqoY/zgYv5GsYYiqU/0qwNauzY/K3AbgYSaWO8n9XJVs0m8AYKbiRW0TS2rbrwaoQKKCk4jfL5DrHWYi8PdFaxAub5139JuiNVTaCgZ3XQ5A7PuHgfHhxR1CVwi90b+Z1gMS2UT8v+Hattnhm14YIZGvkkNKT8D/NL1m4wFZTu9Uw3aGJZpOwKGC5V5oriw4TjBfXLguOh3MywVL/Lm5IvRFEAlexlXpLryo/VwYSF5te6S5smCKYL64cKT9KwD+T7BEHKAnAV5OxixvmpvfLlhLeSxlB4Bz69YdkYAzBeAiWEwFIcubynx1c2VhtTe1ZIRr2x8ByTwdAcCC7In955crNSThSHQlwGdL5Rs2xy+tyn9eKl/azLp1I4NsOgEEPCr5ChgPkqGHE9nOA+lyDkqmSpkB4KIlm3Le27nzNGPtFCYUAxjnRx8GOHFpZcGzftR2Q3Fd23jDtAZCf/cM/KalsmCORLbKPEW10ZBDvAZCb3AM/kNLZeFXJbK9Eo5EHwP4i17XZWAXgZ9goocDCdvSf06BSiFJPQAU1Uc/HUjYGcw0A8BZkN+rfq8YePvYrtDh1dVk/exjKMKR9iUALhKK32Zj/PlUf0JCJZeSSHQxgS8Rio+ZgPnM0vL8t4TyxZVE2r5PoIV+9wFGBxu6nxJ2+eisnid174/k59VlowGZVL0qcODo0ScbyzOZaAbiXMhJNKMYYGVKv/n3LeiZLVjiRn3zV24zJn4VW+drAIYLxAcTscQ3AFwrkO0JY5wH2Fr/BwBCPjHnw9CCzviw98OR9pUALbcxu0JfF5KT7++upbXrD4axZzJQBOZzAIz0u6c9IcJFTRUFd/rdx2CV1rVXMqNWKH5LTyL7CD3pT0koibT/gsSO9KVNx3Tlfy5lh3tmCtdF3wJwiN+t7BGjg4BlILpvQlf+Uyn7tU4zvlwBKF3cUcAJG2bimYzEieDUeByRrHnM7x6GghkXC8bfoG/+Soph50amRAWAA9xP57FrRnVMBvCI+9keIGJE2h4HSPLq3tAQ8hnIB/iKNXnRd8KR9hUMuj+r5/37Gy87Zaff7WUqT994SyPRaeFI+7NsbRsIPyPQSV73MHi0aWlV/it+dzFYsyLtJwCQOuv7nURgl9SVBaXQVDVuCzNuFitAED+ISBTjMb9b2AeHALiIwI2x7APfKq1tv073G/CHJ2++UxeuHV4aab+TwSsATPSiptuI7WN+9zAUCcbXpbIJvGhZ+cRuqXylAMDAqQEg9H3G4bL61QLnhnjDYV7ldw+Dwwcy4QpkBdtKI9HT/O4m04gPAGWR6H65uc4KBi6UriWJgRT9AQPKGhocEM4Viu8GB24RylbqX/qvAiwRis/ujeeUCGWL638EL2WfZADwSQY/XFLbkfInNaYS8QEgDl4C4HTpOsI47iQe9buJwerpyj9DandEZixpqhq3RSJbqY8iyzcBlBDJBp8vkesdSs01DP+WTWQbi2qjIb8byRSiA0BpJHoBA+dJ1vAE49n75h7zht9tDJYj98LGgYD5tVC2Uv+leX7hiwS0ioQzTSm7LXqQSLYHiIS+Lt7Kdcj+rrqaU2RtWGoT+yKXNTQ4DL5GKt9LTIj43cNgTapeFWCYWTLp/Mi9l+SLnt2u1EdZy/UiwYSs+C6bsscEB0ahBcDrfvcxdHTcC3ntZX53kQnEBoDY5tBUAGOk8r3Dz7/f1SV52IaokaMPPhXgPJFw4SNbldqdY7eEHgIg8kQOGyqVyPVC4+xQL5h/5HcfbiAm3U7cA3KXWaydLpbtne0JNhf2H7uZmqyR+nvoDI42zULZSu1R/yYyt4uEMyZPr9mYLZLtgebKgrsAbvC7jyEjnDF14VqJnR/Vh8gNAGRS8nG/D/mAycxaVhWK+t3IULCBzJnnjLsaZ4d6RbKV+hgMvgOAxG5yw7MCsdRdtEzEwZ7tFwFY6XcrQxQYNjyQ0seupwLBhRZ8hFy2LAY2AHR6S0X+w373MhTnLF5zOBjjJbIN4U8SuUoNREtl4WsAnpLIphS/etl42Sk7g3lURMBNANjvfgbLpPB7SKoQGQCK6lfnAhgtkS3sJTC+25vIPqa5MrTG72aGKmCdaRA574E2La0IrXY/V6l9QXcLBctcNfNQ4+xQb1NlwWUgewKAFgApdxuTmcf63UO6kzkLIDZsLIh9P2hoABjgF0C03MDcv3TuuKdBlLIT83+js0RSmRvS6+ukUlEQuCcGuhlgx9VgQn7xog2faJ139Juu5vqguWL8cwDCZTXP5/UGss8xzDMYmAqRMxVcxjTG7xbSncgAEDR2jE3e9//tBHrYMi9nDiz/jx/yCh+7ksA4VeTzP+Fe91OV2jeNlaG3SyNtTzLoDLezHSdxKoBGt3P90jj/uC4ASwAsmVO/Ovh2POc0BzSDwTMBjPO5vd0i0isA0kQGAMtmbJLdenoJjIeZcF9vInvlivlH9vjdkLRzFq85HBafdj+ZusZ35T+31P1gpQbBrADY9QGAGWk1AHzYreUTY+jb2nwVgAXhxevHgO1UME8BMB3Afr422I/1CoA4mVsAzGMlPnnugzgTngawDIaWtVwS6vC1Gx8EE4HTJS7CEHiFnuWtkgUDDwD4hUDyqe5nJqfmueNeBnArgFvLfvXUsN6cEaeCuYjAJQA+41tjRIfPqV8d7B9YlACZAYB82QDodTCWE2j5jp3xh1cumLDDhx6SBoNPkVj/Z4kedD1UqUFqrshfG66LvgngEy5HHzN14drhmfY60njZKTsBPNz/z6Uli9YVwjEz+tYO0CmQes/YLXY6e7I/DeBF72pmFqG/TDpM/hYAJZj4rwS6H4wV6bBq3130BYFQzor3PCSQq9TgEDFq2x8CuX7cdSBnWPB4AP/P5dyU0jJvfBuANgDXz6xbNzLANJXIzARjmtgOox9CjjkMOgCIERoA+DCZWLwLwiMgejjIaG2sKHhbpE6KK2tocGJdKBCI3tC/mEippMHAEwTXBwAYwxOQ4QPAh91fMf49AHcDuLu6ms2a0W3HMswUAEXEOBkCj5Wz5UPczlT/JnU5R2IPgBuCozt+1Dh7tshRoOkk3ln4WVAi1/1kEtl4RamhMMRPssDtLmYudD00TfSvA3qu/5/rZ9V3HGbj/Jrbj2SSI3OMuerj+sRWfPuG/QG4/uZDhA598x8gYydIxDLhSYlcpYaiqaJgA0ACV6Z0ABiopeX5bwG8xe1cZugVAEHu7wS4KyHzF2bd/+ZKV9ayxOV/BBKJv0jkKjUkRAzip12PBRXoufT7gLFZIFMHAEGuf3MHhO7ZWBi99zxARCL3/7vNIRs2CuQq5QaJRcD7tY1uGyOQm55I4CoM6QAgyfUBwELmno3leKdEbloifNb1TEa73oJRSctym0RsHAE9kGagmN2/AiD0fqL6uD4AkMFBbmcCQJxz9RbAQEnsoEUk8gKrlBsc5nUSuYatbkc7QCxxBQAy7yeqj/uPbYAkDpnoWTH/yG0CuWlnZt26kQAf6H6y1QFAJa2+21O00/VgojGuZ6YpIpErAMl/aFEKc38AYJb4C9P7/wOUbQMin1iYHb3/r5JW3+0pftntXLY8xu3MtCVyC0DkA6XqJ3ELQOIvTGKyTEsJJGT27g64/+KqlLt4k+uRRHoLYICYJBZq87A59auD7ucqQOIxQBaZ2HQB4AAZQ27viQ4A2Lk9/opErlLuoZcFQnUR2gARW5EPau85w/aXyFUSVwAgcAuAsd31zLRFBwuEdmbaoSgq9RBLXKXiUe5npidDjsg6rVjM6G0AIQKLAEVuAfQIZKYly5AYAN4QyFTKVdYYie/T/afXbMwWyE07cWKR12nLcR0AhEjscrWf64mEXtcz05aVGADeFchUyl0Jmd1Cg5SQ+JlKO0QyH9QCCdJbAEIkBoAstwMJMpNlOiIi1y9ZMulTGCr5scBe9ABA6NUBYACo14q8TrNjpQ6ty3gSA4Drf1kWRgeAAWJ2fw8AYr0CoJKfCQRknhZynBEiuWnGQGYAgCXXP1SqPgIDALs+ABjoLYCBIpDr9ysZ9J7bmUq5bteurTLB7v9MpSMHCZk1AHD0MUAhAgOAcf0vi4l3uZ2ZrkhvwagMNWLECJnXCev+z1RayrYiH9TYuP+hUvWRuALg/rRm9SmAgWLA/SsAughTpYAxr4wR+T4lowPAQAzPOljkddphXQMgRWAjIPfXAOhTAPuABa4A6ACmUkB1NVkAMbdzmRN6C2AA7rhojNAtAOgtACHuDwAkMACwDgADRu7/sJBx/0VVKSECb0K6BmBAiFjitZoEXtNUH4mnAKzbgWRIos+0RCDXv/4M/fqr1MACTyGBKO56ZroictyOZBjXX9NUH4kXdtd/WCTua6crFnhigtnq11+lBIlFsHoFcmAmVa8KAOz6AGAEbuuoPhIDgPt/WfoGtC/cf7ESWFeglNv6T42TWNisa2AGIGv4QSKv0wzSAUBIilwB0HtwAyXxyB6RDgAq+b0XHybzOmH1CsBAHDgyIPL1N0joACBE4DRA968AGL0FMGAStwAgcb6DUi7ridnhErlsdAAYiERC5oNaIqFrMKQInAbo/uUaXQOwL0jg2F6RI4aVchXlGJHvU2MkfqbSj7UyA4AJ6C0AKRL3y1yf1vQS9L4QORBFBwCV9IxN5EnkOpyQOWMgzVjuFRkALOsiQCkCAwC5vh2nrgEYOAYEBgD3TxhUym3W0kESucbpFTllMP0Ykddph3UreCkSVwC2uR+pTwEMFDELfFphkU9WSrmJjJH4Po01zjne/de0NBRgmQ9qcUro11+IwBoAgQEANMz9zDRFRuLTyqeqq1k3A1JJjYDPuJ3JwBYQsdu56ShBlCMTnL1dJFcJPAVARmJa03vQA8TgLoHY7NWHrD1MIFcp1zDzWLczCRJX1NITCS0WzjZ6BUCK+wOAlbgCAL0HPUAMvCaRmxUPjJHIVcotDPcHAACvCmSmJWIrcAuGEo0V+foUhhDXBwArcgsAeg96gIxxNknkWkfkxVUpF9EYgcyX3c9MT0wSi4V5u96CkeP+FQBjJO7XjOjf5lN9jK3vvP06BHZjhEW+65lKuaTstuhBBBzqdi6DRQbqdEQssFiYoZf/Bbm/sMvara5nAvRefJiuAxiAx6onxwG87nYukxnvdqZSbonttELfn+Zlmdz0I3IFgOh91zPVv7g/ABDecT0TQK/QJh9pifCy65HMhW5nKuUagwkSsQ7TSxK56YglrgDAiryfqD7u3wJIkMhfGBujCwEHiJk2uB5K+PTMunUjXc9VygVEVCAQy/FhZqNAbloigcXaDJkPlKqP6wNAwJEZAIzIdJmuuE0iNcvSRIlcpYaMcaLrmYSXWr91tD6DPnCuv0YT8Lbbmerf3L8FkBftAijhdiwZ0gFggAxonUQuE06VyFVqKKbXbDyAQSG3c4llfo7SmPsDAOsVAEkBtwMbZ89OhCPtWwCMdjOXmcpLIu1Zhp37m6rG/d3N7HQTCOxsi8VzGAC5HK0DgEo6WdRzMgDH7VwGt7udmW6mLlw7PGd44CxjeSaAXNcLGOp0PVP9i+sDQB96B2BXBwCACwn4FVPiV+FI+0tgPMyE+3oT2StXzD+yx91aqa2xfOL74Uj7KwDGuJtMJ02qXhXof9JAqaRADk6DwJPiLHQlLdUVLVo71nECZwNcxIwpxJzj+keNfsz8lkyyAsQGALwNQHLV+BEgzCFgTrbTsyMcaXuIQMtjJr78vrnHvCFYN5U8D9cHAOx34KjRxwN42uVcpQaNgckS7z+UsC8IxKacsoZoVqwTpwM8A0QzAT4K3DdxCb3vf4jRKwCCpAYAke1o92A4QGEGwgEbQDjS/hKD7gPRskOc7sdvLZ+YoWdJ01MAz3I9lTANOgCoJDGzbt1IYnzB7VwG3m6ZX/ii27mpoqzm+bx4IHsSA0WxLhSD+MC+/+LtpnzBbN2KWZLQAMAvy+QOyBEEng/m+Z2xnHfDkfZHQPRwkNHaWBnKmBWlhuhJy+7/sDLsNABXux6s1CAELZ0Ncv91zABPuJ2ZzKqr2awZ3XYsw0wBUBRjnAJm+Q/4e7e98eLQuz73kNZkBgDiTfD9ewcA4SAAZWAuiwGLw5HoC4C9D8TLmucWPp/Oe0yPcrqf64zndMPlhTkEOrGs5vm8xvnHSZw6qNQ+IWCaxA8xM54UiE0qUxeuHT4s1zmTGOesoWgR2ByWBK/a/0bQTZiEiQwAJkGbbPKdHm8APh6g48F0Vbgu+jpq25cTaPmOnfGHVy6YkFYnTt1aPjEWjrQ/B+B0l6NNPJA1A8CdLucqtU/KGhqcWBfNEAl36CmRXJ+VLFpXCMfMMMwzGHQKgIAHN/IHh93f0VT9J5EBII7AJiNwHo3LPgnCHAbPyc11esKR9seZ6E87d8Qb0mUYYND/I7DbAwCYeTZ0AFA+i3WGJoH4EIHo7aPNzrRZAFi8qG2iMfR1MIpB+DQY4KR91/8wPYlRmsjn9Naqo95iYJdEtpBsAFOJ+be5uc6LpbVt3/S7IVcQHhQKPrvstuhBMtlKDQwTny+U/Eg6LB4uWrR2bDjSdr8x9CyAKhA+7XdP+8bqSYzCZC7UEzGBXhHJlncIE90ejkT/NL1mY7bfzQzF+52dfwEgcTpjMNZjSwVylRqQOfWrgwS4/pQLADDMAxK5XgrXRac7xlkDCN0i8QCxnsQoTfBOPUflsr3A52cHeu4pa2hwfYcxr/Rv2POQTLr5mkyuUh/v7cSw6QBEjgh3mFJ6AAhH2qbCcjOAA/zuZSgShBR/D0l+YgMAEaX+KlrGOb2d+T/xu42hIGahFzM+o7R2/edlspXaO8N8sUgwo2NpVX6qXr1ESaTtUwDdDUKW370M0ZutlaF/+N1EuhMbAGIUu1viUCCvEfCDVH6jo6CzAoCViLbGyrwIK7UX5yxecziA6RLZbOh+iVyvGNCvAIzwu4+h4z/63UEmEBsA7pt7zBtgvksq3zOELEbie363MVhLy/PfIrDIpibE/PWyhmiqf9JQKSZonYsg9ASTw9wokeuF4rq1R7HQughv0c5EwNT43UUmEH1a33LgRwC2SNbwBKFsTv3qoN9tDBpRg1Dy6FinFVqJrdR/m1O/OsigS4TiX1paEVotlC3OQeB8CL+me4HZXrOsPKRbAHtA9Juldd7Rb7LFBQBS/ZGake8khp3kdxODlejle8RuxxhK2asjKvV0xrK/DOCTEtkMNKTy7qDMmOZ3D0PFoPuP3Vxwnd99ZArxabFlXsGDxJnzjiEAACAASURBVFQGIKU31zHAZL97GKzW7xS+A+bHRcIZE0rqOqaIZCv1YcwkOXCyEbtSJq749g37AzzR7z6GhptH5uaeV11NEmuW1G54crmoqSrUwg6dyJTC+2szT/K7haFgQGxRDcF+XypbqX8K17WfDcYEiWwGNrTODaXs7n+mJ3EagBS9TUnvg/Hd5oqCWXd8Y2wqbSCX8jy7X9RySaijpaLgNAJNB7gBKXZFwAInX7RkU47ffQwWDwvcDeADmXB8aVZdR8reIlGpgq4SSwbdJpXtiZT8gEJtAK5IBAKfa64quDmVb7+kKqHjgPesqTL0AIAHJlWvCozMG30SmM9hoAiEfK972RcE5Gz94IOTADzmdy+D0fqto7eX1rX/iRkij+5Z5p8CmCqRrVS4LjodzKeIhDN6yYn/XiTbO2f63cDHo52AfRLAfYad5lTebyFdJM2JEOfWrTsiAWcKwEVgnI2+/fmTDF/dXFlY7XcXgxVeHD0Rlp+Wyieyk5oqxsusNVAZLVzb/jQIJ8qkc0NzZWHKPs1SVr/6wFh82BaAk3HX0pfBWEmGHg4wVjRWhmSuQqpB8fwKwJ7cWzH+JQC3Ari1+PYN+zu7YmczzAyAZwA4zOf2AABMNAVAtd99DFbz3NAz4br2tWL3UdlcA+Yz9FKeclNppG0WQ+rNHwBwu2C2uFgidzJgk+XNP0bAExa8HI5Z3nJJqMPvhtSeJc0VgD1iplmR9cda2BlMPJNAJ8K3Z10pkQgEDl1WftRmf+oPXUkkWk7gW8QKMJ/fXFWYsqupVXKZXrMxOzvQEwXjs0IlNh7TFTo6lVeel9a1/0bq1t4AvQNgBREtDzg7VzaWT3zfx17UPkiaKwB7RMRLgefR9881pbXrD4axZzJQBOZzAIz0rhl2nFjvdAApe79wZG7unVu7d1wNQOIcdYDoxqL61fctK5/YLZKvMkp2oPcywTd/EPGvUvnNH8zEdVHPT/zj3u7XQU6jCeYsndCV/1RKfw0zWPJfAdiLsoYGJ7b56GPAVASYcwA+DuJ/ptS+XwgA4UhbteSKajB+3FxVcI1YvsoIxTe3HWKC9HfInWq3pbs78ZmVCyak1BNJHzYr0n6CBZ4RL5ToRe87f0PP62vR+2YbbPdWANgF4EEiWgpg2RNPPPGeeB8fcvLJJw9zHOdUa+04Y0yutZaJ6A1m/utTTz31ope9pKqUHgA+qvjmtkMoSF8i4BwA0wDsL1BmWzCP8hpnh3oFsj1RVvN8XszJfgXgYUIlupHg8c3zC/WHUA1aOBL9E8CCw3ZqL+oFgJLa9quJIHJiaeKDzeh5Yx1631iHeNdGcCK+t18eY+YHjTG/3blz533PPfec2O6vp5122uettVcQ0ZcB5O7u1xBRG4CbDzvssDsbGxtT/lA6KWk1AHzY1IVrh+fmOm9BYAggQ2c1zQ096naul8K17fUgzBEs8UhzRehsXRCoBmNWXdtMy3SfXAXaGUz0fKZx/nFdcjXkhSPR1QAf73buBy/cg53rHxrsb+9k5t87jvPbP//5z64tApw0adKhsVjsKgAXY+C3r1cnEokL//r/2Tv38Kiq6/2/a89MEu4ooBWtlapVmHBRVMicQWNFFBQyAYNWW6vVSkmCVVu1Wqup1dZLq21Iglipl69tLVESgojiLZI5E1CiQDIRRQVFUG5yTTKZmbPX749gfxQBAzn7nLmcz/P0efrIzPsuhmT2OnuvvdbSpe+bFUcqkfSDIw7G4luHtxDoNRXaUiJPha6VuIR8EGpnNFyQN6v5GoX6DinKpDmre0lJFYptHk/2xT+vvPG7e489TSf6+cquvP0YIvqVlDKsaVrQ5/NNKSgoOOJbCuPGjevh8/nuicViawD8AodXu3aWy+V62+fzXXGk/qlMyiYAHfAiFaoEvqykhJP6s3uhcNgnDDyl0oMk/3nSzNUDVXo4pB4iEn8AhBMVWrR6gKQfOEMQU6FgF9fYvRnG7s1myWlE9PzGjRvX+P3+23Nzc/sexnuF3++/uqWlZQ0RlQDoeYQx9CSif/t8vtler9cZX74PSb2IfRtkGIsAqNiCHvjugPB5CnQtRbrpPgDtygwIRwth/CvZkyUH68gvD18MYLpim7LKIu+Xij2s4EcqRKMbm1TIDmLmB+Lx+Dq/3//gmDFjBhzqxZqmTfL7/U3M/DRM6gNDRDf07dv3jVGjRqm5AZWEpPQX87wbh38OkJKfZpfS4iRrWDDN+xkzFPdA5/NWDGi+Wa2HQyqQP2vlMRL8JNTWJu0hYfxFob4lBEobT1Zx9g8oSwAAAMzch5lvk1Ku9fv9f/P5fMfs++c+n+9sTdPeBDCfmQcrCEFzu90Nfr9fyWeXbKR0AgAADF6oRpem3DB7eZJO3/r/MLv/CEDxnX2+f9Ks8BlqPRySGmZi6XqKgO8odnq0avpw0/a3bUOQkqd/jrcjtvlDFdL704OZbySiNX6/vyQnJ+cMTdP+Q0TLAOQq9j6emWt9Pl/S13J1lZRPAEhQlSLp/puNbmMVaVtGzYzTNxLRg4ptMoXkqvyy9/sp9nFIUgIV4bsAjFfpQaANHtBDKj2sgghKitqiGxvBhsra4G/Qm5nvEUK8C0BJTcNB6ElE8zRNS+vdyZRPAKp/MeQdAOuViDOuVKJrMXFX25/B+EyxzfeY4s849QAO+5M3s+kiWDBjQ4LvTIVhNIHy8AgGvCq0o+tXqJBNVASAR3w+35+RwlfiD0XqfxkTMUDzFKlPuaRilYWtiNWwYNpZrQTcrt6JJqwY0KSkaYlDcjK5rPl7JPAslH8XUcMZW7zPqvWwCr5OiayMo13h+X+iQkS/0jStMjc3N8vuWKwm9RMAAJJVJQDcLQMiJXYBqoqznwNQp96J7s6rCKfEZ+bQNSbNWd1LCjkfQH/FVkzATanQr/6aJ9dmAbhKhXZ0Yxgca1MhnQxMicViVTk5Oaq6oyYkaZEAZB7TpKNjYpXp2DyFy1TIwAyobQ4EAATmOXnljT7FPg4JzA2zl3tEJP68qtHU/wv9o6rIG1Tvo57tba2ToWgAWvvnabX9fyAuFkK8rGmaihbyCUlaJACVU6caYFY1onZEoGJVSlwpqboxeyURPazah4AsAtVMeaz5VNVeDonJZqPb3wCMU+3DwJcxMm5V7WMVglnJAwcbMbSvf0+FdLJxLoDXc3JyjrY7ECtIiwQAABjin8q02ZUyuwB9unX/A0AfWGDVzzDkS5NnN5vS5MMheQiUN90LZtXNfvZCMxYWDrN0Sp0qAqWNJ7OiK3LRDavSeft/f852uVyLRo0apWoKZcKQNgnA/GLvMgBrVGgT+MrxpWtS4oflqWsHRSTTDVDTQXF/TuG4fHXi7A9UnwE7JAiB8qbbAPzOGjeunl/kfd4aL/WQS/wCiqrV29epnyicTDDzOW63e+G4ceN62B2LStImAeiAVO0C9M5wtaupzLWBmuIhS5ihehgLAIABrysefSXw6HuH0yPcIQkJlDVOh1U9+BlfSekpssTLAgrKwz0Zarb/ZXsLol+kX/V/J/C3tLS8nMpJQFolABL4JxQ92RJoRsHcuUc88SrRyIjuuhUM00Z5Hho6ExmexQVPhNPi3C0dCZQ1TgdRGSy6b03EP6+ZcfpGK7ysIAZcA0BJktz+WQPYiKuQTgX8LS0tc0eOHJn0XV8PRFolADVF3o8A6GrUeVB08+BJarStp/IWXxuIroLKYUH/y9nxdn5z0l8bnUEdKUZ+WeOtICqHRd83RHiiqmioqt4fltPRPItvVKXfvrYeRPQKgHoAhiqfJGZCVlbW35GCzYLSKgEAAAb+rkpbEG5SpW0H1UXeFUR0p1V+DAwTHvHW5NKVJ1jl6aCWQHnTvUz0EKz78vywpcVIqd/Dd49pvhSAkhsz8R0bENv6STQWi/1U13Wfx+PpS0QXElEpgHUqPJOUn2qadr/dQZhNymU030bBI6FusczeG6FoO02wGDmveMi7KrRtgZkCs8KLwLjIQtfPJfElNYVDV1no6WAiuSVvuo86ZsAsi/tktIOkVl04rMFCT+Xklze9wcD5KrRbGv6D1g/emKvr+gGnm2qadhoRXczMVwAYrSKGJGOGrutldgdhFmm3A1B5i6+NGcquBEqSv1GlbQtE7MmgKwF8YqHrCYJJn1zReImFng4mUVAe7tl3QP/5VjfJYkZxqi3+eWXhUaoWfzZiiKxbBinl4wd7ja7rHwSDwb/pup5DRKcx830APlURT5LwV03TlA6tspK0SwAAgAUf9AfeBKbkPRYeolDfciqv934FklMZiFho21MyVedXNP7CQk+HLhKY9f5JcbAO0ARrnWnO/OLsJ6z1tABSd2Wy/bN3YUT2rKmvr3+jM68PBoMfhkKh3+m6PkgIkcvM/wCwW1V8CYqLiP49ZsyYlPiOT8sEoGNrmeoVyQsY0rJzc6uoLhzWAKJCi23dzDQrUB6es7cHukMCEyhvHAdpLGdgmMXWy/t2715ssadyJs0Kn0FgZYlU5KMlIKK/4/BvRnFdXd1boVDoOo/HcyKAOwF8aX6EncbSwkVm7iOlrDnnnHOSfrx5WiYAAEDMpcq0Ia5IxTa38wu9TwLW9Af4X/hnO1pb6iaXNX/Pem+Hb4WZ8ssbfwuIlwBY/aW4WbC47KlrB1m5O2UJQvJdUFSnFd/+GWJbPooKIZ7qik5tbe0OXdf/5PF4BhHRNGZW0mztIESI6KF4PH48AFWt3g/GyR6PZ25BQUFSX/1O2wRggCfyAoE2qFFnl5GCuwAAsGPLll8y8LIN1mdJkg15ZY35Nng7HIRJf208NlDR9CKD7gPY4i9DahMk8uYVD0m5M+n8Wc3ZAAKq9FtXvw4Az9XV1W0xQ6+2tjYSDAYfD4VCpzPzZQBU1mJIAM8Q0WnBYPD2ZcuWbdJ1/UcAHlXoeSB+uHHjxvss9jSVtLsFsC95ZY13EpGqqx0xGDy4+sahHyvSt41Jc1b3Eu3xOmsmuX0TBv7e1mrcvPjW4S12+Dt0kFfWPIFI/gOAHb0bJCSmVs/IfsEGb+UEyhv/A9BUFdoysgvbqu8AsTEiGAyuVOEBgDRNuxLAnwB810TdV5n5tlAodMDRhT6f7xYi+jOsW9sYQEDX9RqL/EwlbXcAAEB6Mh5XWNjmgYv+oEjbVmquO323iBuXqttBOTQE/Lx7d9e7+WWrcuzwT3cKysM988qayojki7Bn8QdAt6Xs4l+xaiRABar0I2uWADL+msLFHwBY1/V/RiKR0wHcA6CryfpKZr5I1/VxB1v8ASAUCj1CRL9Axy6BFRCAp/1+//ct8jOVtE4AFkw7basgPKvQ4orJZc1nKtS3jXk3Dv8cBl8CYIdNIfyASQQDZY2lk+asTpv53XaTV9Y8IcYcJkIRbNpBZFBpdZH3L3Z4WwKLB6Hos2UjhrY1b4GILPn8GhoaWnVdvxfAD5j5cRzmwkxEnxPRtIEDB44MhUKLO/OeYDD4OBH9GIBV/Y37MvMcJOGOetIFbDb5Ze//gEk2qzu/5Neqi4ZeqEbbfvLLVuUwicUAetoWBOMzJhTPL8peYFsMKU5Befg7MfAjAH5kcyhPVRd6fwYiK6ZVWk7ezKaLSKirsWlb8xb2vPOvZl3Xs2HNxM//QdO0s9BxLDD2W166iZkfYeaZ9fX1RzSnWNO0y9Ex/8Wq2pQJuq4vssjLFNI+AQCAQHnTXADKttwAvqi6aGinstdkZPLMJk0KvALA7qlZr7OUN8+fMazR5jhShhtmL/dsjmcWAnQvALtHXs/bsWXL5bUl56fk5JqSEhYrBjS9A5CaXUNmfPXi3TB2b75e1/U5Sjw6yZgxY4Yw82RmPhvASehYpL8C0ExEr7jd7kW1tbVdPp71+/1XM/OTsGC3m4gWBoPBS1X7mImTAACYXNZ8piSpsmr1vRFbvGeVlJBV51KWk1fWPIEgq0DIsDmUGINmCRb3VhUP3mZzLElNoKI5AJYPAzjF7lgYtPBYd1v+49POitkdiyoCFY0/BtP/qdKPrFuG3aF/bPR4PCebsbgmC36//wZmfgzq17uIlPLoI92xsIO0rgH4mnnFQ94F4RWFFmesGNB8tUJ925lfPOQlKagA1k0PPBgeAt/IZHySV9b0+4LZy/vYHE/SkTez6aJAWdMysKxCgiz+R3XvflkqL/4TZy/vDqnsRhLAjLbmV8DMD6bT4g901AQAuN0CqyyXy5VUHQKdBGAvUoo/qnXgBwKPvqdkAFGiUFPorSHmiQBa7Y4FQG8i3B2LZ63NL2/8bap/9maQV9E8NlDeVEcCL4Nwjt3x7KUyYwAmp2Kjn30R8W53gnCiKv3oxkbEd2z4gpmVTUNNZHRdf3jvhEOlMPPxqj3MxEkA9lJTPGQJgNcVWhyLjIwShfoJQVXx0FcJdBFAO+2OZS9HMeg+ZHjWB8qaZqdih8auUFLCIq+8aWKgrGkZsXwVgN/umL6Gwf/csWXLlZVTvVG7Y1FJoLTxZIB/pcyAGa1NC0FEDybT9rTZBIPBmwEovTrKzEl1rO4kAPtALJUN3uiAiyZVNFrdJ91yqoq8QSnlWABb7Y5lH3qCcINhyOZAefi5/FnhHyLJflnNZPLs5uMCFeE7VvQPryWgJoGe+Dtgnjm/MPsnqVrwty/sEn8jQNmsi/b17yG2bd0XhmGoHIKWDEgASosfhRB2zkQ4bNL2C/BgBMobF6qcZEbgJVWF2bmpeo1pXyaVh08R4JcAJOpT90cEmkNuenretCFf2B2MagrmznUZWwdfLJl+DuASAG67YzoAEqDbUvqe/z7klzVeykTKrq8yS+xYdB/iOzbcrOv6X1X5JAlC07TlAM5QpB+Px+P9li1btkuRvuk4CcB+TJrZeJYQ9DYUfjbE+FFVcfZzqvQTifyy9/sxGdVIoK3lb0IGmN9iornS7X5hwbTTEmnnoksUzJ3rim0aPIaFuJyAKQAPsDumg0NtkPyTVO3wtz8Fc8MZsa3cDMbJqjzaP30Hu/QnNkopT0nn7X8A8Pl8PyZSd8sCQK2u6+cr1DcdJwE4APnl4XkMVjl05pMdW7aclg7bmwBwzZNrs7a3tTxJjCvsjqUTxAG8BdAidmHR/F94m+0O6HApmL28TyyaNZZcuJgZlwA4zu6YOsFmQSJvXuGQpXYHYhWB8nAxwDNV6bM0sH3h72Hs3vRzXdefUOWTDOTm5mbFYrHVAJRNFCWiK4PB4L9V6asgEbcAbceg+B2CXZcC8Ciy+P7Rx/S/CMBCRfoJxVPXDoqA+cq88qZGInGv9VPjDgs3gAsAvoAM/DlQ1vQZCSwGEDSY9Joi70d2B7g/BeXhnlGi0cSsATg/FmcNAm5OmkMmahBMU+YVpd5Uv0PCPF3lI1j7x0EYuzeFBw4c+KQ6l+QgFosVQ+HiD+BDt9tdqVBfCc4OwEEIlDfNBFCszIDxeHVx9jRl+glKoLxxHED/gvVz402BgS8FqB6EFVLKRpJYNeKr7LVWNXkqmL28T9ToNoykzCbCcAbOBsTwBE+qDgH9o2/37kWpfs1vf6Y81nyqYcgPVelzrA1fLfgduH3PxGAw+KIqn2QgJyfnaCHERwCOUmgzRdf1eQr1leDsABwEjxG9N+bK/AnAahrJEJ+lRDfBqS4aujgw6/2zIOMvKGt5qhACvsPgfDDyiQhwASsGhFsC5eFPiHmtJFpHzGuZ+AshxBbEeBvB2NaG7rsW3XjqQYuDxpeuyXRnyl5kRPoRi34A9RPMA5joJBCdBOZBBBoUi/PxBAaI9mnknjSP+vvSDqIbqwu9aVmZbhhS6e9/a/MrkJHdtbqup/XiDwBEdCfULv56Mi7+gJMAHJTKG8/ckl8efoA7BleYDoMGqtBNBqqnD153zZNrte0tLX8mQiGSfyeqB8BDmTC0Y3EGCASWDLgAhguZaEegvOnr17cA+Ppuex8AAmjfO7vs/z/IM+39WPbu5XNyLvQHYo2UfGXNjOzldgdiF0R0HCs6ozFat6Nt9WsM4A4lBknE6NGjTyIidTu5AIQQVnQZVILTB+CQyPl2R5CqPHXtoMj84uxiQTwRwGa747GYHuh4IjkKafc7SHM8oDNrZgxN28UfAJjVJb2xL1eDjVidrutpU1B5MFwu130AMhVazKurq9MV6islzb58Dg9mukuVNoG2qNJOJuYVDl0oYzwMQFKN0XQ4TBhfQeKy6iLv9ZVF3j12h2M3RKzsqmnm986Gq9cxvnPPPTdR+29YwpgxY86E2vHVMSJK6l0WJwE4CIGKVSNB6q6tMeQqVdrJRs1NQzdVF3ovYdAvEqiFsINJEKMm7ooPS5f7/Z2BmVaq0iaXGz2GB9yGYSg5vkwWpJQPQO0a93gwGFRWyGkFTgJwMKR4CCo/HxIvKdNORoh4fpF3tpSuIQBX2x2OQ9dh4EsimlpVnJ334vQRG+yOJ5GoLhyykkDKPpPM754Jd79Bk30+X44qj0TG5/OdDeBChRa7mflehfqW4CQAByCvrHkCCD9U50BbMiI7q9TpJy81M07fWF00NB8SlwFI+fa8KQoD9I84ySFVhd6kuxttCUTMkOqa8xCh5xlTiIgeVuaRwBDRlYr1HwqFQklfu+QkAPtRMHeui8h4UKUHE/+l8hZfWrfl/DaqZ2S/0G5kns5ED4OR0tPgUox3GOyvLvJet7Bw2Ha7g0lkPJmiFGBlR16eY05F5gkjNL/fr7KraaKisiXvxra2tkcU6luGkwDsR3TzkGsBylalT6AN0hVR1v4zlVh046m75hd6b5NEXgDOk2Ri8wWIpnkGNOfMLxoasjuYZKDyeu9XAP1RpUePEZPBoAdyc3PT7cr36Qq1725oaGhVqG8ZTgKwDxNnL+8uiEqUmhD/dsG0s1Lih8cqaoq8H1UXZU9lEhcC/K7d8Tj8D3sYdL8H9IPqQu/jlVOnGnYHlEz07d6jFMzrVem7eh+LrJP9P4hGoz9X5ZFojB8/PhPqrv5FIpFIUvX7PxROArAPrljWLQw+XpU+AauGb/aqnEaV0swvHPJaddHQkU4ikBC0g/G4B3Tq/CLvXc7VviNjbwvk36r06DFsEkRG99+PGjWqt0qfRGHRokVRQNmxYVa3bt2uUaRtOU4CsJeC0ncHgHCrSg8pcZtVPeNTmfmFQ14bsSX7bGL8CMD7dseTTjAQAfNM4RaDqouzp1UWeb+0O6ZkZ8TW7H8CWKFKX2T1QvfTxw5wu92/UuWRYDAzKxssxcx35ubmZqnStxInAdhLVGTcA0BZhkzAm/NnZL+iSj/dKCkhWVWc/dyILd5sBiYB/JrdMaU2tJNBpYaIn1JdPPTGedOGODc0TKKkhKQEblHp0W3whRDd+/56zJgxyTAaussQkcrufMfH4/GUGOSW7D3YTWFKxarvG1K8D0KGIgspWJw9r3iIs22tkMllzWdKwTeB+Udw5lyYBK0F5N9aW+UTi28d3mJ3NKlMoKLpZTAuUqXftmYJdr/97OOhUCglFq9D4ff7L2Zmld1Fv4xEIicnezGgswMAwGDxsMLFHwQ86yz+6plXPOTd6kLv1VK6v8eE33QsXg6HDxkAv0ZEU3ds2fyD6qKhf3MWf/VI8G0AlB0RdjtlDNx9B143evTowao8EoVgMLgYgLJuiwC+k5WVlfSJVNrvAOSXrcphEjoUfRYMRFwsTp9XPETZmZTDgSkpYbHimOaLwHw9gIkAPHbHlOB8CGCOjPHTNTcN3WR3MOlIoKzpKRB+qko/+vkK7Fwyq0bX9TxVHolCTk7ORUKIlxVafOrxeE6pra2NK/RQStonAHkVTUFiaAotHqouyk7acZGpwiUVq45ys5hIhIK926xOMtDBegZVCaCyqnCIDqKUmTmcjFw6a8XxbsO1BkTdVHnseP0RRL9cfUEoFHpDlUeioGnaQgATFFpcoev6fxTqKyWtE4C8ssZ8IpqnzIDxVUzIU5yOaIlFQem7A+JuzxQGBZhxHgEpUdHbeegDMC8UQlTOmz54mbPoJxb5ZU0PMEHZQ0Ns6yfY+drDbwfr6kYDSOl/+5ycnNOFEKugLuFfruv62Yq0lZO2CUBuyZvuvgMGrAKg7DyMgVvmF2U/qkrfoesUPBLqFs3qqwkpxzLRWIBH2h2T+VAbIHUmek0w11QVDXWuTiYwBbOX94nFMj8GUT9VHruCj6P9s4Z7I5HIIw0NDSk9gVPTtFIAM1TpSym1+vr6pOx+mbYJQH5FUxEzyhRarGs3Mk9fdOOp7Qo9HExm0szVA0nERwqGJgX8xDgHSXdcQDsB+Q4AnckVPKpbt+DehjMOSUKgrOkmEJQ9PBh7tmL7wnvARnwPgGcBlOm6HlblZyfnnHNOP4/H8yGAoxVZzNV1/XJF2kpJywRg0pzVvUQkvgbAsao8mOiq+YXef6nSd7CG8aVremeK6NlMPEwwD2USwxjsTaBjg09BaITkRiasZJIragqHf2B3UA5do2BuOCO6Wa4mokGqPPY0/AdtH/y3DIC541jormAwqLJ63hb8fv8vmfmviuSjQogT6urqtijSV0ZaJgCB8qZ7AfxOnQM1VBcOOds5W01NCubOdcU3Dz2ZhTwZUp7EQgwi5pMAnATgOID6AWxGEZcEaBuDtxHhU2JeB4h1EnItWKzL8LStrpx2Vkpv36YzeeWNlxPoOVX6sn0Pvqq5Cxz7n8GkEsAzzHx7Koy7/ZqRI0d6srKyPkTH76gKbtZ1XVWCoYy0SwAmzVw9UIj4hwB6qPIgQRdUTfemfIWtw8GZOHt5dxHP7EcQ/ZioPwAINnqDhAuSXSyoNxhRInTcr2fslkRxsNHKJLexK2vbght+sM1JItMYZgqUh5eCcI4qi9bwIrSsrD7QH+0gopLjjjuurLKyMiUGPPl8vhlEVKpIvknX9aGKtJWRdglAfkXT35lxvSp9Bi2cX+S9VJW+g4ND+jCprPlcQfItVfpsxPDVgt9Bth70otIy1bXC8wAAIABJREFUZr4qFAp9rCoGqxg5cmT3rKysdQAGKLI4W9f15Yq0lZBWnQDzyxsHM+MadQ5kCEG/Uafv4OCQTtQUD1kCYIEqfXJ50GPYpEO9ZBQRLdc0baqqGKyioaGhlZnLVekz87WqtFWRVgkAg+6D2h7xT1dNH9KkUN/BwSHNYBf9pqM9sxqyBuXA1euQ9dB9AfzH5/PNzs3NTeoZG8w8E4CS0dVENKWgoMClQlsVaZMATCoPnwIgoNCiNS5idyvUd3BwSEPm/8LbzOB/KDMgQrfTL+jEy+iGeDz+4siRI/soi0Ux9fX1XwF4UpH8sRs2bFDZVdZ00iYBcAGXQeXfl/DIi9NHbFCm7+DgkLYIYdwFZiVPrgCQeeJIEH371yMzX5SVlfVmbm5uf1WxqMYwjEcAKNlREUJMUaGrirRJACTgV6dOW9rjmQ+r03dwcEhnqqYP38ygR1Tpi8yecPU6prMvPyMejy/RNG2gqnhUsnTp0nUA3lShzcxTkETF9WmTAAB8siplAr+16MZTd6nSd3BwcHARXlSq36vzxfHMPBjA68m6E0BEzyiSPj4nJydHkbbppE0CQKBMVdoMXJZX3lSoSt/BwSG9yS97v58E/qnURBx2x+vTY7HYS+PGjVPWU0UV3bt3nwdFxYBCiCWapgX9fv/tfr8/oWeLJM1WRVfJL29aycAwhRZxgC+pLhq6WKGHg4NDmjG+dE1mhrv9dcVjy7HzzVJEvziicQALBg4cmJ9sDYM0TXsawNUWWH0M4CUp5cLMzMy3amtrE2YuR9rsADBjjWILNyDmTiwLexX7ODg4pAvMlOGKzFG9+ANAfNeXR/rWiRs2bCgxMRRLkFKqOgbYn5MBzBBCvByLxbZqmjZf07Rp55577nct8j8oabMDkFfeVEiAsiYQ+7BOxnh0zU1DN1ng5eDgkMIEyhtLALpHtY9s2YZt8+/skgSAS3VdX2RSSFYgNE1bB8DOhXgVgIXM/K9QKGR5D5m02QEQwnieASu2Xk4iD6qveXJtokyLc3BwSELyy8NXAWRJb5HI2qVdlRAA/i/JbgZIAC/YHMMwAHcQUaOmaYtzcnIsnSeQNglA1fThmwl4wgovAo3e0dr6FJjTZofFwcHBPCbPbNIYPAcW7NJyrA1tH9aaIdUPwCwzhKyCiF6xO4Z9uFAI8Y6madOsMkybBAAAPO7IXQA+t8aNLw/MCt9rjZeDg0OqEChtPFkKVANQdnNpX1pWVEFGTLvFPEnTtMvNElNNW1vbElizM9xZMgE85vf7f2WFWVolAJXTztopSBSAEbXEkHFXoDxsyT+kg4ND8jNp5uqBcNFiAJbcr2//fAXaPlpituzfRo0a1dtsURU0NDS0AgjaHcf+MPNDOTk5F6n2SasEAADmFQ5ZSoLusM6RH84vb/q5dX4ODg7JyMTZH/QXFH8VwPet8DN2b8aepU8BzGZLH+vxeG4zW1QhiXQM8DVCCPF4bm6u0lqytEsAAKCq0PsIgEqL7IhBs/LLmq6wyM/BwSHJGF+6prcrHn8ZhCGWGBpR7Kp7DDLapkSemW8eNWrUCUrETUYIkai9W06Mx+PXqTRIywQAADygn4HRbI0bu5jwTH5Z46XW+Dk4OCQLE2cv757liiwA2LKucbve/ifiO5TOLuvu8Xi6dK/QKurq6hoBbLQ7jgPBzNeq1E/bBKCyyLtHCmMygN0WWXqYxNxJ5U3nW+Tn4OCQ4BTMDWe44lnPM+hcqzyjG5tWtK9davq+//4w8zVjxozp/IAB+2AAidq/4Ay/33+UKvG0TQAAoKZw+AcApqHjB8ACuJsA5ueVhUdZ4+fg4JCo5Ja86Y5t4bkAxlvnSvU9hg8dRUQ/hvrq926GYSTFjBQies7uGA6CYOYRqsSde+oAAmWNfwRZWRiI7WTg/Kobs1da6NlpAo++1xcZ7nOI8H0J6gPQZsFY06d79+VPXTsoka7MODgAACbOXDnIReJs2b77ZNm2qy+3795ptG5vePkvN7yKjoYvCUVJCYsV/cP/B8KVFtqu94DOqSzyfgkAOTk5FwkhagBkKPTc5PF4TqitrY0r9DAD0jTtbQBn2R3I/hDRdcFg8B9KtFWIJhslJSxWDGh6AaCAhbZbQfLi6sJhDRZ6HpJJ5U3nC+BWAGMBHGg02B5irgTcD1QVD/7Q4vAcHP6HG2Yv92yKZ/0cRuyX5PL84ECvMVq/4ujnK5vbP17yh9oXK+fCst2+g5Nb8qa7b/8BT1u8+LdIQWNqpnvf2/c/+v3+Amb+NwCXKmNmvjQUCi1UpW8WPp/vbCLSceDvPjv5g67rSjpCOgnAXgrKwz1jxEEwhlvnSjsJuLSqyGvrPdRAeXgEgIcAvrCTb4kBVOFxt91TOe2snSpjc3A4EHllzRPA8VIS4uTOvJ7b96Dtgzc+b19bd8NbixfZdt47vnRNZqar/T8A8iy0lQQuqCoaOu9Af+j3+29g5tkK/f+j63pS3ILy+XzTiajC7jj241ld13+iQthJAPZh0szVA4WIvwPAyn7WrSwxef6MbMvvok4uXXmCFK7fgeg6gI/kCWAbwH8YsSV7ZkkJJdw2q0PqkVfe+F0icT+Yj+gLUbZ8hdYP32hs/aj26lBt7Qqz4zsUE2cv7+6KZ1UBGGelL4Hvqioaev+hXqNp2hMAVF05a+vRo8eAxYsXtyjSNxW/31/IzH8D4LY7lr3U6bqupEjUSQD2I79sVQ6TeBMWteEEADCiYFxZPSPbksEUBeXhnjHIXwPiNoC7mSC5nJmK5xd7l5mg5eDwDQoeCXWLZfa6nSXfQUJ0+cw6/tWnaFv92sux9Q03LFmyZL0ZMR6KgtnL+0SNrIVWjPXdj8rqQu/lIDrk0ce4ceN6tLS0NAE4SUUQyXIM8DWapo1Gx1wDZQV4h8FHuq6fqkLYSQAOQKC86UcA/glrP584iK+tLhz6rCqD8aVrMjNc7YUE/BYdgztMhAwwzxEeUTJv2pAvzNV2SFuYKVARvgIsHwIJ0xvLRDc0Gq0fvv7k7rXv/bqhoUHJcVZB6bsDYi7PywCdqUL/YDBBP6pbj7GdLdzVNG0SgPmKwinTdX2GIm1VCL/fP4GZr0bHTY2eNsWxR9f1XiqEnQTgIHT08Oc/W2zLxHxTVfHQUnNVmfJnNV/G4D+B0akz0y7QSoyZbk/kT059gENXyKtoHkssHwJwhkofZonoZw3tratfvX/rxysfDIfDps0KKSgPfycGLAbY0jGvYDR7smhM5fXerw7nbZqm1QHwK4joA13XT1egawlerzfjqKOOOpeZJwC4BMABi05V0aNHj54qjlCcBOAQBMqa/gLCLRbbMoDfVBdlP2SG2N7K/odg/fWWrQDf5xkgZlVO9VozfMkhJZg0K3wGSfkQgcZaamxE0frBm9sjHy25ackr8/8PXbwxEChtPBku8SrAg0yKsLN8brhJWzDN+9nhvlHTtAsBqGiNy0TULxgMblegbTk5OTmnuFyuS5j5EgDnQvGRMRGdHAwGPzFd12zBVKLjemD4WQA/stqbQY/t3LJ5Rm3J+Ud0f3ZiWdgrCA8S+BKzYzs8aC0T/nCsq+3Zx6edFbM3FodEJu+x8BAY8m4AUwlk23eTjOxC2+rX1rV++NbP9Ldef/NINCbPbNL2jvS1ZKrfPuwgIcZUTR/SdITvJ03TVkPBE66Ucmx9ff3rZuvaTW5ubk/DMMYy84S9OwTHm+3BzOeEQqF3zNZ1EoBv4YbZyz2b41kvwuLK3Q7oVUSjU6tvPmNHZ98xaebqgYLi94DwMyROFSsAfArwo32795ztNBNy2Je8mauGkqDbwHQlKHG6kxq7N6HtgzeW7/5oyU+X1dV1em5IfkW4gBlPm1Rg23kYUYAmVBd7u7TIapp2B4A/mhTVf2Hm20OhkCk7m4lKTk7O8UKIz83WVZU8OQlAJxhfuqZ3pqu9ForPIg8EAWEWrkurpw9ed6jXTZqzupdoj98Gxi0AulsT3RHxOYge8kR2PlF5i0/NKDKHpGByedPZhpT3kBATkMDfRbGtH6M1/MrL8S8af1ZXV3fwAldmClQ03QPQ3bD870MGJF9uxk2i0aNHD3a5XKYPSiOiJ4PB4M/M1k0k9t6m2GO2rhAiv66urtps3YT9pUs0CkrfHRATGbWWjev8XzYLEnnzCocs3f8Pbpi93LPFyLqBGXcDOMaG2I6UTURUAYo/VjV9+Ga7g3GwhpISFiv7N01g8K9AItfueDoNM9o/Xxlv/6h2ltz60Z21tbX/8yXfccMmModAV9kQnQTouuoi71NmCfr9/vXMbPatizd0Xb/AZM2EQ9O0GEzefSWinwaDwWfM1ATSfBjQ4VB545lbyGWcz8BqG+yPkSxr88vD//PlklfRPHZLPOs9ZpQhuRZ/ADiWmX/Phmt9oCL8zKSKxmF2B+SgjmueXJuVV9509YqjV65mogVJtfgDABEyvzvC3eu8GTOyzrxy0/mTfnxrbm6uGwAKnggfnemKvmLT4s8MzDBz8d/LNx42TOBEBZqJiIrbT841wEQgr7zxuwRaAkUNM74FBuNuwXhTCnoY4BwbYlDJ65KodNfmzS8dafGjQ2IxcebKQW5yTWPIQpBQ8iVmBxxrQ2RN7ZZ4y64Hep1zeaEF12sPHAdwy/yi7EfN1tU07W4AvzdZNqLrurV1ETagadpnAL5rsuwtuq6b/u/sJABHwMTZ4RNdcV4C4Ht2x5KifEGMZwyiJ2qKvB/ZHYzD4TG+dE1mljs6SRqx64jcFyZSYV8q0ZkWv0eK3++/mpmfNlvX4/F4kmAyYJfQNO0TAKZe/VRVQJlIVeJJw4Jp3s8mVay8iNhVS8B37I4nBTmOCbcL8G355U21kuiJo7p1n+fcHkhs8mauGgqi68Et1zC7e5Nwvl5UwaD7q4uylSz+e1FSl9PW1tYdwC4V2gmEir4nSiYUOr+hR0hN4fAPJlWszBXsfp3Bpt/7dAAAEAPnE/P5O1pbWgPlTQsZ+L+MAfSK01woMejYDZP5HG+/hoTo6JtOzteKSojxYHWx9y7FNqZXsgNAt27d0iEBUNHvRMkvlfOb2gVqCod/EJj1vh/SeB3A9+2OJ8XpDqCAgILYFt4eqAi/yMyVO7dsWeTUC1jLpbNWHO+WrsukEb1axPkMgIjcWXaHlSZQSVWx1+yz+W8gpRSkoBdTNBp1poYmEE4C0EWqpw9eN3F2+HxXnF8HcIrd8aQJR4H5JwT8pO+AAdsC5U1vMPBihjsy35k/oIaOzpLGRI5HryDpGgYQCZd1AzMdwET066pC7yNWmAkhejN3qRPyAWHm3aaLJh6mb9cTkZIuqk4CYAILpnk/u3TWilyXdL9GQNIOvEhS+uHrnYFYVjRQ3rgEwIuS5Ms1hcM/sDu4ZGXSnNW9KBLPJSMeADgPxP0AAedJ3xYkERdVFWY/ZpUhM5s8LRQAEK+vr0+H5l+mJwDMrGSX00kATOLF6SM25M9aeR6zazEYw+2OJy0hZKBjgMxYwS4Eyps2AVgCotcMCX1BsTdsd4iJysTZy7sLo7uPZPQ8bm8bT23RESDhgsv5irAXMpjw8+rC7CctNlYx7S4dnv5BRBlm7544OwBJQNX04ZsLngj/MNbOCwD47I7HAccCKABzgYuAQFnTZyB6DUQLdmze9GK61w5Meaz5VGkYUxl0MUflaBLSDXKDslLmun5Sw0CEJP94vgntfY+AwQo0Oz3TJJlhZtNbsRORkqJn536uyVRe7/3K075rLID5dsfisB+EEwH+GVhW9R0wYE1eeePldodkB5NLV54QKG/8j2HI1Qy6D4CfhHNnL8HYIUhebEZv/yOAAPgV6KZDTw8C0FuBrpLdEycBUEDlLb42z4DmKWA8bncsXYLRjNRNZE4i0HOBivAz40vXpE01W6C8cZx0uRoBmooU/P2XbTsQWbcMzNL8CjaLINAGlvLcqsJhb9nh7/f7hwEYoEA65WtycnNze0DBzjoRKbk6mXJfAIlC5dSpRnVx9jSASuyO5Qj4goAbdmzdMry6KDsgJPwMVtEb3H6Yf5Lpbn/+htnLlTTaSCQCFeHxYFoAoK/dsZgNx9vR2rgAXy24593doX/8kAUPli3bku9nltEcd8M3f8awRhujKFCkm/IJQDweP1qFrmEYShIApxWwBQTKw9cA/Hckfs1FCzHKjG7u+2uuO/0bW0555U0TifCoXX3PVcLAA/OLsu+wOw5VTJy5cpBLuFZAzfakbTBLRD99B3tWVH3GbTt+EwwGnwPw36f/vL+95+Po7qdE96NPtTHMzrLMcHsuXTDttK02xiA0TfsYamadjNN1/VUFurYyatSoY10u13ghxCUALmTmPgpsztZ1fbnZok4CYBEdT1/4N6Dkh6OrxED0hIzK39fcNHTToV5YMDecEduKaWC+A8BxFsVnBVISn1FTOHSV3YGoIK+8aREBF9sdh1kwS0TXv4vWpoU74js23tu7d++KRYsWtR/kxTTpL0uvZEKpK6uXkic0E/i3p33XdZW3+Gy9Jqdp2mQAKuoODI/H07+2tjYVCgFJ07SRACYAuBTASCjeTTcMY9DSpUvXma3rJAAWkvdYeAhJrkmkJ2gCVRkUv+Nw78wXPBLqFsvsUwjgdoBVnBdaDgHPVxVlq9r+tI3ArPA5kLzM7jhMgRntG1aipfHFXfGvPnukvb39rw0NDZ1q/nTD7OWeL3buuZUye/5OuLMSpaEBg3F3dZH3fhDZXbdAPp9vORGdqUD7HV3Xz1GgawmapvVi5nEAJhDRBFg8A0ZK2V1FDwUnAbCY/LL3+zHJFwA+z95IqF5IvnXejGy9KyoF5eGeMcIMMN8CoL9JwdkDI+rJouMqr/d+ZXcoZhIobyoHUGh3HF2CGe0bm9Da9OKu+LZ1f4lEIn/r7MK/P+NL1/QWrZ8/5Olx1PUQbpfZoR4GLZD4qU2V/t/A7/f/hJmfUaHNzA+GQqHfqNBWxciRIz3dunW7gpl/DCAXQIZNoezSdV3JzrGTANhAbsmb7j79B/yVCEU22H9IRHdVTR/yvJlPHOMeXtmje3dxPUC/gvmzsC2DQD+uKvL+0+44TIOZAhXhzwCcYHcoRwKzROyLMNqaXtoV3frJnyORSOmRLvz7M2nm6oHc8sVjrl79LwUUNL4/BATaYEgZqJkx1PRz3SPB7/cfxczvo6N3hukw80WhUGixCm0V+Hy+cURUAdi/W8vMa0KhkIrGTE4CYCeB8sZfAvRnWFMcuJkI9w5wRR5/fNpZSrpKAR01AtGtuIoYtwN8miofhfy7uij7SruDMIv80qbh7MIKu+M4bGQckU9CaH3/tY3G7k2PxuPxx5ctW6akEjpv5qqhHNn+tOje7wwV+vsjI7s+yszqM6ayyPulFX6dgDRNex7AZCXiRDvdbvd3amtrk2Kct6ZpdwK4DwmyPjLzW6FQKFeFdkL8BdOZ/IpV50kWz5G6M6VWEB6Rme6HDlTZr4qSEhYr+zdPBPEvGTjfKt8uw/jKc0zzMZVTpxp2h2IGeWWNdxKRyrnxpiIju9G25i1EP9FXGq3bH3S73ZW1tbWWdGyc9Nd3LkQ8Okd066NsByuy5i3seXfubmLpr6urS4iCU03TbgagcsjQE7qu/1yhvmn4fL7biOhBu+PYj6d1Xb9GhbCTACQA+bNWHsPS9S8AF5goKwG8IFjcOq94yKcm6h42kypWnkbsLiTw9egY65vQCAl/V2sjEoVAeZOOJGhLHd++Hm1r3uLop++8BCP6cF1dnS1NcMBMgUdCP5WgMpHVu4dpskYMe975FyKfhL7+T5+5XK7cJUuWrDXL40jw+/0FzPwcFFaxM/N5oVBoiSp9s/D5fOcS0ZtIsP44RPT7YDBYokRbhajD4ZNb8qa7b/8BD4JwM7r478KghZJxe6INv5k4+4P+wohdR4zrkcijk5n/VF089E67w+gqewtONwFsZ6HbwZFxtK9/D5FP9O3RL96fTUR/DwaDn9gdFgCMuShwTtZ3RyzrNmQ8RGbX8gBj9ybsqpuN+I4N+//RRnTcjbfl93Tvlb9/AVDZCXOdruvfxz69GRIUoWnaSgDZdgeyP8x8bSgUekqFtpMAJBiTKsKTBPPTOLJubcslcFtNUfabZsdlNoGKVSMhxQ0g/BiJtitAWFldmD3C7jC6Sl5F+EpiTriCRmPXJrR9EuLIJ/VBtO+auX379vnhcFjJsJOuoGlakDK6az2GXIys034Ich1+s8johlXYFfoHOHbQG1zbpJQT6uvr3+5SsIeJpmnFAP4KQHVyeKeu639S7NFlfD7fJUT0ot1xHAiVOyhOApCATHms+VTDkHMAjOncO2gtMd9ZVeT9TwLcJT4sJs7+oL8rHr0KED8BeKTd8eyFhWGcOO/G4Z/bHUhXyCtvfJZAV9kdBwBwtBWRzxrQvrYesS0fz5dS/rq+vj6hh8NomnY5gOcAwNWjH7oPy0PmSWeD6Nt3iDkWQcvKKrSteQv49tGwbQBu0XX9sS4H/S1omtYLwGMArCh03RGJRE4y69aGSjRNexrA1XbHcQBkPB4/SlUBrJMAJCrMFJj1fh7YKALoPAD7P35IgJYR8Wx3f/p35VRvwj1BHS755Y2DJcRVBL4KalqRdhoG/WJ+kXe2nTF0hYK5c12xLUM2AehnWxAyjujGJkTWLkX7hkZA/reW7yld16+1La7OIzRNawQw5Ov/4OozEN1PH4uME4ZDZPb8xhuMlm1oX/c22j54AzJy2N/Zi10uV/GSJUvWdC3sA+P3+/OZ+a8ATlShfwD+oOv63RZ5dQWhadoXAI6xO5ADUK/rurIaHicBSALGl67pneGKZAsSxwOAIWlTZhY3pVrDmv/CTPkVzRoDl4E5v2OMr7UQo6aqODvPal+zmDyzSZMCQat92Ygjtul9tK9/D+3r3wNHWw/0so26rp+AxD8XhqZpUwH85xt/QAR3n4Fw9RwACBdgRBHftQnG7s1dtWxn5jlut/uBJUuWrO+qGABomnY+gLvR0czGKvbEYrGT3n777W0Weh4RY8aMOVNK2WB3HAfh57quP6FK3EkAHBKeiWVhr4tkwd4RtoMtsm3p271H/6euHZQUd5f3J78ifD8zW1LIyEYMsU2rEfl0OWIbVkJGv71jqZRyWH19vZ0T7zqL0DRtOQBLegTsQ5yZXxRCPNPW1vZKQ0PDATOpg6Fp2kAAU9GxrW117CCi3wWDwfus9j0SNE27A8Af7Y5jf5h5TXt7u7ehoUFZ35ZEn07n4IC9txnCAEqmVKz6vgHXWIAngnEh1FUw99jRuudcAEnTvWxfGHyJSn3Zsg3RL5oR/fJ9RL8Ig2OHlye5XK5xAJIhAZBSymIhRBDWPjC5iSjAzIGsrKw2TdOWAqhn5vddLtdaZt4CIIKO7/BeAAYA+AGAbGY+D/scW1gNM6/p3bv3w3b5HwHj7A7gAMSJ6DqViz/g7AA4JDEdcwhoLFjeCeBss/UZVDq/yPtLs3VVM7l05QnS5foMCn6/W1bMQ/TzlYjv6nITu8W6rl9kRkxWoGnaEwCuszuOZCCZ2v7m5ub2jMVi22Bfn/8Dwcw8LRQK/V21UUI1PHBwOBwqi7x7qguHVIO4VIU+gS9Voasa6XZPgILFP75jA1qbXzFj8QeAMTk5Od3MELICj8fzGwBf2B1HEjA3WRZ/AIjH4+cjsRb/Pcx8pRWLP+AkAA4pgCdDvASQita9388ve1/JEA6lME9QIRvdaOqOfTcA55opqJLa2tqtzHwNkqBw0UY+lVJOtzuIw4GZE2UXSgKYS0TDQ6HQc1aZOgmAQ9Kz9zaEkkYqkgylZ+lmM750TSaAH6rQjm4w98ieiKaaKqiYUCi0mJlV9sxPZmIArqivr0+am0m5ubluAFNsDMEAECSiO4hokK7rl1vdCdMpAnRIDZhfAiHHbFkCLgHwqNm6qsh0Rc4DqJfZuhxtRWyrud9NRHTZyJEjZxxuhbud7Ny5886+ffuejSTavbACIrojGAwutTuOwyEWi10IdUPYDsZWAK8Q0ULDMF6xO2FydgAcUgLpooVKhBljJs1ZbfqCqg6hZPu//YswwNJs2d7dunULmC2qknA4HPV4PFMAJMTMggTh2WAwmHQ7I0RkRec/ZuZ3907kzBk4cOB3dF3/cTAY/Lfdiz/g7AA4pAg1vxiyIr+ieQODjzdVmJBBbbGxAKpM1VWGmvP/+OYP1wMwfUwuM/8EHQNpkoba2tqtY8aMmSilrANwtN3x2MzLkUjkZ0iy2ohRo0b1ZmZVjb52A3gVwEsAFoVCoY2KfLqMswPgkBoQMYgXqZEWSVEHsLdg8VQF0jK66cNvdsMzhwvHjBlznCJtZdTV1TVLKccC2G53LDbyjsfjKVB9V10Fbrd7KjoKUU1HCJGr6/oUXdfn6LqesIs/4CQADimElPySGmWeAOaE75mhrmCRlsV2bHxGjTZczGzFYBrTqa+vf4+ZL0HHE1+68Y7H45lQW1u7x+5AjgRm/rEi6XV1dXXvKdI2HScBcEgZMki8CqBdgfRxk8vft7yd6uFCirb/wfxSfX19IzMrGVLDzD9DkjYlC4VC9ei4ddHlIQBJxGKPx/PD2trarXYHciT4/f4fEJGSIk5mfgFJdBziJAAOKUNlkXcPwHUqtCWkmsXVJArKwz0B6uT46MPj6wJLInpBhT6AIX6/PymbLgGAruvLXS7XaAAf2B2LBbzQu3fvScn65L+XX0NRwklEz6vQVYWTADikFAxScgzApLa3fleJslQ1F+GLml8MWbH3/6tKAMDMt6nStoIlS5as9Xg8fiJ6xe5YFBFn5rt0XZ+6aNEiFbtslpCbm/udvYWnKtig6/oyRdpKcBIAh5RCsEvJdUACnZM/a2UizgsHAAhBSnYoiLAQRAwAuq43APhYhQ8Af05OjrK551ZQW1u7NRgMTgBwDzqavKQKG5j5glAodD84AEojAAAVi0lEQVQ6OtYlLbFY7JcAshTJVyKJtv+BJD13c3A4FIHypg+hohqeEQVhKwFbmbEVhE0AtgG0lYi3suQtYGyGi3dLckkPGzsBIBalFiODo67MjHjNdad/o2DshtnLPRuMjJ4A4CFPHxfHhGTKZOLuAm4PS6M/k+jPkP0FxLEM7g+gH0D90fH/jwXQ2/S/LwBmnjy/eOh/r0D6/f67mPkPKrwAzNd1Pan6AhwMn893LoAniEjFrQzLIKKFRHRtXV3dFrtj6SqjRo3q7Xa7PwXQV4V+Eo24/i9OAuCQcgQqmh4F4ya74/gWdqPjGlLi9uJgRGU3d/99k5Zzzz33u4ZhrAXgUuAoDcPIXrp06fsKtC0nJyenmxDi9wBuRiL/Ox+Y9QBu0nV9nt2BmIWmab8GoGpM8Tu6rp+jSFsZzhGAQ+rBavoBmEwvJPqiQLxk/x2LJUuWrEdHkxMVCJfLldS1APtSX1/fpuv6bQBGECnqVGk+USJ6qEePHoNTafHPzc3NAtQ9FDDzk6q0VeIkAA4pR7uR9RbS8262ufCBFy0i+odC15/4/f7hCvUtR9f1cDAYvJSZLwAQtDueg9AGYKbL5TolGAzevnjx4ha7AzKTWCx2MwBzu4T+f9oyMjL+rUhbKU4C4JByLLrx1HYAb9gdR7JDcB3wRkWvXr1qAKg6E3al6sS9UCj0hq7rYwDkoONGRSIUCm4H8HA8Hh+k6/qNe3d4Uorc3NzvALhDlT4zP19bW7tDlb5KnATAISUhIFm2XBOVT6qKB394oD9YtGhROxFVKPT+oc/nU9Wn3XZ0XV+q6/plAE4kopuY+V2LQzAAvEZEP41EIifoun7bsmXLNlkcg2XEYrH70HHkpoqZCrWV4hQBOqQkk2auHihE/HM4P+NHCP2tush70DPTUaNGHet2u9dB0ZUqZl6zc+fO7HA4HFWhn2homuYloouZ+SIAY2D+5/oZgDeI6I1oNPrS22+/vc1k/YTE5/ONIKLlUFO0CmZ+KxQK5arQtgLny9EhZQlUNK0AI6XOk62CmMdVFQ89ZLGfz+ebQ0Q/UxUDM/8qFAql5HHAoRg/fnzmjh07hgshzgQwEsBpAE5Exxn2txWOtgP4CMBqAB8S0WrDMEL19fUfKQ06QdE07Q0A5yu0yNN1vUahvlKcBMAhZcmvCN/PzHfaHUcS0tJuZPbbW0txUHw+XzYRrYK675EdHo/n1GTtOW82BQUFro0bNx5LRFlSyt5E5CYiFkLsYuY9Uso9uq47xa978fl8eURUrUqfmdeEQqHTkcTNkRL7GpKDQxeQLBcSyEkADht+9dsWfwAIhUJNmqa9AuBiRYH0jcfjdwD4lSL9pKKystIAkNDjZROF3NxcdywWe0CxzaNI4sUfcIoAHVKYjAHvLwOQFmedZkKHN0/hd1DY/pSZp+Xm5vZUpe+QmkSj0UsAnK7QYn2fPn1UXoe1BCcBcEhZKqdONcBI1eEsqmAyjE43UtJ1fTmRmgFMe+kRj8fHK9R3SEGI6DLFFvcn81Ckr3ESAIfUhvCi3SEkGSvm3Tj888N8zz1QuwuQo0rbIWVROVhq3Y4dO5Ky89/+OAmAQ0rT2mrUwOkK2GmI6NnDfU8wGGxg5vkq4tnLSQq1HVIPAeC7CvXvS5XrqU4C4JDSLL51eAsBT9gdR5Kww52Bp47kjUIIleeh3RRqO6QYXq/XDcCjSD4ipfyXIm3LcRIAh5THnUn3MfCl3XEkPlxSeb33qyN6J/N0s6P5GiJKyjarDvaw9+k8okg+y+VyKet9YTVOAuCQ8lRe7/1KCLoKjJTYtlMDV1cXZpceyTtzcnIuAKCsUE9KuVqVtkNqwszNCrXv1jRNZWthy3ASAIe0oGq69w0IcTmrezJIYvilvt17/ghER1LIJ4QQD5oe0j64XK7XVOo7pB5E9LpC+WOYOSXGVjsJgEPaUF04pJpAOQA12h1LIsBABIzfjdiSPfGpawcdUWLk8/muREe7WlV8XFdXV69Q3yEFEUI8C4U3U4joFk3TBqrStwonAXBIK6qLvCs8A8JngPlqdMxmT+pOXkfIJgIelW46rbo4+76SEjqizyA3NzeLiO4zO7j9eBjp+W/k0AXq6upWMbPKiaDdAdyrUN8SnFkADmnN+NI1vbM80bOkwd8H0UmAPIlAgwAMAnCcvdF1iVYC1jJhLRjrAFpHkGsNkuGawuEfmGGgadqtAB4yQ+sgfBCJRIY2NDTEFHo4pCijR48e7HK5VkFdy3uDmUeEQqEmRfrKcRIAB4eDcM2Ta7N279l9knThWGYxEOBjiMQxzDyQQQMI+A7ARwE4Ch3zxlXP1ti99387AdrMxF+AabOA3CxJbHRBbpbgL4l4fdX04ZtVBuL3+49i5o8AHK3KQwiRX1dXp2yYi0Pqo2naEwCuU6VPRAuDweClqvRV4yQADg4mUfBIqFu8W49ehnT3FmT0IXL1kUwCAAjoSWAPAEiWgkj0IXA7QK1fv18avAsuYQCAC9gTk7wbHuyWhrF7YeGw7fb8rQ6M3+//CzPfotBiqa7rPig8x3VIffae038IoIcqDynl2Pr6epVFh8pwEgAHB4fDYvTo0Se5XK7VADJVeQgh/HV1dboqfYf0we/338fMv1VosULX9ZFIwloVpwjQwcHhsBBC/BEKF38iet5Z/B3MgpkfBLBJocUIv99/hUJ9ZTgJgIODQ6fx+/0jiUjll10MgMqnNYc0Q9f13QCU3lZh5vu8Xm+GSg8VOAmAg4NDp9m7lary6HB2MBj8UKG+QxoSiURmM/MahRaD+vTpc6VCfSU4CYCDg0OnGDVq1LEA8hRa7GbmPyjUd0hT9l4lvUOlhxDi5yr1VeAkAA4ODp3C4/GMg8LvDCJ6KBQKKb2+6JC+hEKheQCUdZVk5lF+v/8oVfoqcBIABweHTiGl9CqU397W1vaIQn0HBwZwj0J9l5TydIX6puMkAA4ODp1CCHGMQvmjunXrlnRbqA7Jw8iRIz1E9CvFNip/R0zHSQAcHBw6BTMrvefMzI/4/f4ClR4OaQtlZWU9zswXKTU5somatuEkAA4ODp2CmdcrthDM/MyYMWPOU+zjkGb4/f4/ALhGtQ8zf6baw0ycBMDBwaGzLLfAI0tKWZOTk3OOBV4OaYCmabcq7gT4NS0ZGRmrLfAxDacVsIODQ6cYOXJk96ysrC/RMfhINduZ+YehUGhFV4XOPffcUw3DuIzo/7V378FxVXUcwL+/u7tpQx+JVEUcLaIoamaQIdh092zKIiNQVCxCfAHVgo/O4KgoQhUE0fFVVEQeg844KE9fCPgKxNouyT13k2rVUYIP3q3ToK00pNak2d3z84+0vqaPdPc+NpvvZybTmWT3/L4z2e755dyz98hJzrmXikgbgB0AHhORfufcd4IgeKr+yDRd3d3dplqtniUiSwAchamDtHYAeEhE+sbHx+/etGnTs/XWyefzF6nqDfWOM033WGvfElOtULABIKJpM8ZcC+DDMZXbBuBka+1wLU82xhwL4DMAzsaBVzsdgDtV9Qo2AtEyxpyMqSOkTzzIQ8dE5Ppyubx2aGhorMZa7wHwDcQ3z73OWrshplqhYANARNO2ZMmSRZlM5mHEt9t5h3Pu9FKptHG6TygUCs+dnJy8REQuBnAot2edFJGby+XyJ2uddGjf9qzCfBbAoW7y/LuIXLNgwYKv9vb27p7uk4wx7wdwE+K7zN1rrT0jplqhYQNARIckl8udLSLfR3zvH6Micrrv+0MHetCpp546b9euXR8F8DEA8+uo9zSAK6y1t2AGnvDWSPL5/HNU9ZMALsKhNWP/71ER+YTv+z/AQY6INsZcgqlVhrhen9sqlcoJQ0NDf4mpXmjYABDRIcvn819W1Y/EWHKnqq4IgmD9//+gUCikJycnV4nI1QCODLHmb0TkI77vF0Mcc1YoFArpSqXyflW9GsCiEIceBHCptXZgXz80xlwN4MoQ6x1MdU9zui7GmqFhA0BEh6xQKKTL5fJ6AN0xlp0UkVW+79+59xv5fP5NqvoFAK+OsO79IvJFNgIHt3z58jljY2PnY2oV5hURlrrPObemVCr9Efj36/FmABdGWHNfLrfWfi7mmqFhA0BENenu7j7SObcJ4f7VfTAK4DLn3IMislZEYrtngIhsdM6tDYLgHvDSwP/o7Oxsa21tXa2qH0J8r4cKgG+q6jWe512nqm+Iqe5eP7LWrsBBLkk0MjYARFQzY8xSABsAzE06S4z+rKpfamtru/VQNqY1o+7u7iNV9cOquhrAwqTzxOihSqViZvpmUTYARFQXY8y5AG7D7Hs/2SYidwG41ff9TUmHiUtHR0dLW1vbchFZCeCNqG9z30y0PZVKLenv738i6SD1mm3/YYkoAsaYzyHi89YbmYj8AcD3PM/7djNMDPtijOlQ1fNFZBVm2KE3ISoDOG2mfd5/f9gAEFEYPGPMXQDemnSQhDlV3QDgbs/zHvB9//GkA9Wqp6cnNTIyciKA5ar6dgDHJp0pYSoi7/Z9/9akg4SFDQARhaKjo6Olvb39JwBen3SWBvK4qq7zPG/d+Ph4Xxi3t41SV1fXEZlMZplz7k0i8gYAhyedqVGo6mVBEKxNOkeY2AAQUWg6Ozvb5s6d+yCA1ySdpQGVVTUQkZ+KyHd932+Ik+Oy2WzO87yzAJyBaD9OOWOp6nVBEMR1C+zYsAEgolAZY14IYADAS5PO0sDKqnpbS0vLZcVicXsSAYwxJwL4GoBsEvVnClW9KwiC89CEH/3kccBEFCpr7dZqtXoKgC1JZ2lgGRG5oFwu/z6Xy8U+ARtjLsbUXfU4+R+Aqt67e/fud6EJJ3+ADQARRWBwcPBJ59zrAGxNOkuDe4GIrDPGxHZHRWPMlQC+AiAVV80Z6uctLS3v2LRpUznpIFHhJQAiikx3d/ernXMbMHs/NjZdf1XV44Ig+FuURYwxZwK4L8oaTWK9c+6NpVJpPOkgUeIKABFFZmBg4OFqtVoAVwIO5ggAX4qyQGdn52EAbo6yRjMQkQdmw+QPsAEgoogNDg7+wTl3EoCG2PXeqETk3Gw2e0xU47e2tr4X8Z7bMBPdt2DBgjfPhskfYANARDEolUqPquoyAI8lnaWBeZ7nnR/V4M65lVGN3SS+OzEx0TObzndgA0BEsQiC4KlKpWIAzJr75tdgRRSDLlu27MUickIUYzeJG62172zmDX/7wgaAiGIzNDT013nz5p0EoDfpLA3quFwud1TYg1ar1biPyp0pVESuttZ+AE36Ub8DYQNARLHq6+vbNTo6ugLA7UlnaUQisjyCYc+IYMyZrqyqF/q+/6mkgySFDQARxW54eHjSWrtSRNYgvr+8nhGRNc65l4vI1wA06rXeUCfrQqEwF8ApYY4Zou0iskZEjtrzO6nEVPcZVT09CIJbYqrXkHgfACJKVC6XO1tEvg1gXkQlJkXk5nQ6fVWxWBzd+818Pr/YOXe5iFwAIB1R7VqMO+cWhbUT3RizHMDPwhgrRH8XkRvK5fJXhoaGxvZ+M5vNvtLzvE8D6ImqsKo+oqpnlkqlP0ZVY6ZgA0BEievu7j7BOXcPgMUhDutU9Q7P86440ME72Wz2GBH5uIicC2BOiPXrcYa1NpR9EsaY6wF8IIyxQvA0ps4fuMFau3N/D8rn8wVVXQvgtSHX781kMu/870ZwNmMDQEQNYcmSJYtaWlruUNXT6h1LVX+RSqUuHRgY+PV0n5PL5Z7ved4qVf0ggBfWm6FON+7ZmFY3Y8yjAF4Wxlh1+J2I3FitVm87hJUNyefz56jq51F/flXVtUEQfAKzcLPf/rABIKKG0dPTk9q6detVAC5HbXuUfuecu7RUKj1Qa4ZsNtuaSqXO39MIdNQ6Tp2esNbWfZri0qVLX5VKpR4OI1ANHID7ReRa3/fX1TpIR0dHS3t7+0WYek0sqmGIZwCcF9aKSjNhA0BEDSebzZ7med43MP1LAltU9cogCG5FiH/hGWOWisgFqvo2AAvDGnc6PM/rGBgYqGvyNsZcAuCakCJN1+MAvpVKpb7V398f2omQhUKhvVKpfHxPYzZ3mk9bX61WLxwcHHwyrBzNhA0AETWkQqEwv1wurwawGvtfAh4WkZuq1eotUd6+tbOz87DW1tZzVPXdAJYhnpP0LrXW1jV5G2PWAzg5pDwHslNV7xWRW6y1RQAaVaGurq4XZTKZi1V1JYDn7uMhDoDved61AwMD90WZZaZjA0BEDc8Yc6yIHKeqi0TEAdjmed5v+/v7n4g7S1dX1xHpdHoFgLMxNblG9QmCorW25sm7q6trYTqd3g4gE2Km/zYK4EcA7s5kMn3FYnEiojr71NPTkxoZGTneOfcqz/MOU1UBsDmTyfyyWCxujzPLTMUGgIioRtls9nAROU9ErouoxCSAZwGMYWrC/Sf+c/+CSUxN7nvfx+cDaMXUpYr2PV9RvMc/LSKrduzYsX54eHgygvEpJmwAiIjqZIx5CuF+hLGRfd1auzrpEFQ/3gmQiKhOqnp/0hniIiI/TToDhYMNABFR/RrtTntR2Z1OpzckHYLCwQaAiKhO8+fPXwcg1k1wSRCRYrFY/EfSOSgcbACIiOrU19e3C0B/0jmi5pzj8n8TYQNARBQCEWn6ywCqyrvpNRE2AERE4fhx0gEi9qdSqfRo0iEoPGwAiIhC4Pv+46r6SNI5osLd/82HDQARUUiaeZKsVqtNf4ljtmEDQEQUnmadJP/R3t7uJx2CwsUGgIgoJKOjow8C2Jl0jgj09fb27j74w2gmYQNARBSS4eHhSVX9RdI5ItCsKxuzGhsAIqIQich3ks4QsgkR+WHSISh8bACIiEK0cOHCewFsTjpHiG73fX9H0iEofGwAiIhC1Nvbu1tE1iSdIwwi8iyAq5LOQdFIJR2AiKjZbN68+aHFixe/BMDxSWepgwNwnrV2Y9JBKBpcASAiisDExMT7ROQHSeeoUVVVV1tree2/iXEFgIgoAiMjI27z5s13L168eBJAHkA66UzTISJ/cc6dUyqVZmrzQtPEBoCIKDq6ZcuWgaOPPvoOVZ0D4BgAc5MOtS+q+oiIfHFiYmLlxo0b/5x0HoqeJB2AiGi26OzszMyZM+d4EXmNiLxEVY/e+y+A5yH6VYJxAFtV9UkReUJVnwTwmKr+igf9zD5sAIiIGoPkcrnnAXi+qh6RSqUOd861A1iw56vV87xW59z+VhB2AqiIyJiq7hSRMQA7ReRvqroNwFZrbTPepZCIiIiIiIiIiIiIiIiIiIiIiIiIiIiIiIiIiIiIiIiIiIiIiIiIiIiIiIiIiIiIiIiIiIiIiIiIiIiIiIiIiIiIiIiIiIiIiIiIiIiIiIiIiIiIiGa7fwGo+1uVRpHZBwAAAABJRU5ErkJggg==;" vertex="1" parent="WIyWlLk6GJQsqaUBKTNV-1">
          <mxGeometry x="1060" y="425" width="60" height="60" as="geometry" />
        </mxCell>
        <mxCell id="qbzAYk6FdeuOr6aEGjq--80" style="edgeStyle=orthogonalEdgeStyle;rounded=0;orthogonalLoop=1;jettySize=auto;html=1;exitX=0.5;exitY=0.5;exitDx=0;exitDy=0;exitPerimeter=0;entryX=0;entryY=0.5;entryDx=0;entryDy=0;entryPerimeter=0;" edge="1" parent="WIyWlLk6GJQsqaUBKTNV-1" source="qbzAYk6FdeuOr6aEGjq--86" target="qbzAYk6FdeuOr6aEGjq--76">
          <mxGeometry relative="1" as="geometry" />
        </mxCell>
        <mxCell id="qbzAYk6FdeuOr6aEGjq--81" style="edgeStyle=orthogonalEdgeStyle;rounded=0;orthogonalLoop=1;jettySize=auto;html=1;entryX=0;entryY=0.5;entryDx=0;entryDy=0;" edge="1" parent="WIyWlLk6GJQsqaUBKTNV-1" source="qbzAYk6FdeuOr6aEGjq--82" target="qbzAYk6FdeuOr6aEGjq--84">
          <mxGeometry relative="1" as="geometry" />
        </mxCell>
        <mxCell id="qbzAYk6FdeuOr6aEGjq--82" value="" style="image;aspect=fixed;html=1;points=[];align=center;fontSize=12;image=img/lib/azure2/general/Module.svg;" vertex="1" parent="WIyWlLk6GJQsqaUBKTNV-1">
          <mxGeometry x="1370" y="430" width="50" height="50" as="geometry" />
        </mxCell>
        <mxCell id="qbzAYk6FdeuOr6aEGjq--83" style="edgeStyle=orthogonalEdgeStyle;rounded=0;orthogonalLoop=1;jettySize=auto;html=1;exitX=0.5;exitY=1;exitDx=0;exitDy=0;entryX=1;entryY=0.5;entryDx=0;entryDy=0;" edge="1" parent="WIyWlLk6GJQsqaUBKTNV-1" source="qbzAYk6FdeuOr6aEGjq--84" target="qbzAYk6FdeuOr6aEGjq--92">
          <mxGeometry relative="1" as="geometry" />
        </mxCell>
        <mxCell id="qbzAYk6FdeuOr6aEGjq--84" value="Verifica contraseña" style="rounded=1;whiteSpace=wrap;html=1;fontSize=12;glass=0;strokeWidth=1;shadow=0;" vertex="1" parent="WIyWlLk6GJQsqaUBKTNV-1">
          <mxGeometry x="1510" y="435.5" width="120" height="40" as="geometry" />
        </mxCell>
        <mxCell id="qbzAYk6FdeuOr6aEGjq--85" value="" style="edgeStyle=orthogonalEdgeStyle;rounded=0;orthogonalLoop=1;jettySize=auto;html=1;exitX=0.5;exitY=0.5;exitDx=0;exitDy=0;exitPerimeter=0;entryX=0;entryY=0.5;entryDx=0;entryDy=0;entryPerimeter=0;" edge="1" parent="WIyWlLk6GJQsqaUBKTNV-1" source="qbzAYk6FdeuOr6aEGjq--73" target="qbzAYk6FdeuOr6aEGjq--86">
          <mxGeometry relative="1" as="geometry">
            <mxPoint x="525" y="455" as="sourcePoint" />
            <mxPoint x="777" y="455" as="targetPoint" />
          </mxGeometry>
        </mxCell>
        <mxCell id="qbzAYk6FdeuOr6aEGjq--86" value="Introduce contraseña" style="rounded=1;whiteSpace=wrap;html=1;fontSize=12;glass=0;strokeWidth=1;shadow=0;" vertex="1" parent="WIyWlLk6GJQsqaUBKTNV-1">
          <mxGeometry x="600" y="435" width="120" height="40" as="geometry" />
        </mxCell>
        <mxCell id="qbzAYk6FdeuOr6aEGjq--87" value="" style="edgeStyle=orthogonalEdgeStyle;rounded=0;orthogonalLoop=1;jettySize=auto;html=1;exitX=1;exitY=0.5;exitDx=0;exitDy=0;exitPerimeter=0;entryX=0;entryY=0.5;entryDx=0;entryDy=0;" edge="1" parent="WIyWlLk6GJQsqaUBKTNV-1" source="qbzAYk6FdeuOr6aEGjq--76" target="qbzAYk6FdeuOr6aEGjq--88">
          <mxGeometry relative="1" as="geometry">
            <mxPoint x="827" y="455" as="sourcePoint" />
            <mxPoint x="1060" y="455" as="targetPoint" />
          </mxGeometry>
        </mxCell>
        <mxCell id="qbzAYk6FdeuOr6aEGjq--88" value="La vista envía contraseña al controlador" style="rounded=1;whiteSpace=wrap;html=1;fontSize=12;glass=0;strokeWidth=1;shadow=0;" vertex="1" parent="WIyWlLk6GJQsqaUBKTNV-1">
          <mxGeometry x="890" y="435" width="120" height="40" as="geometry" />
        </mxCell>
        <mxCell id="qbzAYk6FdeuOr6aEGjq--89" value="" style="edgeStyle=orthogonalEdgeStyle;rounded=0;orthogonalLoop=1;jettySize=auto;html=1;exitX=1;exitY=0.5;exitDx=0;exitDy=0;" edge="1" parent="WIyWlLk6GJQsqaUBKTNV-1" source="qbzAYk6FdeuOr6aEGjq--79" target="qbzAYk6FdeuOr6aEGjq--90">
          <mxGeometry relative="1" as="geometry">
            <mxPoint x="1120" y="455" as="sourcePoint" />
            <mxPoint x="1370" y="455" as="targetPoint" />
          </mxGeometry>
        </mxCell>
        <mxCell id="qbzAYk6FdeuOr6aEGjq--90" value="Controlador envía contraseña al modelo" style="rounded=1;whiteSpace=wrap;html=1;fontSize=12;glass=0;strokeWidth=1;shadow=0;" vertex="1" parent="WIyWlLk6GJQsqaUBKTNV-1">
          <mxGeometry x="1181" y="434.5" width="120" height="40" as="geometry" />
        </mxCell>
        <mxCell id="qbzAYk6FdeuOr6aEGjq--91" style="edgeStyle=orthogonalEdgeStyle;rounded=0;orthogonalLoop=1;jettySize=auto;html=1;exitX=0;exitY=0.5;exitDx=0;exitDy=0;entryX=0.75;entryY=1;entryDx=0;entryDy=0;" edge="1" parent="WIyWlLk6GJQsqaUBKTNV-1" source="qbzAYk6FdeuOr6aEGjq--92" target="qbzAYk6FdeuOr6aEGjq--79">
          <mxGeometry relative="1" as="geometry" />
        </mxCell>
        <mxCell id="qbzAYk6FdeuOr6aEGjq--92" value="Comunica al controlador si la contraseña es fuerte o débil" style="rounded=1;whiteSpace=wrap;html=1;fontSize=12;glass=0;strokeWidth=1;shadow=0;" vertex="1" parent="WIyWlLk6GJQsqaUBKTNV-1">
          <mxGeometry x="1175" y="523" width="135" height="57" as="geometry" />
        </mxCell>
        <mxCell id="qbzAYk6FdeuOr6aEGjq--93" value="Controlador avisa a la vista que cargue mensaje contraseña fuerte o débil" style="rounded=1;whiteSpace=wrap;html=1;fontSize=12;glass=0;strokeWidth=1;shadow=0;" vertex="1" parent="WIyWlLk6GJQsqaUBKTNV-1">
          <mxGeometry x="878" y="525" width="140" height="60" as="geometry" />
        </mxCell>
        <mxCell id="qbzAYk6FdeuOr6aEGjq--94" style="edgeStyle=orthogonalEdgeStyle;rounded=0;orthogonalLoop=1;jettySize=auto;html=1;exitX=0;exitY=0.5;exitDx=0;exitDy=0;entryX=0.805;entryY=1;entryDx=0;entryDy=0;entryPerimeter=0;" edge="1" parent="WIyWlLk6GJQsqaUBKTNV-1" source="qbzAYk6FdeuOr6aEGjq--93" target="qbzAYk6FdeuOr6aEGjq--76">
          <mxGeometry relative="1" as="geometry" />
        </mxCell>
        <mxCell id="qbzAYk6FdeuOr6aEGjq--95" value="Usuario visualiza mensaje contraseña válida o no válida" style="rounded=1;whiteSpace=wrap;html=1;fontSize=12;glass=0;strokeWidth=1;shadow=0;" vertex="1" parent="WIyWlLk6GJQsqaUBKTNV-1">
          <mxGeometry x="600" y="527.5" width="120" height="40" as="geometry" />
        </mxCell>
        <mxCell id="qbzAYk6FdeuOr6aEGjq--96" style="edgeStyle=orthogonalEdgeStyle;rounded=0;orthogonalLoop=1;jettySize=auto;html=1;exitX=0;exitY=0.5;exitDx=0;exitDy=0;entryX=1;entryY=1;entryDx=0;entryDy=0;entryPerimeter=0;" edge="1" parent="WIyWlLk6GJQsqaUBKTNV-1" source="qbzAYk6FdeuOr6aEGjq--95" target="qbzAYk6FdeuOr6aEGjq--73">
          <mxGeometry relative="1" as="geometry" />
        </mxCell>
        <mxCell id="qbzAYk6FdeuOr6aEGjq--97" value="" style="shape=flexArrow;endArrow=classic;html=1;rounded=0;exitX=1;exitY=0.5;exitDx=0;exitDy=0;" edge="1" parent="WIyWlLk6GJQsqaUBKTNV-1" source="qbzAYk6FdeuOr6aEGjq--5">
          <mxGeometry width="50" height="50" relative="1" as="geometry">
            <mxPoint x="280" y="220" as="sourcePoint" />
            <mxPoint x="480" y="473" as="targetPoint" />
          </mxGeometry>
        </mxCell>
        <mxCell id="qbzAYk6FdeuOr6aEGjq--98" value="Actor" style="shape=umlActor;verticalLabelPosition=bottom;verticalAlign=top;html=1;outlineConnect=0;" vertex="1" parent="WIyWlLk6GJQsqaUBKTNV-1">
          <mxGeometry x="510" y="640" width="30" height="60" as="geometry" />
        </mxCell>
        <mxCell id="qbzAYk6FdeuOr6aEGjq--99" style="edgeStyle=orthogonalEdgeStyle;rounded=0;orthogonalLoop=1;jettySize=auto;html=1;exitX=1;exitY=0.5;exitDx=0;exitDy=0;exitPerimeter=0;entryX=0;entryY=0.5;entryDx=0;entryDy=0;" edge="1" parent="WIyWlLk6GJQsqaUBKTNV-1" source="qbzAYk6FdeuOr6aEGjq--113" target="qbzAYk6FdeuOr6aEGjq--104">
          <mxGeometry relative="1" as="geometry" />
        </mxCell>
        <mxCell id="qbzAYk6FdeuOr6aEGjq--100" style="edgeStyle=orthogonalEdgeStyle;rounded=0;orthogonalLoop=1;jettySize=auto;html=1;exitX=0.155;exitY=1;exitDx=0;exitDy=0;exitPerimeter=0;entryX=1;entryY=0.5;entryDx=0;entryDy=0;" edge="1" parent="WIyWlLk6GJQsqaUBKTNV-1" source="qbzAYk6FdeuOr6aEGjq--101" target="qbzAYk6FdeuOr6aEGjq--120">
          <mxGeometry relative="1" as="geometry" />
        </mxCell>
        <mxCell id="qbzAYk6FdeuOr6aEGjq--101" value="" style="verticalLabelPosition=bottom;html=1;verticalAlign=top;align=center;strokeColor=none;fillColor=#00BEF2;shape=mxgraph.azure.computer;pointerEvents=1;" vertex="1" parent="WIyWlLk6GJQsqaUBKTNV-1">
          <mxGeometry x="777" y="647.5" width="50" height="45" as="geometry" />
        </mxCell>
        <mxCell id="qbzAYk6FdeuOr6aEGjq--102" style="edgeStyle=orthogonalEdgeStyle;rounded=0;orthogonalLoop=1;jettySize=auto;html=1;exitX=1;exitY=0.5;exitDx=0;exitDy=0;" edge="1" parent="WIyWlLk6GJQsqaUBKTNV-1" source="qbzAYk6FdeuOr6aEGjq--115" target="qbzAYk6FdeuOr6aEGjq--107">
          <mxGeometry relative="1" as="geometry" />
        </mxCell>
        <mxCell id="qbzAYk6FdeuOr6aEGjq--103" style="edgeStyle=orthogonalEdgeStyle;rounded=0;orthogonalLoop=1;jettySize=auto;html=1;exitX=0.25;exitY=1;exitDx=0;exitDy=0;entryX=1;entryY=0.5;entryDx=0;entryDy=0;" edge="1" parent="WIyWlLk6GJQsqaUBKTNV-1" source="qbzAYk6FdeuOr6aEGjq--104" target="qbzAYk6FdeuOr6aEGjq--118">
          <mxGeometry relative="1" as="geometry" />
        </mxCell>
        <mxCell id="qbzAYk6FdeuOr6aEGjq--104" value="" style="shape=image;verticalLabelPosition=bottom;labelBackgroundColor=default;verticalAlign=top;aspect=fixed;imageAspect=0;image=data:image/png,iVBORw0KGgoAAAANSUhEUgAAAgAAAAIACAYAAAD0eNT6AAAACXBIWXMAAJ16AACdegHu2JUgAAAAGXRFWHRTb2Z0d2FyZQB3d3cuaW5rc2NhcGUub3Jnm+48GgAAIABJREFUeJzs3Xt4VNXVP/Dv2mcmCcELKEGtvYCtVTIJeEHrvaBIuZhkggbb19ba1hJJAra2aFvf1thaq2KrDZlgrBZt7duaKLmgoHhBf1VbFRVIJtBSxfslAUWQQDIze/3+SNpaCxiSs86Zy/o8j8/TKnzXIiQza87ZZ29AKaWUUkoppZRSSimllFJKKaWUUkoppZRSSimllFJKKaWUUkoppZRSSimllFJKKaWUUkoppZRSSimllFJKKaWUUkoppZRSSimllFJKKaWUUkoppZRSSimllFJKKaWUUkoppZRSSimllEoT5HcDSqWSsl89NSyRNWI0DA6Lg0c71o5iwv4AHcBE+5PlA0F0IMAHgJHd97/7EDjIwH67iY0DtP3f/5d7AO4G0/sgbAfzdiazDcTbCfQemLdb4G1m6syxPZ2N84/r8uCPrpRKMzoAKNVves3G7GCge4zDgbHMdiyIxgA8BqBPABgN4BPY/Ru432IAugC8A/BbBLxmiTaB+WUyZhMh/nLT3AmdfjeplEouOgCojFRdzeaFg6Nnk4NpxHwcgz4H4DCk78/EDoA3ASYKwpO21za0fqfwHb+bUkr5J11f7JTao3Ck/SsArgFwhN+9+CgGxhIb55/oIKBUZtIBQGWMskh0vxj4twDK/O4liXRa4MutlQWr/G5EKeUtHQBURpi6cO3w3FxnBYDT/e4lCfWAqLS5IrTC70aUUt4xfjeglBeG5zp10Df/PckGc8O5i9Yd7XcjSinv6ACg0t6suraZDFzodx9Jbr+EcW7xuwmllHd0AFBpzzJ+6ncPqYG/WBxpn+x3F0opb+gAoNJacV3beICO87uPVGFA3/S7B6WUN3QAUGnNMGb53UNq4eI59auDfnehlJKnA4BKczTD7w5SzAGdvdmn+t2EUkqeDgAqbZUuXjsawPF+95Fq2DE6NCmVAXQAUGmLbWAG9Ht8n5HlmX73oJSSpy+OKm0R9I1sUAj54Zq2z/rdhlJKlg4AKi1Nql4VYGCK332kKgrQNL97UErJ0gFApaURB486DcAIv/tIVcys6wCUSnM6AKi0RMbo5f8hMZOL6lfn+t2FUkqODgAqLbHe/x8iHhZMZOuugEqlMR0AVNopWrR2LIBxfveR6iz0KopS6UwHAJV2Ao6j96/dwHyO3y0opeQE/G5AKbf1LWAjL0vGGdhM4M0g2kxM7zE4DkYMwAcAQETbwJxggxj3/zsAMMwBMO0PAEzYH4wAiAIA9/07YH8CRgI0GuA8APt5+Of6VOnijoKmufntHtZUSnlEBwCVVorqV+cibiYD7Ho2gW5k2A3EZjMxb447ic3ZWYGuxotD77pebA8uWrIpZ9v2baOsExjFlg8xhkYx7CgCfZuBkNv1LNuZAHQAUCoN6QCg0kogln0mEw9zP5m6JnTlX1FdTdb97IG74xtjdwF4vf+ffwlH2rMBXO92PdP3OKDruUop/+kaAJVW2MjsY0/gFX6/+e9Ngul+iVyGObXstuhBEtlKKX/pAKDSC/N0iVgLXi6R65ZlVaEogJfdT2ant8ee7X6uUspvOgCotFG6uKMAwBj3kymRlW0ecj/XZUQrJGKNHqmsVFrSAUCljf4Fa64j2Ce9XOg3WAZW6DYATa+uZn2tUCrN6A+1ShtGaP96hsz9dbc5u7Y/CqDb/WTOe2FUxwnu5yql/KQDgEoLZfWrD2TQyRLZZExS3///p8bLTtkJ8GMS2US6tbJS6UYHAJUWeuPZ0wAEBaJfS6WNcIhIaFjRdQBKpRsdAFRaEFuoRnSfSK6QuEPLZJL5uOJFGz4hk62U8oMOACrlVVezYeBLEtlSC+ukLCsPvQpGh0A0ORSbJpCrlPKJDgAq5fUvUDvE7VwGdsWcnlVu50pjI7QpEJGuA1AqjegAoFIeGZlT6whYtax8osCqelmUsFKLFs++aMmmHKFspZTH9CwAlXLKGhqc2OajjwFTEWDOAfNxEnWIkFKX//9p65bNT4zIy9sKYITL0ftv7d6xOVzXvgqgZSYeX750/oTXP/63KaWSkadnpio1WDPr1o0MsCkyQBGDzgb4QOmaCZs4Ytm8CZuk60gIR9ruBmi2cBkG+AWA7reGmlrnhl4QrqeUcpEOACppldauP9hSYiYRymAxFYQsD8uvb64syPewnqvCkehFAC/xuOwrDGoxQOOErvynkvnwJKWUDgDJjZlKF7edwUxFYDoWhE8BcAj8umVqA8zyrNHtDzbOnp3wu1W3hG96YQSyAucS6AIGnQGw40cfBLqxqTK0wI/abii+ue0QE6Q34dM6HwK9wcx3W4fuSrcrA+fWrTsizjSLQKeBcSQIOQBvZaK/w+IRA6epqWrcFr/7VOrj6ACQpEoWtX+JDC0EuHDvv5I2EfgX73V1LXmsenLcm+7cNb1mY3Z2IDYd1n6VCTMJ8H2hmQXObK0sSLknAD4sXNv+NAgn+t0HGB0M/oMD5w9Lq/Jf8budwTp30bqjE8b8FMC52PtgtQOM+iDRVY2VoQ88ak+pfaYDQJK5aMmmnPe7P7iZQeX79BsZHUz4QUtlgdBGMO4rqo2GHMK3wfw1EJLozHl6f3RgZ96t5RNjfncyFOFI9CqAq/3u40OYgMcY+E1PInvpivlH9vjd0ECURaKHxmGrGfQt7NvC6VeY6fyWqtDTUr0pNRQ6ACSRovrop504NwD4wmAzGPxXA7OgqTL0hIutueaiJZty3t/ZXcRs5wB0FpLwe5CAe5oqC8r87mOoZkXaT7DAM373sQdbwWiwhiOtFYXr/G5md6YuXDt82HCnihg/AnDAIGPiTPjfloqC693sTSk3JN2Lb6aaVdc20zL9HsBIF+IYoAaHEj+6t2L8Sy7kDVm4pu2z5FAlg77pxQr+oWCib7ZUhLxeQOe66mo2L+RF3yDgUL972Tt6nGBrAnnrW5JhPcuk6lWBkaNHXWyZrnLra8fgP+zstuUrF0zY4UaeUm7QAcBvzFSyOHo5Ma6F+wu2YmAsISfx46a5Ezpdzh6Q0kj0NAbPB2iWXwv69pENgg5vrAy97XcjbghH2pcAuMjvPgboTYB/QxxY5NciupK6jinE/KuPX3uz7xjYYJnOW1YVirqdrdRg6ADgo7Ka5/NiTtYfAZwlXGorE67L2rWtpu/IWFlz6lcHO+PDLgDs9wAqkK7nstXNlQUn+N2EW0oi0fMI3Oh3H/toB4A7EzZxo1f7MMyq6zjJsl0I4DThUttg8c3meQX3CtdR6mPpAOCT0sUdBWy5FeCxHpZ9HUQ/C46K3i5xqXV6zcbsLKfnfAJ+DOBzbud7g69uriys9rsLt0yv2XhAttOzGTJHJUuzICwHbHVzxfjnJArMqu34jDX8MzB/Fd69HjIxbpiwOfQj3StB+UkHAB/03+//I4D9fWmAsBbMlzdXFq50I66sfvWB8Xh2FcNcCnCeG5l+McCJSysLnvW7DzeVRtofZWCy330MARNjmQVd69aK+rKa5/NiJvhjEF0C34Yjbgj2bL/Ii6tySu2ODgAeC0faLgXML5Pjfjg/bI25fLAbtfxrlbTF5cn1GN+g/aO5IvR5ELHfjbipJBItJ/AtfvfhDn7YgH402CGtqH51rknkzCOmHybJYtQ1iQCVLCsPvep3Iyrz6ADgkbKGaFa8097CRN/wu5ePsATcFQ/Qjwf6IlRUvzrXxLMrCObyVP/E/x+I5jdXhBb53Ybb+m8DvAhglN+9uIQJ1Gxt4qqWeePbBvIbyhoanHjnuK+DzE8ZfLh0g/uCQG8krA23zitc7XcvKrPoAOCBstuiB8V6uBnA6X73sicM7CKgBr2xXzR/99itu/s1Eo9HJZH1PYnsY1Nlc5p9Fa5tmwuiOr/7cJkFcHfCJq7c22LBktqOGUSJ65N8QWo3LC7UxYHKSzoACCuqj37aifEKEFLlYJktDPw8K48ijbNDvf/8l6W1becw0Q0AxvnYm5QPKIHTmuYXrPW7ETHMFK5rXwpQ2O9WBPQQaFEvJa69v2L8e//8l+G6dcfDmhtAONPP5vaBJcL8poqCiN+NqMygA4CgkkXrCo1xViTbJccBeokYV7KxG4nNwhRfRLY325nMrJaK/If9bkRa2a+eGhbLPqAZwFS/exGyBYxrCM5yRuIqEL6CVHyNY/5Fc2XBlem2FkUln9T74UgR4UVtk2CoCcAIv3tRe7SGjPla09z8dr8b8cqk6lWBkaPyrmHC97Bv+9orLzHuHB3c9e1UP49CJTcdAASU1kXLmPn3ALL97kXt1mqAIlu7Ou9K1RMUh6rklmg+JXgB+k628+dxVPVxVgRBs/VEQSVFBwCXlUTaKwhYBJ/OYVe7wXiVCI8xaBXDPtJSWfia3y0li+k1G7Nzgr2nMvNkMCah7yCqVNw0KD0xngnm0PTGi0Pv+t2KSj86ALiotC56GTPfCP26+oy6ADwI2Mcc4lXJciBSKpi6cO3w4cPMKQxMBtEUAMdDh1l/EdYSJab6dZ6HSl/6RuWSkrr2K4hxnd99ZLCXGHQfiJa93/nOY5l6ad9tRfV/GxVIxCczUATmEgz+WFw1BAxsSJj4lPvmHvOG372o9KEDgAtKItFrCHyl331kFkoQ+P8xc2MiaO7XndTkTa/ZmJ1FPZPIoRIwnwtgtN89ZZh/JAJ0ln6vK7foADAUzBSORG8E4TK/W8kYjA42+J3jmN8tLc9/y+92MlV1NZu1eR2nWKCMgK+k1Y6QyYzxqiU6q7Uy9A+/W1GpTweAwWKmcF20BkCV361kgPUA7jBs7l5alf+K382o/zS9ZmN2MND7JcP2AoBKoE+/iCLQG8ahyfdekr/R715UatMBYJBKa9uvY8IVfveRrvq3Jl7GZG5tmTvuEd0UJTWEb3phBLKzZgNcAcYEv/tJY68nbOKMvW2BrNTH0QFgEHy95894FUR/A/hsX+qLo+cY+E1vIuuPK+Yfuc3vbtTgldauO5nJuRjg8wEM97sfAZuJ8RQTin2q/1LcxM/QhYFqsHQA2EfhSPR7AN/oU/k1JpEoWjp/wusldR1TiO0NAI71qRc3WRCWM8yvM2FL3kzTdxrhrm8A9F0An/G7nyFj9DLRLdTbe1Xzd4/dGq6LzgFzBP7srLjRBMwXdT2MGgwdAPZBONJ2KUA3+1R+aSKw62vLyid2/+vfMFPp4o7zmHE9wGN96msotjHoDofpV3pvP/1VV7N5IS86k8DzAZridz+DYAHcC+Nc3jx33Msf/g8li9q/RAYN8OUxSWojNpObqsZt8b62SmU6AAxQ/w5/tfDha8bAdcd2ha6sria7u/9+0ZJNOVu7d8wH8EOkxtkDrwF0Q3d3fMnKBRN2+N2M8t6suo6TLNsfAChGCrwOMfAAE1/RWlG4bk+/JhyJHgPwMgCf9LC1fvx8MNBzZmP5xPe9r61SVdL/4CWDcG3bbBD9Ed7viBYn4nlNFYW3DOQXl90WPSi+iy+3hEsJyJFubhBeAfimEbn71d/xjbG7/G5G+a90cUcBM18Oxv8A7Pjdz0cRECXiK5ZWFN4/kF8/q77jMBu3rQAmCre2G/T4iNzcafqzpQZKB4CPUVq37ovM5kF4/2jTexY4t7WyYNW+/sai+uinnRhfCcLFSIptXGkTYH/dk8i5ZcX8I3v87kYln5Jbovlk8QMwfwXJcUrhayC6Jjgqenvj7NmJffmNUxeuHZ6ba+4CKCzV3F60BPM6zt3XnlVm0gFgL0oWrSsk4/wZ4AM9Lv0PYmdmU9W4vw8lZFak/QRLuKH/kBc/vE7MVwVGr79TX5DUQBTXrT3KWOfnIMyCP69P7zH42pG5+9UO5ZN0dTWbNXntNwD0PTebGxDmRc1VhfM9r6tSjg4AezCrZu0nreM8BeBTnhZmdFgOnN067+g33YosqeuYQrA3evhc9ntMuD5r17aaxstO2elRTZVGZkXaT2DgegYme1KQ0QvgjqDt/d/G+cd1uRUbjrRfDuA6ePxaS6AfNlWG9GwStVc6AOxG2W3Rg2I9/ASAcd5WpucSgcC0ZeVHbXY7ubqazdrRHecy80JIPYol9CKqMlf/464LARwjVIIB3OOQ/YHUqZElkWg5gevg7e04ZqJvtVSElnhYU6UYHQA+oqwhmhXr4ocBnO5tZXrc5jhFrd86ertklakL1w7PHeZ8F4TLAezvWjDjXgPzPX2cT7mtrKHB6e0KXUzgnwM42LVgxqMw9vLmivHPuZa5B+G6tq+CaQm8Xd8QA9P05qrQIx7WVClEB4CPKIm030rAtz0uuyLYs+1cLy+Xl9auPxhILGDCdzC0BY4bQXRpc0VohVu9KbU7M+vWjQywU01A5RCfGFhPRFc1VYQaXWtuAEoi7UUAGjx+Quc9Yuekoa4nUulJB4APKa1tW8BEN3hZkxitu2z2bL9Wx5fWrv88U+IaAOdh374fugFe2JPI+YWu7FdeKl4cPdZYrgVwyr78PgK9wYSfDmZlv1uKI+2TDdAKYD/vqtLfYpQ4+f6K8e95V1OlAh0A+pXWtp3DRC3w8D4dAb8L5HV8MxlWyJdE2k4hop9//BMDlAD493ET/1/dg1z5hplK6qJfI8bPQPj0x/zqzSD6VcLZ+ev/2EnTJyV10dOJ+T54umsgPbS1q3PGY9WT497VVMlOBwD0b0Zi7VNw8574x2DQLcd25VfuaXc/v4Tr1h1P1pQx4RQGjqS+2wPbQNgA0OPG0v/pfX6VLMoaolmxzTSDbKKYyUwEcCjAAQLeZGAdmFckgj33JsMb/4cVL2qbaAytBDDSw7K1zZUF8zysp5Jcxg8AZTXP58WcrGcAjPGsKOPOYzaHvplsb/5KKe/0nZZoVsLD2wFEPHegO4uq9JcEu8T5p7qaTczJ/gO8fPMHN2/d3HWxvvkrldmaqsb/hQyVMODZ1r3MVFNSF/X4CSeVrDJ6AFgzqv0agM/2riI91JPI+bLeh1NKAUDT3NCjBC4B4NVC2iCYG2bVdxzmUT2VxDJ2ACitbTsHRFd4WPKp7u54qa6YV0p9WHNl4UoC/w8ATz4YEHAox+0fyhoaku7wJeWtjBwAZtV2fIaJ7oBXf37GMzYnME2PvlVK7U5TZeFS6ju8y5NbgwxMjm8O/dSLWip5ZdwAcNGSTTmW+F64uaPYXlEbwZkhvcOfUiq1NVUU3AnQpV7VY+YfltS2lXpVTyWfjBsA3uveUQPw8R6V+4eN2bObqsZt8aieUiqFNVeGagH8xKNyRES/LVq0dqxH9VSSyagBoDQSnebZNr+Md4mdma3fKXzHk3pKqbTQXFnwMwLXe1RuhOM4vwVzxj8SnokyZwBgJoBv9KhaDKDZuv+2Umow8gI98wB4c4gPY1JJZP10T2qppJIxA0BxXXQSAyEvajFRuZ7ApZQarFvLJ8aC2TQboL95UY/IVnlRRyWXjBkADKHYizoMXKdncCulhqrx4tC7FjgHgBdriM6cunDtcA/qqCSSMQMAMR8nXoRx77FdoSvF6yilMkJrZegfBApDfqOg7Nz9Ap5cIVXJI2MGACY6XLjEs4ngrgt1i1+llJuaKkNPMDAHAEvWIWs/KZmvkk/GDABgkvuzMl4NgoqT7cQxpVR6aKks+B0IP/e7D5VeMmcAAN6WCmaitsbKkFi+UkpZax4SzRd8jVTJKXMGAOY2qWgCzwwvapskla+UynDMRJS4Xq4AJeLE6+XyVTLKnAHAmBWy+XSDbqahlJJQurjjPAKdJFeB/3J/xfj35PJVMsqYAWC0030/GK8KljihNBI9XzBfKZWB5tSvDjKz7P1/8mznQZVEMmYAuLV8YgxECyVrMOHnZQ3RLMkaSqnM0pkYdgmAI8UKEF4c7fTcLZavklbGDAAAMDqwsx7ARsESR8Q6uUIwXymVQYpv37A/mGX3FrH8o1vLJ8ZEa6iklFEDwK3lE2NEJPvDRPhJ2W3Rg0RrKKUygtkZ+yGAQ8QKMJ5prixoFMtXSS3gdwNea5qbf09JXftfBRfUjIzv4ssB/EAoXyWZ4ts37E/dvWNgzBgiOoytHUWggwEczESjQDyCmHL6fjUfAMD5jwDCdjDF+/6PfQ8wWwDeAmALwFsIZjOAVygRf3n8u+Pf1M2mMsM5i9ccDkuXStawMAtAJLrBkEpeGblqvTQSPY3Bf5arQDsZ9qiWysLX5GooTzHTuYvbxsYtTTDGFDJzAUBHADwGwMHe9YFeEF4B6GWw3UBEbWxobfcH8ejKBRN2eNaHEheORG8H+JtS+cRobaoqKJHKV8kvIwcAAAhH2prQt8e2DMadzVUFF4nlK1Gz6jsOS8T5VCI+FYwTARQC2N/vvvbCAngJoOeI7VMJxlPbtmxe81j15Ljfjal9V7JoXSEZ5wWAnY//1YMSJ/D4pspCffY/g2XsAHDuonVHJ4xpg9xtEEsJHNc0v2CtUL5yUVkkemgMmAbgLACnAjzW755csAOMp0H0/5jxQNbo6OrG2bMTfjelPl440r4cwHSxAoxbm6sKysXyVUrI2AEAAEoi0cUEvkSsAOHB5oqCaWL5atDKGhqceFfoZBCmM9tpAB2L9P952AzGSoAfCNrYA43zj+vyuyH130oXR89ky48IlthhAubIpeX5bwnWUCkg3V/w9qp08drRbJ2NAA6QqkHMU5uqCkX38FYDU13NZm1exykWKCNwGYDD/O7JR5YJfyHmRhvDn1q/U/iO3w0pAMwUrut4FuDjBYtc3VxZWC2Xr1JFRg8AABCORK8CuFqwxJpjukLH68pt/4Tr1h3P7FxI4PMAfMLvfpJQHIRHCPhj3NnVqKda+qc0Er2AwXdJ5TPwdhboyMbK0AdSNVTqyPgBYOrCtcNzc52NkPw0yHxhc1Xh78Xy1X+ZXrPxgOxA75fBmCP7aSrtbAPjTwamfmlV/vN+N5NJyhqiWbEuXg/gCKkaDLqkpTKk2/4qADoAAADCddE5YMG9sBmvjhg+/Kg7vjF2l1gNBQAorWmfwA7NB/h8AMP97ifFrSbmxbtszh9WzD+yx+9m0l04Ev0ewDdK5TOw4f2urkJ9MkT9kw4A+OeCsPy1DIQEy1zRXFlwg2B+RiuNRE9j4ivAmAn9vnZbJ8CLiQOLmqrGbfG7mXQ0s27dyCCbjRDcU4KYwk1VoRapfJV69IWyX3FdtNgwS/5wbA1m02cbLw69K1gjo5Q1NDi9XfkXEOj7ABf63U8G2AFgSSJAC5eVhyRP1sw4pZHoQgZ/X7DEE82VBacL5qsUlFFnAexNa0WoFYxHBUuMiO0SPtQjQ1RXsymti5bFukJRAu7UN3/PDAdQ5cR4Y7i2vf6cxWsO97uhdBBevH4Mg+cJlmAGXyGYr1KUDgAf5tAPAUjui10Vrmn7rGB+emOmkkh70Zq86HPM3ADwUX63lJEIWSDMCSQCL4Vr2+tn1Xdk8uOUQ8Y2fg2AbMEKjS2VhU/J5atUpbcAPiIcabsboNliBRj/11xVcIFYfpoqXtQ2kRy6mRin+t2L+i87AL5xRO5+1+lC133Tt2gVz0Puw1jMcUzo3kvyJY9BVylKrwB8RMLaHwCQW/FM+ErxoraJYvlppnjRhk+Ea9vrjaGn9c0/aQ0H6Kqt3Tv+XhJpv9DvZlIJO3wjBF+HGbRY3/zVnugA8BHL5k3YxCDJ52TJOHSNYH5aKGuIZpVG2q40Jv53EOZAv1dTwacIuLM00v5oyS3RfL+bSXbh2uhZAE0RLLEtK9GjrzVqj/RFdTdsIPAzgN4XK8D4UsmidbpwbQ9KaqNfiHXZ5xh0DfRZ/pTDwGRK8POlddGflDVEs/zuJ2kZXiAZz8zX63kPam90ANiNZeVHbQbheskaZEyZZH4qmrpw7fBwJHozEZ4EqMDvftSQZDPz1fEufn5WXcdJfjeTbMpuix4ExllS+QR6wwZ7bpbKV+lBB4A9CO56/2YAr4sV0PvZ/6G4tuOM3FynHeBLBc9AVx5jIGTZPhmubf/l9JqNgivdU0vvLjoJckeRwxJ+rGc6qI+jA8AeNF52yk6AfixY4nOC2SljTv3qYLi27VpD/CiAMX73o0QYEC7LDvQ8XVQbldxtM2UYJAR//qkta1T0d3L5Kl3oALAX1tp2sXBCrlh2iiitXf/5znjOkyD6oX7qzwCMCQ7h2dK69kowZ/QjyEyUIxfOf2+cPTshlq/ShtglqHRgiOTWARDkFhmmgHBd21eZE7cgPRf5bQH4LcBsAXgLgbvAtNUSxUG8HQAI1A3mYUwgsggSsF//m8LBAB8MxsEADgXhE0irn1MexozacF30S7jphQubv3vsVr878gOD3iepPccIs2bVdZy0tCL/rzIFVLpIoxcWd5XWtp3DhDPFCjD/TSw7ic2pXx3sjGX/EkySW5+KY2AXgTsAWgdQuyVspERiE+dmvdz6raO3u1VnUvWqwEGjDjmcTXyMhXMEgHHEPAFAISSPsJZXhKzgs8V1bee2VhSu87sZrzH474KXQMiyXQhA9/5Xe5XRl+H2ZFL1qsCIvLx1AMYJlsm40wFn1XccZuO2AcBpfvcyCH8H4y8MPGFBf9m+ufNvfh+rWlbzfF4iEDwxweZkAk4D+AQg5W4t7WCiOS0Vof/zuxEvTV24dnhubqAL4GFSNQh8blNl4VKpfJX6dADYjXBt21wQ1clVoATDjm2pLHxNrkZyKamNfoGIm5A6n1o3g7EShlfYXjzU+p3Cd/xu6OPMqV8d7IoP+wII05ntNICORYr8jBNwUyCvY0Em3bsuibTdRSDJbcE3jg7sCt1aPjEmWEOlsJR4cfBSUf3qXBPPeZGAQ+Wq0G+bK0PfkstPLqWRtlkMc5fkpx2XvEKgRsu459jN+c9WV5P1u6GhKL657RAnSMUMng2Yycm+0JIYrTt2Jv5n5YIJO/zuxQtFtdGQQ1gr+fdCxHObKgpvkcpXqU0HgI8orW1bwESSl+a3x0183H1zj3lDsEbSKK2LXsbMC5G8T5xsBuEuA3Nz5xabAAAgAElEQVT30rnjngaR5GmQvimreT4vHgiey0xfA3CK3/3sxeogqKixMvS23414oSQSXUzgSwRLvD4id/iRekiT2h0dAD6k+PYN+5td8ZcAjJKqQcyXN1UVLpTKTxZlDQ1OrCu/BkCF373sBhPwGBi37rLZTSvmHyl3+FMS6v/k+W0wfw2Eg/zuZzdeYYdmtFwS6vC7EWmltesPZkr8DcDBUjWI+dKmqsIaqXyVunQA+JDSSNuV/fvPS1kfzKNjGmeHegVr+G5O/ergO4mc3xHjy3738hHdDPqdYXNTU9W4v/vdjN8uWrIpZ2v3BxeA6TIQku3wni0g+6XmivHP+d2ItJJItJzAYpfpGXjbBnZ9VncGVB+lA0C/8E0vjEBW8CUAI6VqMJmzWyryH5bKTwbTazZm55ieBiYU+93Lh3QCqE0EgouXlR+12e9mkg4zlUTWTzdkv8/AZL/b+Td6n4BzmipDT/jdiaTqajZr8jqeAfh4qRoMXtBSWXijVL5KTToA9AvXtv8vCD+TyifgnqbKgrQ+AKiofnWuE89pAjDV7176bSHQjTu644syZWHZUJXURU83bK9h0Bl+99JvB5MJp/vgPKuu4yTL9inIvSZ3Bnu2jenb4lypPjoA4F9vXK9A7N4/7UwEcPSy8tCrMvn+6/saDlsO8Bf97gXAdoB+2ZPIumnF/CO3+d1MKiqp65hCbK8B8AW/e2FglwGVNlWGHvC7F0nh2vY7QPi6VD4RqpoqCiJS+Sr1JOvKbE858exvQ3DhH4N/nc5v/mUN0Swnnt2YBG/+DKLfB0Gfb64MXa1v/oPXUpH/cHNF6GQimg3gFT97ISCHgaXhRW2T/OxDWtyJXwlA7D49W1w+p351UCpfpZ6MHwDKGqJZAH1PrADj3TjZtN3xb0796mC8kxsBmuFzK08YNhObK0IXZsojZOKIuKki1NjdnQgB+BkDPj5KxsNgqLWkNur7FQkp98095g0mkvuETvh0Zyw72RbmKh9l/AAQ77RfBfApsQJE195fMf49sXwflTU0OJ3xnDt9XvC3DeDvHNMV+uLSqvznfewjba1cMGFHc2XBTyjBBWA86mMr+xPhwVm1Hcf52IMo6um9Fox35QrQD6urOeNf91WfzP5GYCaW/fT/6ojc3LS959b/nP9X/KpPjNa4iec3Vxb+OtV37UsFzfMLX2yuDE0h4rkA+XSaJR9oyS4PL14/xp/6spq/e+xWAl8nWGLcC6PWTxPMVykkoweAcF372ZLPP5PBT9J1B66SSNv34d8mP9tBVN5UVVCSKTsqJg0ibqoovIVhCwF63KcuDoFNLJ9Zt07skV0/HTh8v0VgiK0ZIrKXSmWr1JLRAwDDzBeM/8d7nV1/EMz3TUmkvYhgJD+l7BnjGccxxzdXhG71pb4CALRUFr7WXJE/GeDvgOHHxlbjspiap9dszPahtqg7vjF2Fxn+hWCJqSWL1hUK5qsUkbEDQHEk+jkCT5fKJ8I1fh8XK2FWXcdJBLrbh4NlmIiu3bq569R7L8nf6HFttTtE3FxZ+Gs4dLrkJ9Y9YdAZ2aanHsxp9zjzrnjOEgCvixUwTjJu0a08lrEDAAHzIPfnfykdP/2XRaKHWrb3+nCq33ZYlDVVhK5Mx6Eq1TXPDT1DcI4DsNLz4oSvh+s6LvO8rrAV84/sob5DtEQQ+MLS2vVi5w+o1JCRA8DUhWuHE+Q23GDGL9LtjWpO/epgL/E9AD7hZV0CosTOxOZ5Bfd6WVftm6aqcVuCeR0zGLgOgMcnKvJ16bhHQKB3+28YkHqkNRfGir0GqtSQkQPA8GHmfIAPFIp/LWs0/U4o2zfvxHJuIsap3lblhwOBXafqwT2poXH27ERLZcEPieh8j/cMCMDQ3bNq1n7Sw5ri+rbt5V9K5TNjTjrePlEDl5EDgCV8WyqbgevS7bS/cF3bV4lQ6WVNIty2tWvz9MbyiT49bqYGq6ki1GjIThN9nv2/jU44prFvY6/0sbPbLgYgdIAVH1WyuOM0mWyVCjJuAChZtK6QQCeJhDPetYFdd4hk+6S0dv3nwSR2VOluMDNf2VRR8O10u42SSZoqxj/usD0VwMte1STQSbFO0dXznlu5YMIOBtVL5RPkPgyp5JdxAwARCX7Dc306nbk9qXpVgCnxOwDDPSrJAH+3parwWo/qKUH3zhu/wQTMKQREPStK+G5JbYff21K7yglQROxRS8Z56bqfgvp4GTUAXLRkUw6IvioUHzPW1gll++LAvLyfwbPT4CjBRN9qriz8tTf1lBeWlue/FQBNAajNo5JEZH9TVP83scO9vLa0PP8tEDXIpPOwABvfdvNU/sqoAWDrBztmAhCZdplw79L5E+Se2/VYad26LxJwuTfVKAHw11oqQku8qae81FgZepvYTAawxqOSn3Disds8quUNStwsF85fk8tWySyjBgAydIFUtgOTNp9cyyLR/ZjNnfDm+4OZ8O3myoI/elBL+aSpatyWYKJ3KoD1HpUsCUeiF3lUS1xzxfjnAPxZIptAXyiORD8nka2SW8YMADPr1o1ksMy9QcYzSyvy/yqS7YNe4OcAPuNBKSbCPP3knxka5x/XZW1gCggvelKQ+ZfFN7cd4kktDzCoRiiaDCD24Uglr4wZAIJwygCI7BtOhLS53Ni31S9XeVKM6MqmioK0PS1R/bfWeUe/CXKmAHhLvBjhIBNMnytzWXloBdApk846AGSgjBkAiK3UN/gHiZzAn4SyPVXWEM1itrfBg+8LBn7TXBFKq0e21MA0zx33MsgWAdghX43PL4m0F8nXkdc4O9RLENtk7Mjw4uiJQtkqSWXEAFAWiR7KIKENL+ju1m8dvV0m21uxLr6CgZB4IcKD73d16WEkGay5YvxzDHylbwGoLALqyiLR/aTreMHYxO1S2cw4TypbJaeMGADiZMMQ+rMaorS4/N+/jeoPpOsQEO2JZ8/WTX5US2XBMsB+z4NSn+z14HvbC/fOG78BwBMS2QSeJZGrkldGDADMJDTZcnu6LP6zxrkeQK5wme0Al62Yf+Q24ToqRfTv+3CHfCX+Xnjx+jHydbxAMlcBGJ8NR6LHiGSrpJT2A0D/kZdnyKSbO2RyvVVau+5kEKQ3A2FL9NWmykKvHgNTKSIR2FUJwlrJGgTkwCZukKzhle7ueCPE1k/oVYBMkvYDAPctNgoKRFuGFdqdy0PMxDA3AxA9FYxB17ZWhFola6jUtKx8YjfifC6ArcKlyoprO4Q+DHhn5YIJOwCI/CwRoANABkn7AYCAYplcfqKlsvA1iWwvlS7uOA8E6dW/zx4S2Hm1cA2VwprnF77IkDyno48he2M6HIFLTHdL5DIQCte0fVYiWyWftB4A5tSvDjJwpkS2hcwPoJeqq9kw48fCZT5wHHPBreUTY8J1VIprqQzdQ4DUY27/dMKsxe0pf1hQYDRWiB237JjpIrkq6aT1ANBlh50O8IHuJ1OCY3yv+7neWjO6/X8ALpSswUDlvZfkb5SsodJHAFQJQPT7xTJ+mupXAfr2BOAWmXSrA0CGSOsBwDKmCSWvav1O4Tsy2d6YVL0qAKafyFbh5pbKAulPdCqNNFaGPiCy3wbAclXouJJIe1gu3xtMENqAzEwuql8t/USQSgJpPQAQy0yyDHOPRK6XRuSN/iqAI+Uq0PvWBivl8lW6aqoY/zgYv5GsYYiqU/0qwNauzY/K3AbgYSaWO8n9XJVs0m8AYKbiRW0TS2rbrwaoQKKCk4jfL5DrHWYi8PdFaxAub5139JuiNVTaCgZ3XQ5A7PuHgfHhxR1CVwi90b+Z1gMS2UT8v+Hattnhm14YIZGvkkNKT8D/NL1m4wFZTu9Uw3aGJZpOwKGC5V5oriw4TjBfXLguOh3MywVL/Lm5IvRFEAlexlXpLryo/VwYSF5te6S5smCKYL64cKT9KwD+T7BEHKAnAV5OxixvmpvfLlhLeSxlB4Bz69YdkYAzBeAiWEwFIcubynx1c2VhtTe1ZIRr2x8ByTwdAcCC7In955crNSThSHQlwGdL5Rs2xy+tyn9eKl/azLp1I4NsOgEEPCr5ChgPkqGHE9nOA+lyDkqmSpkB4KIlm3Le27nzNGPtFCYUAxjnRx8GOHFpZcGzftR2Q3Fd23jDtAZCf/cM/KalsmCORLbKPEW10ZBDvAZCb3AM/kNLZeFXJbK9Eo5EHwP4i17XZWAXgZ9goocDCdvSf06BSiFJPQAU1Uc/HUjYGcw0A8BZkN+rfq8YePvYrtDh1dVk/exjKMKR9iUALhKK32Zj/PlUf0JCJZeSSHQxgS8Rio+ZgPnM0vL8t4TyxZVE2r5PoIV+9wFGBxu6nxJ2+eisnid174/k59VlowGZVL0qcODo0ScbyzOZaAbiXMhJNKMYYGVKv/n3LeiZLVjiRn3zV24zJn4VW+drAIYLxAcTscQ3AFwrkO0JY5wH2Fr/BwBCPjHnw9CCzviw98OR9pUALbcxu0JfF5KT7++upbXrD4axZzJQBOZzAIz0u6c9IcJFTRUFd/rdx2CV1rVXMqNWKH5LTyL7CD3pT0koibT/gsSO9KVNx3Tlfy5lh3tmCtdF3wJwiN+t7BGjg4BlILpvQlf+Uyn7tU4zvlwBKF3cUcAJG2bimYzEieDUeByRrHnM7x6GghkXC8bfoG/+Soph50amRAWAA9xP57FrRnVMBvCI+9keIGJE2h4HSPLq3tAQ8hnIB/iKNXnRd8KR9hUMuj+r5/37Gy87Zaff7WUqT994SyPRaeFI+7NsbRsIPyPQSV73MHi0aWlV/it+dzFYsyLtJwCQOuv7nURgl9SVBaXQVDVuCzNuFitAED+ISBTjMb9b2AeHALiIwI2x7APfKq1tv073G/CHJ2++UxeuHV4aab+TwSsATPSiptuI7WN+9zAUCcbXpbIJvGhZ+cRuqXylAMDAqQEg9H3G4bL61QLnhnjDYV7ldw+Dwwcy4QpkBdtKI9HT/O4m04gPAGWR6H65uc4KBi6UriWJgRT9AQPKGhocEM4Viu8GB24RylbqX/qvAiwRis/ujeeUCGWL638EL2WfZADwSQY/XFLbkfInNaYS8QEgDl4C4HTpOsI47iQe9buJwerpyj9DandEZixpqhq3RSJbqY8iyzcBlBDJBp8vkesdSs01DP+WTWQbi2qjIb8byRSiA0BpJHoBA+dJ1vAE49n75h7zht9tDJYj98LGgYD5tVC2Uv+leX7hiwS0ioQzTSm7LXqQSLYHiIS+Lt7Kdcj+rrqaU2RtWGoT+yKXNTQ4DL5GKt9LTIj43cNgTapeFWCYWTLp/Mi9l+SLnt2u1EdZy/UiwYSs+C6bsscEB0ahBcDrfvcxdHTcC3ntZX53kQnEBoDY5tBUAGOk8r3Dz7/f1SV52IaokaMPPhXgPJFw4SNbldqdY7eEHgIg8kQOGyqVyPVC4+xQL5h/5HcfbiAm3U7cA3KXWaydLpbtne0JNhf2H7uZmqyR+nvoDI42zULZSu1R/yYyt4uEMyZPr9mYLZLtgebKgrsAbvC7jyEjnDF14VqJnR/Vh8gNAGRS8nG/D/mAycxaVhWK+t3IULCBzJnnjLsaZ4d6RbKV+hgMvgOAxG5yw7MCsdRdtEzEwZ7tFwFY6XcrQxQYNjyQ0seupwLBhRZ8hFy2LAY2AHR6S0X+w373MhTnLF5zOBjjJbIN4U8SuUoNREtl4WsAnpLIphS/etl42Sk7g3lURMBNANjvfgbLpPB7SKoQGQCK6lfnAhgtkS3sJTC+25vIPqa5MrTG72aGKmCdaRA574E2La0IrXY/V6l9QXcLBctcNfNQ4+xQb1NlwWUgewKAFgApdxuTmcf63UO6kzkLIDZsLIh9P2hoABjgF0C03MDcv3TuuKdBlLIT83+js0RSmRvS6+ukUlEQuCcGuhlgx9VgQn7xog2faJ139Juu5vqguWL8cwDCZTXP5/UGss8xzDMYmAqRMxVcxjTG7xbSncgAEDR2jE3e9//tBHrYMi9nDiz/jx/yCh+7ksA4VeTzP+Fe91OV2jeNlaG3SyNtTzLoDLezHSdxKoBGt3P90jj/uC4ASwAsmVO/Ovh2POc0BzSDwTMBjPO5vd0i0isA0kQGAMtmbJLdenoJjIeZcF9vInvlivlH9vjdkLRzFq85HBafdj+ZusZ35T+31P1gpQbBrADY9QGAGWk1AHzYreUTY+jb2nwVgAXhxevHgO1UME8BMB3Afr422I/1CoA4mVsAzGMlPnnugzgTngawDIaWtVwS6vC1Gx8EE4HTJS7CEHiFnuWtkgUDDwD4hUDyqe5nJqfmueNeBnArgFvLfvXUsN6cEaeCuYjAJQA+41tjRIfPqV8d7B9YlACZAYB82QDodTCWE2j5jp3xh1cumLDDhx6SBoNPkVj/Z4kedD1UqUFqrshfG66LvgngEy5HHzN14drhmfY60njZKTsBPNz/z6Uli9YVwjEz+tYO0CmQes/YLXY6e7I/DeBF72pmFqG/TDpM/hYAJZj4rwS6H4wV6bBq3130BYFQzor3PCSQq9TgEDFq2x8CuX7cdSBnWPB4AP/P5dyU0jJvfBuANgDXz6xbNzLANJXIzARjmtgOox9CjjkMOgCIERoA+DCZWLwLwiMgejjIaG2sKHhbpE6KK2tocGJdKBCI3tC/mEippMHAEwTXBwAYwxOQ4QPAh91fMf49AHcDuLu6ms2a0W3HMswUAEXEOBkCj5Wz5UPczlT/JnU5R2IPgBuCozt+1Dh7tshRoOkk3ln4WVAi1/1kEtl4RamhMMRPssDtLmYudD00TfSvA3qu/5/rZ9V3HGbj/Jrbj2SSI3OMuerj+sRWfPuG/QG4/uZDhA598x8gYydIxDLhSYlcpYaiqaJgA0ACV6Z0ABiopeX5bwG8xe1cZugVAEHu7wS4KyHzF2bd/+ZKV9ayxOV/BBKJv0jkKjUkRAzip12PBRXoufT7gLFZIFMHAEGuf3MHhO7ZWBi99zxARCL3/7vNIRs2CuQq5QaJRcD7tY1uGyOQm55I4CoM6QAgyfUBwELmno3leKdEbloifNb1TEa73oJRSctym0RsHAE9kGagmN2/AiD0fqL6uD4AkMFBbmcCQJxz9RbAQEnsoEUk8gKrlBsc5nUSuYatbkc7QCxxBQAy7yeqj/uPbYAkDpnoWTH/yG0CuWlnZt26kQAf6H6y1QFAJa2+21O00/VgojGuZ6YpIpErAMl/aFEKc38AYJb4C9P7/wOUbQMin1iYHb3/r5JW3+0pftntXLY8xu3MtCVyC0DkA6XqJ3ELQOIvTGKyTEsJJGT27g64/+KqlLt4k+uRRHoLYICYJBZq87A59auD7ucqQOIxQBaZ2HQB4AAZQ27viQ4A2Lk9/opErlLuoZcFQnUR2gARW5EPau85w/aXyFUSVwAgcAuAsd31zLRFBwuEdmbaoSgq9RBLXKXiUe5npidDjsg6rVjM6G0AIQKLAEVuAfQIZKYly5AYAN4QyFTKVdYYie/T/afXbMwWyE07cWKR12nLcR0AhEjscrWf64mEXtcz05aVGADeFchUyl0Jmd1Cg5SQ+JlKO0QyH9QCCdJbAEIkBoAstwMJMpNlOiIi1y9ZMulTGCr5scBe9ABA6NUBYACo14q8TrNjpQ6ty3gSA4Drf1kWRgeAAWJ2fw8AYr0CoJKfCQRknhZynBEiuWnGQGYAgCXXP1SqPgIDALs+ABjoLYCBIpDr9ysZ9J7bmUq5bteurTLB7v9MpSMHCZk1AHD0MUAhAgOAcf0vi4l3uZ2ZrkhvwagMNWLECJnXCev+z1RayrYiH9TYuP+hUvWRuALg/rRm9SmAgWLA/SsAughTpYAxr4wR+T4lowPAQAzPOljkddphXQMgRWAjIPfXAOhTAPuABa4A6ACmUkB1NVkAMbdzmRN6C2AA7rhojNAtAOgtACHuDwAkMACwDgADRu7/sJBx/0VVKSECb0K6BmBAiFjitZoEXtNUH4mnAKzbgWRIos+0RCDXv/4M/fqr1MACTyGBKO56ZroictyOZBjXX9NUH4kXdtd/WCTua6crFnhigtnq11+lBIlFsHoFcmAmVa8KAOz6AGAEbuuoPhIDgPt/WfoGtC/cf7ESWFeglNv6T42TWNisa2AGIGv4QSKv0wzSAUBIilwB0HtwAyXxyB6RDgAq+b0XHybzOmH1CsBAHDgyIPL1N0joACBE4DRA968AGL0FMGAStwAgcb6DUi7ridnhErlsdAAYiERC5oNaIqFrMKQInAbo/uUaXQOwL0jg2F6RI4aVchXlGJHvU2MkfqbSj7UyA4AJ6C0AKRL3y1yf1vQS9L4QORBFBwCV9IxN5EnkOpyQOWMgzVjuFRkALOsiQCkCAwC5vh2nrgEYOAYEBgD3TxhUym3W0kESucbpFTllMP0Ykddph3UreCkSVwC2uR+pTwEMFDELfFphkU9WSrmJjJH4Po01zjne/de0NBRgmQ9qcUro11+IwBoAgQEANMz9zDRFRuLTyqeqq1k3A1JJjYDPuJ3JwBYQsdu56ShBlCMTnL1dJFcJPAVARmJa03vQA8TgLoHY7NWHrD1MIFcp1zDzWLczCRJX1NITCS0WzjZ6BUCK+wOAlbgCAL0HPUAMvCaRmxUPjJHIVcotDPcHAACvCmSmJWIrcAuGEo0V+foUhhDXBwArcgsAeg96gIxxNknkWkfkxVUpF9EYgcyX3c9MT0wSi4V5u96CkeP+FQBjJO7XjOjf5lN9jK3vvP06BHZjhEW+65lKuaTstuhBBBzqdi6DRQbqdEQssFiYoZf/Bbm/sMvara5nAvRefJiuAxiAx6onxwG87nYukxnvdqZSbonttELfn+Zlmdz0I3IFgOh91zPVv7g/ABDecT0TQK/QJh9pifCy65HMhW5nKuUagwkSsQ7TSxK56YglrgDAiryfqD7u3wJIkMhfGBujCwEHiJk2uB5K+PTMunUjXc9VygVEVCAQy/FhZqNAbloigcXaDJkPlKqP6wNAwJEZAIzIdJmuuE0iNcvSRIlcpYaMcaLrmYSXWr91tD6DPnCuv0YT8Lbbmerf3L8FkBftAijhdiwZ0gFggAxonUQuE06VyFVqKKbXbDyAQSG3c4llfo7SmPsDAOsVAEkBtwMbZ89OhCPtWwCMdjOXmcpLIu1Zhp37m6rG/d3N7HQTCOxsi8VzGAC5HK0DgEo6WdRzMgDH7VwGt7udmW6mLlw7PGd44CxjeSaAXNcLGOp0PVP9i+sDQB96B2BXBwCACwn4FVPiV+FI+0tgPMyE+3oT2StXzD+yx91aqa2xfOL74Uj7KwDGuJtMJ02qXhXof9JAqaRADk6DwJPiLHQlLdUVLVo71nECZwNcxIwpxJzj+keNfsz8lkyyAsQGALwNQHLV+BEgzCFgTrbTsyMcaXuIQMtjJr78vrnHvCFYN5U8D9cHAOx34KjRxwN42uVcpQaNgckS7z+UsC8IxKacsoZoVqwTpwM8A0QzAT4K3DdxCb3vf4jRKwCCpAYAke1o92A4QGEGwgEbQDjS/hKD7gPRskOc7sdvLZ+YoWdJ01MAz3I9lTANOgCoJDGzbt1IYnzB7VwG3m6ZX/ii27mpoqzm+bx4IHsSA0WxLhSD+MC+/+LtpnzBbN2KWZLQAMAvy+QOyBEEng/m+Z2xnHfDkfZHQPRwkNHaWBnKmBWlhuhJy+7/sDLsNABXux6s1CAELZ0Ncv91zABPuJ2ZzKqr2awZ3XYsw0wBUBRjnAJm+Q/4e7e98eLQuz73kNZkBgDiTfD9ewcA4SAAZWAuiwGLw5HoC4C9D8TLmucWPp/Oe0yPcrqf64zndMPlhTkEOrGs5vm8xvnHSZw6qNQ+IWCaxA8xM54UiE0qUxeuHT4s1zmTGOesoWgR2ByWBK/a/0bQTZiEiQwAJkGbbPKdHm8APh6g48F0Vbgu+jpq25cTaPmOnfGHVy6YkFYnTt1aPjEWjrQ/B+B0l6NNPJA1A8CdLucqtU/KGhqcWBfNEAl36CmRXJ+VLFpXCMfMMMwzGHQKgIAHN/IHh93f0VT9J5EBII7AJiNwHo3LPgnCHAbPyc11esKR9seZ6E87d8Qb0mUYYND/I7DbAwCYeTZ0AFA+i3WGJoH4EIHo7aPNzrRZAFi8qG2iMfR1MIpB+DQY4KR91/8wPYlRmsjn9Naqo95iYJdEtpBsAFOJ+be5uc6LpbVt3/S7IVcQHhQKPrvstuhBMtlKDQwTny+U/Eg6LB4uWrR2bDjSdr8x9CyAKhA+7XdP+8bqSYzCZC7UEzGBXhHJlncIE90ejkT/NL1mY7bfzQzF+52dfwEgcTpjMNZjSwVylRqQOfWrgwS4/pQLADDMAxK5XgrXRac7xlkDCN0i8QCxnsQoTfBOPUflsr3A52cHeu4pa2hwfYcxr/Rv2POQTLr5mkyuUh/v7cSw6QBEjgh3mFJ6AAhH2qbCcjOAA/zuZSgShBR/D0l+YgMAEaX+KlrGOb2d+T/xu42hIGahFzM+o7R2/edlspXaO8N8sUgwo2NpVX6qXr1ESaTtUwDdDUKW370M0ZutlaF/+N1EuhMbAGIUu1viUCCvEfCDVH6jo6CzAoCViLbGyrwIK7UX5yxecziA6RLZbOh+iVyvGNCvAIzwu4+h4z/63UEmEBsA7pt7zBtgvksq3zOELEbie363MVhLy/PfIrDIpibE/PWyhmiqf9JQKSZonYsg9ASTw9wokeuF4rq1R7HQughv0c5EwNT43UUmEH1a33LgRwC2SNbwBKFsTv3qoN9tDBpRg1Dy6FinFVqJrdR/m1O/OsigS4TiX1paEVotlC3OQeB8CL+me4HZXrOsPKRbAHtA9Juldd7Rb7LFBQBS/ZGake8khp3kdxODlejle8RuxxhK2asjKvV0xrK/DOCTEtkMNKTy7qDMmOZ3D0PFoPuP3Vxwnd99ZArxabFlXsGDxJnzjiEAACAASURBVFQGIKU31zHAZL97GKzW7xS+A+bHRcIZE0rqOqaIZCv1YcwkOXCyEbtSJq749g37AzzR7z6GhptH5uaeV11NEmuW1G54crmoqSrUwg6dyJTC+2szT/K7haFgQGxRDcF+XypbqX8K17WfDcYEiWwGNrTODaXs7n+mJ3EagBS9TUnvg/Hd5oqCWXd8Y2wqbSCX8jy7X9RySaijpaLgNAJNB7gBKXZFwAInX7RkU47ffQwWDwvcDeADmXB8aVZdR8reIlGpgq4SSwbdJpXtiZT8gEJtAK5IBAKfa64quDmVb7+kKqHjgPesqTL0AIAHJlWvCozMG30SmM9hoAiEfK972RcE5Gz94IOTADzmdy+D0fqto7eX1rX/iRkij+5Z5p8CmCqRrVS4LjodzKeIhDN6yYn/XiTbO2f63cDHo52AfRLAfYad5lTebyFdJM2JEOfWrTsiAWcKwEVgnI2+/fmTDF/dXFlY7XcXgxVeHD0Rlp+Wyieyk5oqxsusNVAZLVzb/jQIJ8qkc0NzZWHKPs1SVr/6wFh82BaAk3HX0pfBWEmGHg4wVjRWhmSuQqpB8fwKwJ7cWzH+JQC3Ari1+PYN+zu7YmczzAyAZwA4zOf2AABMNAVAtd99DFbz3NAz4br2tWL3UdlcA+Yz9FKeclNppG0WQ+rNHwBwu2C2uFgidzJgk+XNP0bAExa8HI5Z3nJJqMPvhtSeJc0VgD1iplmR9cda2BlMPJNAJ8K3Z10pkQgEDl1WftRmf+oPXUkkWk7gW8QKMJ/fXFWYsqupVXKZXrMxOzvQEwXjs0IlNh7TFTo6lVeel9a1/0bq1t4AvQNgBREtDzg7VzaWT3zfx17UPkiaKwB7RMRLgefR9881pbXrD4axZzJQBOZzAIz0rhl2nFjvdAApe79wZG7unVu7d1wNQOIcdYDoxqL61fctK5/YLZKvMkp2oPcywTd/EPGvUvnNH8zEdVHPT/zj3u7XQU6jCeYsndCV/1RKfw0zWPJfAdiLsoYGJ7b56GPAVASYcwA+DuJ/ptS+XwgA4UhbteSKajB+3FxVcI1YvsoIxTe3HWKC9HfInWq3pbs78ZmVCyak1BNJHzYr0n6CBZ4RL5ToRe87f0PP62vR+2YbbPdWANgF4EEiWgpg2RNPPPGeeB8fcvLJJw9zHOdUa+04Y0yutZaJ6A1m/utTTz31ope9pKqUHgA+qvjmtkMoSF8i4BwA0wDsL1BmWzCP8hpnh3oFsj1RVvN8XszJfgXgYUIlupHg8c3zC/WHUA1aOBL9E8CCw3ZqL+oFgJLa9quJIHJiaeKDzeh5Yx1631iHeNdGcCK+t18eY+YHjTG/3blz533PPfec2O6vp5122uettVcQ0ZcB5O7u1xBRG4CbDzvssDsbGxtT/lA6KWk1AHzY1IVrh+fmOm9BYAggQ2c1zQ096naul8K17fUgzBEs8UhzRehsXRCoBmNWXdtMy3SfXAXaGUz0fKZx/nFdcjXkhSPR1QAf73buBy/cg53rHxrsb+9k5t87jvPbP//5z64tApw0adKhsVjsKgAXY+C3r1cnEokL//r/2Tv38Kiq6/2/a89MEu4ooBWtlapVmHBRVMicQWNFFBQyAYNWW6vVSkmCVVu1Wqup1dZLq21Iglipl69tLVESgojiLZI5E1CiQDIRRQVFUG5yTTKZmbPX749gfxQBAzn7nLmcz/P0efrIzPsuhmT2OnuvvdbSpe+bFUcqkfSDIw7G4luHtxDoNRXaUiJPha6VuIR8EGpnNFyQN6v5GoX6DinKpDmre0lJFYptHk/2xT+vvPG7e489TSf6+cquvP0YIvqVlDKsaVrQ5/NNKSgoOOJbCuPGjevh8/nuicViawD8AodXu3aWy+V62+fzXXGk/qlMyiYAHfAiFaoEvqykhJP6s3uhcNgnDDyl0oMk/3nSzNUDVXo4pB4iEn8AhBMVWrR6gKQfOEMQU6FgF9fYvRnG7s1myWlE9PzGjRvX+P3+23Nzc/sexnuF3++/uqWlZQ0RlQDoeYQx9CSif/t8vtler9cZX74PSb2IfRtkGIsAqNiCHvjugPB5CnQtRbrpPgDtygwIRwth/CvZkyUH68gvD18MYLpim7LKIu+Xij2s4EcqRKMbm1TIDmLmB+Lx+Dq/3//gmDFjBhzqxZqmTfL7/U3M/DRM6gNDRDf07dv3jVGjRqm5AZWEpPQX87wbh38OkJKfZpfS4iRrWDDN+xkzFPdA5/NWDGi+Wa2HQyqQP2vlMRL8JNTWJu0hYfxFob4lBEobT1Zx9g8oSwAAAMzch5lvk1Ku9fv9f/P5fMfs++c+n+9sTdPeBDCfmQcrCEFzu90Nfr9fyWeXbKR0AgAADF6oRpem3DB7eZJO3/r/MLv/CEDxnX2+f9Ks8BlqPRySGmZi6XqKgO8odnq0avpw0/a3bUOQkqd/jrcjtvlDFdL704OZbySiNX6/vyQnJ+cMTdP+Q0TLAOQq9j6emWt9Pl/S13J1lZRPAEhQlSLp/puNbmMVaVtGzYzTNxLRg4ptMoXkqvyy9/sp9nFIUgIV4bsAjFfpQaANHtBDKj2sgghKitqiGxvBhsra4G/Qm5nvEUK8C0BJTcNB6ElE8zRNS+vdyZRPAKp/MeQdAOuViDOuVKJrMXFX25/B+EyxzfeY4s849QAO+5M3s+kiWDBjQ4LvTIVhNIHy8AgGvCq0o+tXqJBNVASAR3w+35+RwlfiD0XqfxkTMUDzFKlPuaRilYWtiNWwYNpZrQTcrt6JJqwY0KSkaYlDcjK5rPl7JPAslH8XUcMZW7zPqvWwCr5OiayMo13h+X+iQkS/0jStMjc3N8vuWKwm9RMAAJJVJQDcLQMiJXYBqoqznwNQp96J7s6rCKfEZ+bQNSbNWd1LCjkfQH/FVkzATanQr/6aJ9dmAbhKhXZ0Yxgca1MhnQxMicViVTk5Oaq6oyYkaZEAZB7TpKNjYpXp2DyFy1TIwAyobQ4EAATmOXnljT7FPg4JzA2zl3tEJP68qtHU/wv9o6rIG1Tvo57tba2ToWgAWvvnabX9fyAuFkK8rGmaihbyCUlaJACVU6caYFY1onZEoGJVSlwpqboxeyURPazah4AsAtVMeaz5VNVeDonJZqPb3wCMU+3DwJcxMm5V7WMVglnJAwcbMbSvf0+FdLJxLoDXc3JyjrY7ECtIiwQAABjin8q02ZUyuwB9unX/A0AfWGDVzzDkS5NnN5vS5MMheQiUN90LZtXNfvZCMxYWDrN0Sp0qAqWNJ7OiK3LRDavSeft/f852uVyLRo0apWoKZcKQNgnA/GLvMgBrVGgT+MrxpWtS4oflqWsHRSTTDVDTQXF/TuG4fHXi7A9UnwE7JAiB8qbbAPzOGjeunl/kfd4aL/WQS/wCiqrV29epnyicTDDzOW63e+G4ceN62B2LStImAeiAVO0C9M5wtaupzLWBmuIhS5ihehgLAIABrysefSXw6HuH0yPcIQkJlDVOh1U9+BlfSekpssTLAgrKwz0Zarb/ZXsLol+kX/V/J/C3tLS8nMpJQFolABL4JxQ92RJoRsHcuUc88SrRyIjuuhUM00Z5Hho6ExmexQVPhNPi3C0dCZQ1TgdRGSy6b03EP6+ZcfpGK7ysIAZcA0BJktz+WQPYiKuQTgX8LS0tc0eOHJn0XV8PRFolADVF3o8A6GrUeVB08+BJarStp/IWXxuIroLKYUH/y9nxdn5z0l8bnUEdKUZ+WeOtICqHRd83RHiiqmioqt4fltPRPItvVKXfvrYeRPQKgHoAhiqfJGZCVlbW35GCzYLSKgEAAAb+rkpbEG5SpW0H1UXeFUR0p1V+DAwTHvHW5NKVJ1jl6aCWQHnTvUz0EKz78vywpcVIqd/Dd49pvhSAkhsz8R0bENv6STQWi/1U13Wfx+PpS0QXElEpgHUqPJOUn2qadr/dQZhNymU030bBI6FusczeG6FoO02wGDmveMi7KrRtgZkCs8KLwLjIQtfPJfElNYVDV1no6WAiuSVvuo86ZsAsi/tktIOkVl04rMFCT+Xklze9wcD5KrRbGv6D1g/emKvr+gGnm2qadhoRXczMVwAYrSKGJGOGrutldgdhFmm3A1B5i6+NGcquBEqSv1GlbQtE7MmgKwF8YqHrCYJJn1zReImFng4mUVAe7tl3QP/5VjfJYkZxqi3+eWXhUaoWfzZiiKxbBinl4wd7ja7rHwSDwb/pup5DRKcx830APlURT5LwV03TlA6tspK0SwAAgAUf9AfeBKbkPRYeolDfciqv934FklMZiFho21MyVedXNP7CQk+HLhKY9f5JcbAO0ARrnWnO/OLsJ6z1tABSd2Wy/bN3YUT2rKmvr3+jM68PBoMfhkKh3+m6PkgIkcvM/wCwW1V8CYqLiP49ZsyYlPiOT8sEoGNrmeoVyQsY0rJzc6uoLhzWAKJCi23dzDQrUB6es7cHukMCEyhvHAdpLGdgmMXWy/t2715ssadyJs0Kn0FgZYlU5KMlIKK/4/BvRnFdXd1boVDoOo/HcyKAOwF8aX6EncbSwkVm7iOlrDnnnHOSfrx5WiYAAEDMpcq0Ia5IxTa38wu9TwLW9Af4X/hnO1pb6iaXNX/Pem+Hb4WZ8ssbfwuIlwBY/aW4WbC47KlrB1m5O2UJQvJdUFSnFd/+GWJbPooKIZ7qik5tbe0OXdf/5PF4BhHRNGZW0mztIESI6KF4PH48AFWt3g/GyR6PZ25BQUFSX/1O2wRggCfyAoE2qFFnl5GCuwAAsGPLll8y8LIN1mdJkg15ZY35Nng7HIRJf208NlDR9CKD7gPY4i9DahMk8uYVD0m5M+n8Wc3ZAAKq9FtXvw4Az9XV1W0xQ6+2tjYSDAYfD4VCpzPzZQBU1mJIAM8Q0WnBYPD2ZcuWbdJ1/UcAHlXoeSB+uHHjxvss9jSVtLsFsC95ZY13EpGqqx0xGDy4+sahHyvSt41Jc1b3Eu3xOmsmuX0TBv7e1mrcvPjW4S12+Dt0kFfWPIFI/gOAHb0bJCSmVs/IfsEGb+UEyhv/A9BUFdoysgvbqu8AsTEiGAyuVOEBgDRNuxLAnwB810TdV5n5tlAodMDRhT6f7xYi+jOsW9sYQEDX9RqL/EwlbXcAAEB6Mh5XWNjmgYv+oEjbVmquO323iBuXqttBOTQE/Lx7d9e7+WWrcuzwT3cKysM988qayojki7Bn8QdAt6Xs4l+xaiRABar0I2uWADL+msLFHwBY1/V/RiKR0wHcA6CryfpKZr5I1/VxB1v8ASAUCj1CRL9Axy6BFRCAp/1+//ct8jOVtE4AFkw7basgPKvQ4orJZc1nKtS3jXk3Dv8cBl8CYIdNIfyASQQDZY2lk+asTpv53XaTV9Y8IcYcJkIRbNpBZFBpdZH3L3Z4WwKLB6Hos2UjhrY1b4GILPn8GhoaWnVdvxfAD5j5cRzmwkxEnxPRtIEDB44MhUKLO/OeYDD4OBH9GIBV/Y37MvMcJOGOetIFbDb5Ze//gEk2qzu/5Neqi4ZeqEbbfvLLVuUwicUAetoWBOMzJhTPL8peYFsMKU5Befg7MfAjAH5kcyhPVRd6fwYiK6ZVWk7ezKaLSKirsWlb8xb2vPOvZl3Xs2HNxM//QdO0s9BxLDD2W166iZkfYeaZ9fX1RzSnWNO0y9Ex/8Wq2pQJuq4vssjLFNI+AQCAQHnTXADKttwAvqi6aGinstdkZPLMJk0KvALA7qlZr7OUN8+fMazR5jhShhtmL/dsjmcWAnQvALtHXs/bsWXL5bUl56fk5JqSEhYrBjS9A5CaXUNmfPXi3TB2b75e1/U5Sjw6yZgxY4Yw82RmPhvASehYpL8C0ExEr7jd7kW1tbVdPp71+/1XM/OTsGC3m4gWBoPBS1X7mImTAACYXNZ8piSpsmr1vRFbvGeVlJBV51KWk1fWPIEgq0DIsDmUGINmCRb3VhUP3mZzLElNoKI5AJYPAzjF7lgYtPBYd1v+49POitkdiyoCFY0/BtP/qdKPrFuG3aF/bPR4PCebsbgmC36//wZmfgzq17uIlPLoI92xsIO0rgH4mnnFQ94F4RWFFmesGNB8tUJ925lfPOQlKagA1k0PPBgeAt/IZHySV9b0+4LZy/vYHE/SkTez6aJAWdMysKxCgiz+R3XvflkqL/4TZy/vDqnsRhLAjLbmV8DMD6bT4g901AQAuN0CqyyXy5VUHQKdBGAvUoo/qnXgBwKPvqdkAFGiUFPorSHmiQBa7Y4FQG8i3B2LZ63NL2/8bap/9maQV9E8NlDeVEcCL4Nwjt3x7KUyYwAmp2Kjn30R8W53gnCiKv3oxkbEd2z4gpmVTUNNZHRdf3jvhEOlMPPxqj3MxEkA9lJTPGQJgNcVWhyLjIwShfoJQVXx0FcJdBFAO+2OZS9HMeg+ZHjWB8qaZqdih8auUFLCIq+8aWKgrGkZsXwVgN/umL6Gwf/csWXLlZVTvVG7Y1FJoLTxZIB/pcyAGa1NC0FEDybT9rTZBIPBmwEovTrKzEl1rO4kAPtALJUN3uiAiyZVNFrdJ91yqoq8QSnlWABb7Y5lH3qCcINhyOZAefi5/FnhHyLJflnNZPLs5uMCFeE7VvQPryWgJoGe+Dtgnjm/MPsnqVrwty/sEn8jQNmsi/b17yG2bd0XhmGoHIKWDEgASosfhRB2zkQ4bNL2C/BgBMobF6qcZEbgJVWF2bmpeo1pXyaVh08R4JcAJOpT90cEmkNuenretCFf2B2MagrmznUZWwdfLJl+DuASAG67YzoAEqDbUvqe/z7klzVeykTKrq8yS+xYdB/iOzbcrOv6X1X5JAlC07TlAM5QpB+Px+P9li1btkuRvuk4CcB+TJrZeJYQ9DYUfjbE+FFVcfZzqvQTifyy9/sxGdVIoK3lb0IGmN9iornS7X5hwbTTEmnnoksUzJ3rim0aPIaFuJyAKQAPsDumg0NtkPyTVO3wtz8Fc8MZsa3cDMbJqjzaP30Hu/QnNkopT0nn7X8A8Pl8PyZSd8sCQK2u6+cr1DcdJwE4APnl4XkMVjl05pMdW7aclg7bmwBwzZNrs7a3tTxJjCvsjqUTxAG8BdAidmHR/F94m+0O6HApmL28TyyaNZZcuJgZlwA4zu6YOsFmQSJvXuGQpXYHYhWB8nAxwDNV6bM0sH3h72Hs3vRzXdefUOWTDOTm5mbFYrHVAJRNFCWiK4PB4L9V6asgEbcAbceg+B2CXZcC8Ciy+P7Rx/S/CMBCRfoJxVPXDoqA+cq88qZGInGv9VPjDgs3gAsAvoAM/DlQ1vQZCSwGEDSY9Joi70d2B7g/BeXhnlGi0cSsATg/FmcNAm5OmkMmahBMU+YVpd5Uv0PCPF3lI1j7x0EYuzeFBw4c+KQ6l+QgFosVQ+HiD+BDt9tdqVBfCc4OwEEIlDfNBFCszIDxeHVx9jRl+glKoLxxHED/gvVz402BgS8FqB6EFVLKRpJYNeKr7LVWNXkqmL28T9ToNoykzCbCcAbOBsTwBE+qDgH9o2/37kWpfs1vf6Y81nyqYcgPVelzrA1fLfgduH3PxGAw+KIqn2QgJyfnaCHERwCOUmgzRdf1eQr1leDsABwEjxG9N+bK/AnAahrJEJ+lRDfBqS4aujgw6/2zIOMvKGt5qhACvsPgfDDyiQhwASsGhFsC5eFPiHmtJFpHzGuZ+AshxBbEeBvB2NaG7rsW3XjqQYuDxpeuyXRnyl5kRPoRi34A9RPMA5joJBCdBOZBBBoUi/PxBAaI9mnknjSP+vvSDqIbqwu9aVmZbhhS6e9/a/MrkJHdtbqup/XiDwBEdCfULv56Mi7+gJMAHJTKG8/ckl8efoA7BleYDoMGqtBNBqqnD153zZNrte0tLX8mQiGSfyeqB8BDmTC0Y3EGCASWDLgAhguZaEegvOnr17cA+Ppuex8AAmjfO7vs/z/IM+39WPbu5XNyLvQHYo2UfGXNjOzldgdiF0R0HCs6ozFat6Nt9WsM4A4lBknE6NGjTyIidTu5AIQQVnQZVILTB+CQyPl2R5CqPHXtoMj84uxiQTwRwGa747GYHuh4IjkKafc7SHM8oDNrZgxN28UfAJjVJb2xL1eDjVidrutpU1B5MFwu130AMhVazKurq9MV6islzb58Dg9mukuVNoG2qNJOJuYVDl0oYzwMQFKN0XQ4TBhfQeKy6iLv9ZVF3j12h2M3RKzsqmnm986Gq9cxvnPPPTdR+29YwpgxY86E2vHVMSJK6l0WJwE4CIGKVSNB6q6tMeQqVdrJRs1NQzdVF3ovYdAvEqiFsINJEKMm7ooPS5f7/Z2BmVaq0iaXGz2GB9yGYSg5vkwWpJQPQO0a93gwGFRWyGkFTgJwMKR4CCo/HxIvKdNORoh4fpF3tpSuIQBX2x2OQ9dh4EsimlpVnJ334vQRG+yOJ5GoLhyykkDKPpPM754Jd79Bk30+X44qj0TG5/OdDeBChRa7mflehfqW4CQAByCvrHkCCD9U50BbMiI7q9TpJy81M07fWF00NB8SlwFI+fa8KQoD9I84ySFVhd6kuxttCUTMkOqa8xCh5xlTiIgeVuaRwBDRlYr1HwqFQklfu+QkAPtRMHeui8h4UKUHE/+l8hZfWrfl/DaqZ2S/0G5kns5ED4OR0tPgUox3GOyvLvJet7Bw2Ha7g0lkPJmiFGBlR16eY05F5gkjNL/fr7KraaKisiXvxra2tkcU6luGkwDsR3TzkGsBylalT6AN0hVR1v4zlVh046m75hd6b5NEXgDOk2Ri8wWIpnkGNOfMLxoasjuYZKDyeu9XAP1RpUePEZPBoAdyc3PT7cr36Qq1725oaGhVqG8ZTgKwDxNnL+8uiEqUmhD/dsG0s1Lih8cqaoq8H1UXZU9lEhcC/K7d8Tj8D3sYdL8H9IPqQu/jlVOnGnYHlEz07d6jFMzrVem7eh+LrJP9P4hGoz9X5ZFojB8/PhPqrv5FIpFIUvX7PxROArAPrljWLQw+XpU+AauGb/aqnEaV0swvHPJaddHQkU4ikBC0g/G4B3Tq/CLvXc7VviNjbwvk36r06DFsEkRG99+PGjWqt0qfRGHRokVRQNmxYVa3bt2uUaRtOU4CsJeC0ncHgHCrSg8pcZtVPeNTmfmFQ14bsSX7bGL8CMD7dseTTjAQAfNM4RaDqouzp1UWeb+0O6ZkZ8TW7H8CWKFKX2T1QvfTxw5wu92/UuWRYDAzKxssxcx35ubmZqnStxInAdhLVGTcA0BZhkzAm/NnZL+iSj/dKCkhWVWc/dyILd5sBiYB/JrdMaU2tJNBpYaIn1JdPPTGedOGODc0TKKkhKQEblHp0W3whRDd+/56zJgxyTAaussQkcrufMfH4/GUGOSW7D3YTWFKxarvG1K8D0KGIgspWJw9r3iIs22tkMllzWdKwTeB+Udw5lyYBK0F5N9aW+UTi28d3mJ3NKlMoKLpZTAuUqXftmYJdr/97OOhUCglFq9D4ff7L2Zmld1Fv4xEIicnezGgswMAwGDxsMLFHwQ86yz+6plXPOTd6kLv1VK6v8eE33QsXg6HDxkAv0ZEU3ds2fyD6qKhf3MWf/VI8G0AlB0RdjtlDNx9B143evTowao8EoVgMLgYgLJuiwC+k5WVlfSJVNrvAOSXrcphEjoUfRYMRFwsTp9XPETZmZTDgSkpYbHimOaLwHw9gIkAPHbHlOB8CGCOjPHTNTcN3WR3MOlIoKzpKRB+qko/+vkK7Fwyq0bX9TxVHolCTk7ORUKIlxVafOrxeE6pra2NK/RQStonAHkVTUFiaAotHqouyk7acZGpwiUVq45ys5hIhIK926xOMtDBegZVCaCyqnCIDqKUmTmcjFw6a8XxbsO1BkTdVHnseP0RRL9cfUEoFHpDlUeioGnaQgATFFpcoev6fxTqKyWtE4C8ssZ8IpqnzIDxVUzIU5yOaIlFQem7A+JuzxQGBZhxHgEpUdHbeegDMC8UQlTOmz54mbPoJxb5ZU0PMEHZQ0Ns6yfY+drDbwfr6kYDSOl/+5ycnNOFEKugLuFfruv62Yq0lZO2CUBuyZvuvgMGrAKg7DyMgVvmF2U/qkrfoesUPBLqFs3qqwkpxzLRWIBH2h2T+VAbIHUmek0w11QVDXWuTiYwBbOX94nFMj8GUT9VHruCj6P9s4Z7I5HIIw0NDSk9gVPTtFIAM1TpSym1+vr6pOx+mbYJQH5FUxEzyhRarGs3Mk9fdOOp7Qo9HExm0szVA0nERwqGJgX8xDgHSXdcQDsB+Q4AnckVPKpbt+DehjMOSUKgrOkmEJQ9PBh7tmL7wnvARnwPgGcBlOm6HlblZyfnnHNOP4/H8yGAoxVZzNV1/XJF2kpJywRg0pzVvUQkvgbAsao8mOiq+YXef6nSd7CG8aVremeK6NlMPEwwD2USwxjsTaBjg09BaITkRiasZJIragqHf2B3UA5do2BuOCO6Wa4mokGqPPY0/AdtH/y3DIC541jormAwqLJ63hb8fv8vmfmviuSjQogT6urqtijSV0ZaJgCB8qZ7AfxOnQM1VBcOOds5W01NCubOdcU3Dz2ZhTwZUp7EQgwi5pMAnATgOID6AWxGEZcEaBuDtxHhU2JeB4h1EnItWKzL8LStrpx2Vkpv36YzeeWNlxPoOVX6sn0Pvqq5Cxz7n8GkEsAzzHx7Koy7/ZqRI0d6srKyPkTH76gKbtZ1XVWCoYy0SwAmzVw9UIj4hwB6qPIgQRdUTfemfIWtw8GZOHt5dxHP7EcQ/ZioPwAINnqDhAuSXSyoNxhRInTcr2fslkRxsNHKJLexK2vbght+sM1JItMYZgqUh5eCcI4qi9bwIrSsrD7QH+0gopLjjjuurLKyMiUGPPl8vhlEVKpIvknX9aGKtJWRdglAfkXT35lxvSp9Bi2cX+S9VJW+g4ND+jCprPlcQfItVfpsxPDVgt9Bth70otIy1bXC8wAAIABJREFUZr4qFAp9rCoGqxg5cmT3rKysdQAGKLI4W9f15Yq0lZBWnQDzyxsHM+MadQ5kCEG/Uafv4OCQTtQUD1kCYIEqfXJ50GPYpEO9ZBQRLdc0baqqGKyioaGhlZnLVekz87WqtFWRVgkAg+6D2h7xT1dNH9KkUN/BwSHNYBf9pqM9sxqyBuXA1euQ9dB9AfzH5/PNzs3NTeoZG8w8E4CS0dVENKWgoMClQlsVaZMATCoPnwIgoNCiNS5idyvUd3BwSEPm/8LbzOB/KDMgQrfTL+jEy+iGeDz+4siRI/soi0Ux9fX1XwF4UpH8sRs2bFDZVdZ00iYBcAGXQeXfl/DIi9NHbFCm7+DgkLYIYdwFZiVPrgCQeeJIEH371yMzX5SVlfVmbm5uf1WxqMYwjEcAKNlREUJMUaGrirRJACTgV6dOW9rjmQ+r03dwcEhnqqYP38ygR1Tpi8yecPU6prMvPyMejy/RNG2gqnhUsnTp0nUA3lShzcxTkETF9WmTAAB8siplAr+16MZTd6nSd3BwcHARXlSq36vzxfHMPBjA68m6E0BEzyiSPj4nJydHkbbppE0CQKBMVdoMXJZX3lSoSt/BwSG9yS97v58E/qnURBx2x+vTY7HYS+PGjVPWU0UV3bt3nwdFxYBCiCWapgX9fv/tfr8/oWeLJM1WRVfJL29aycAwhRZxgC+pLhq6WKGHg4NDmjG+dE1mhrv9dcVjy7HzzVJEvziicQALBg4cmJ9sDYM0TXsawNUWWH0M4CUp5cLMzMy3amtrE2YuR9rsADBjjWILNyDmTiwLexX7ODg4pAvMlOGKzFG9+ANAfNeXR/rWiRs2bCgxMRRLkFKqOgbYn5MBzBBCvByLxbZqmjZf07Rp55577nct8j8oabMDkFfeVEiAsiYQ+7BOxnh0zU1DN1ng5eDgkMIEyhtLALpHtY9s2YZt8+/skgSAS3VdX2RSSFYgNE1bB8DOhXgVgIXM/K9QKGR5D5m02QEQwnieASu2Xk4iD6qveXJtokyLc3BwSELyy8NXAWRJb5HI2qVdlRAA/i/JbgZIAC/YHMMwAHcQUaOmaYtzcnIsnSeQNglA1fThmwl4wgovAo3e0dr6FJjTZofFwcHBPCbPbNIYPAcW7NJyrA1tH9aaIdUPwCwzhKyCiF6xO4Z9uFAI8Y6madOsMkybBAAAPO7IXQA+t8aNLw/MCt9rjZeDg0OqEChtPFkKVANQdnNpX1pWVEFGTLvFPEnTtMvNElNNW1vbElizM9xZMgE85vf7f2WFWVolAJXTztopSBSAEbXEkHFXoDxsyT+kg4ND8jNp5uqBcNFiAJbcr2//fAXaPlpituzfRo0a1dtsURU0NDS0AgjaHcf+MPNDOTk5F6n2SasEAADmFQ5ZSoLusM6RH84vb/q5dX4ODg7JyMTZH/QXFH8VwPet8DN2b8aepU8BzGZLH+vxeG4zW1QhiXQM8DVCCPF4bm6u0lqytEsAAKCq0PsIgEqL7IhBs/LLmq6wyM/BwSHJGF+6prcrHn8ZhCGWGBpR7Kp7DDLapkSemW8eNWrUCUrETUYIkai9W06Mx+PXqTRIywQAADygn4HRbI0bu5jwTH5Z46XW+Dk4OCQLE2cv757liiwA2LKucbve/ifiO5TOLuvu8Xi6dK/QKurq6hoBbLQ7jgPBzNeq1E/bBKCyyLtHCmMygN0WWXqYxNxJ5U3nW+Tn4OCQ4BTMDWe44lnPM+hcqzyjG5tWtK9davq+//4w8zVjxozp/IAB+2AAidq/4Ay/33+UKvG0TQAAoKZw+AcApqHjB8ACuJsA5ueVhUdZ4+fg4JCo5Ja86Y5t4bkAxlvnSvU9hg8dRUQ/hvrq926GYSTFjBQies7uGA6CYOYRqsSde+oAAmWNfwRZWRiI7WTg/Kobs1da6NlpAo++1xcZ7nOI8H0J6gPQZsFY06d79+VPXTsoka7MODgAACbOXDnIReJs2b77ZNm2qy+3795ptG5vePkvN7yKjoYvCUVJCYsV/cP/B8KVFtqu94DOqSzyfgkAOTk5FwkhagBkKPTc5PF4TqitrY0r9DAD0jTtbQBn2R3I/hDRdcFg8B9KtFWIJhslJSxWDGh6AaCAhbZbQfLi6sJhDRZ6HpJJ5U3nC+BWAGMBHGg02B5irgTcD1QVD/7Q4vAcHP6HG2Yv92yKZ/0cRuyX5PL84ECvMVq/4ujnK5vbP17yh9oXK+fCst2+g5Nb8qa7b/8BT1u8+LdIQWNqpnvf2/c/+v3+Amb+NwCXKmNmvjQUCi1UpW8WPp/vbCLSceDvPjv5g67rSjpCOgnAXgrKwz1jxEEwhlvnSjsJuLSqyGvrPdRAeXgEgIcAvrCTb4kBVOFxt91TOe2snSpjc3A4EHllzRPA8VIS4uTOvJ7b96Dtgzc+b19bd8NbixfZdt47vnRNZqar/T8A8iy0lQQuqCoaOu9Af+j3+29g5tkK/f+j63pS3ILy+XzTiajC7jj241ld13+iQthJAPZh0szVA4WIvwPAyn7WrSwxef6MbMvvok4uXXmCFK7fgeg6gI/kCWAbwH8YsSV7ZkkJJdw2q0PqkVfe+F0icT+Yj+gLUbZ8hdYP32hs/aj26lBt7Qqz4zsUE2cv7+6KZ1UBGGelL4Hvqioaev+hXqNp2hMAVF05a+vRo8eAxYsXtyjSNxW/31/IzH8D4LY7lr3U6bqupEjUSQD2I79sVQ6TeBMWteEEADCiYFxZPSPbksEUBeXhnjHIXwPiNoC7mSC5nJmK5xd7l5mg5eDwDQoeCXWLZfa6nSXfQUJ0+cw6/tWnaFv92sux9Q03LFmyZL0ZMR6KgtnL+0SNrIVWjPXdj8rqQu/lIDrk0ce4ceN6tLS0NAE4SUUQyXIM8DWapo1Gx1wDZQV4h8FHuq6fqkLYSQAOQKC86UcA/glrP584iK+tLhz6rCqD8aVrMjNc7YUE/BYdgztMhAwwzxEeUTJv2pAvzNV2SFuYKVARvgIsHwIJ0xvLRDc0Gq0fvv7k7rXv/bqhoUHJcVZB6bsDYi7PywCdqUL/YDBBP6pbj7GdLdzVNG0SgPmKwinTdX2GIm1VCL/fP4GZr0bHTY2eNsWxR9f1XiqEnQTgIHT08Oc/W2zLxHxTVfHQUnNVmfJnNV/G4D+B0akz0y7QSoyZbk/kT059gENXyKtoHkssHwJwhkofZonoZw3tratfvX/rxysfDIfDps0KKSgPfycGLAbY0jGvYDR7smhM5fXerw7nbZqm1QHwK4joA13XT1egawlerzfjqKOOOpeZJwC4BMABi05V0aNHj54qjlCcBOAQBMqa/gLCLRbbMoDfVBdlP2SG2N7K/odg/fWWrQDf5xkgZlVO9VozfMkhJZg0K3wGSfkQgcZaamxE0frBm9sjHy25ackr8/8PXbwxEChtPBku8SrAg0yKsLN8brhJWzDN+9nhvlHTtAsBqGiNy0TULxgMblegbTk5OTmnuFyuS5j5EgDnQvGRMRGdHAwGPzFd12zBVKLjemD4WQA/stqbQY/t3LJ5Rm3J+Ud0f3ZiWdgrCA8S+BKzYzs8aC0T/nCsq+3Zx6edFbM3FodEJu+x8BAY8m4AUwlk23eTjOxC2+rX1rV++NbP9Ldef/NINCbPbNL2jvS1ZKrfPuwgIcZUTR/SdITvJ03TVkPBE66Ucmx9ff3rZuvaTW5ubk/DMMYy84S9OwTHm+3BzOeEQqF3zNZ1EoBv4YbZyz2b41kvwuLK3Q7oVUSjU6tvPmNHZ98xaebqgYLi94DwMyROFSsAfArwo32795ztNBNy2Je8mauGkqDbwHQlKHG6kxq7N6HtgzeW7/5oyU+X1dV1em5IfkW4gBlPm1Rg23kYUYAmVBd7u7TIapp2B4A/mhTVf2Hm20OhkCk7m4lKTk7O8UKIz83WVZU8OQlAJxhfuqZ3pqu9ForPIg8EAWEWrkurpw9ed6jXTZqzupdoj98Gxi0AulsT3RHxOYge8kR2PlF5i0/NKDKHpGByedPZhpT3kBATkMDfRbGtH6M1/MrL8S8af1ZXV3fwAldmClQ03QPQ3bD870MGJF9uxk2i0aNHD3a5XKYPSiOiJ4PB4M/M1k0k9t6m2GO2rhAiv66urtps3YT9pUs0CkrfHRATGbWWjev8XzYLEnnzCocs3f8Pbpi93LPFyLqBGXcDOMaG2I6UTURUAYo/VjV9+Ga7g3GwhpISFiv7N01g8K9AItfueDoNM9o/Xxlv/6h2ltz60Z21tbX/8yXfccMmModAV9kQnQTouuoi71NmCfr9/vXMbPatizd0Xb/AZM2EQ9O0GEzefSWinwaDwWfM1ATSfBjQ4VB545lbyGWcz8BqG+yPkSxr88vD//PlklfRPHZLPOs9ZpQhuRZ/ADiWmX/Phmt9oCL8zKSKxmF2B+SgjmueXJuVV9509YqjV65mogVJtfgDABEyvzvC3eu8GTOyzrxy0/mTfnxrbm6uGwAKnggfnemKvmLT4s8MzDBz8d/LNx42TOBEBZqJiIrbT841wEQgr7zxuwRaAkUNM74FBuNuwXhTCnoY4BwbYlDJ65KodNfmzS8dafGjQ2IxcebKQW5yTWPIQpBQ8iVmBxxrQ2RN7ZZ4y64Hep1zeaEF12sPHAdwy/yi7EfN1tU07W4AvzdZNqLrurV1ETagadpnAL5rsuwtuq6b/u/sJABHwMTZ4RNdcV4C4Ht2x5KifEGMZwyiJ2qKvB/ZHYzD4TG+dE1mljs6SRqx64jcFyZSYV8q0ZkWv0eK3++/mpmfNlvX4/F4kmAyYJfQNO0TAKZe/VRVQJlIVeJJw4Jp3s8mVay8iNhVS8B37I4nBTmOCbcL8G355U21kuiJo7p1n+fcHkhs8mauGgqi68Et1zC7e5Nwvl5UwaD7q4uylSz+e1FSl9PW1tYdwC4V2gmEir4nSiYUOr+hR0hN4fAPJlWszBXsfp3Bpt/7dAAAEAPnE/P5O1pbWgPlTQsZ+L+MAfSK01woMejYDZP5HG+/hoTo6JtOzteKSojxYHWx9y7FNqZXsgNAt27d0iEBUNHvRMkvlfOb2gVqCod/EJj1vh/SeB3A9+2OJ8XpDqCAgILYFt4eqAi/yMyVO7dsWeTUC1jLpbNWHO+WrsukEb1axPkMgIjcWXaHlSZQSVWx1+yz+W8gpRSkoBdTNBp1poYmEE4C0EWqpw9eN3F2+HxXnF8HcIrd8aQJR4H5JwT8pO+AAdsC5U1vMPBihjsy35k/oIaOzpLGRI5HryDpGgYQCZd1AzMdwET066pC7yNWmAkhejN3qRPyAWHm3aaLJh6mb9cTkZIuqk4CYAILpnk/u3TWilyXdL9GQNIOvEhS+uHrnYFYVjRQ3rgEwIuS5Ms1hcM/sDu4ZGXSnNW9KBLPJSMeADgPxP0AAedJ3xYkERdVFWY/ZpUhM5s8LRQAEK+vr0+H5l+mJwDMrGSX00kATOLF6SM25M9aeR6zazEYw+2OJy0hZKBjgMxYwS4Eyps2AVgCotcMCX1BsTdsd4iJysTZy7sLo7uPZPQ8bm8bT23RESDhgsv5irAXMpjw8+rC7CctNlYx7S4dnv5BRBlm7544OwBJQNX04ZsLngj/MNbOCwD47I7HAccCKABzgYuAQFnTZyB6DUQLdmze9GK61w5Meaz5VGkYUxl0MUflaBLSDXKDslLmun5Sw0CEJP94vgntfY+AwQo0Oz3TJJlhZtNbsRORkqJn536uyVRe7/3K075rLID5dsfisB+EEwH+GVhW9R0wYE1eeePldodkB5NLV54QKG/8j2HI1Qy6D4CfhHNnL8HYIUhebEZv/yOAAPgV6KZDTw8C0FuBrpLdEycBUEDlLb42z4DmKWA8bncsXYLRjNRNZE4i0HOBivAz40vXpE01W6C8cZx0uRoBmooU/P2XbTsQWbcMzNL8CjaLINAGlvLcqsJhb9nh7/f7hwEYoEA65WtycnNze0DBzjoRKbk6mXJfAIlC5dSpRnVx9jSASuyO5Qj4goAbdmzdMry6KDsgJPwMVtEb3H6Yf5Lpbn/+htnLlTTaSCQCFeHxYFoAoK/dsZgNx9vR2rgAXy24593doX/8kAUPli3bku9nltEcd8M3f8awRhujKFCkm/IJQDweP1qFrmEYShIApxWwBQTKw9cA/Hckfs1FCzHKjG7u+2uuO/0bW0555U0TifCoXX3PVcLAA/OLsu+wOw5VTJy5cpBLuFZAzfakbTBLRD99B3tWVH3GbTt+EwwGnwPw36f/vL+95+Po7qdE96NPtTHMzrLMcHsuXTDttK02xiA0TfsYamadjNN1/VUFurYyatSoY10u13ghxCUALmTmPgpsztZ1fbnZok4CYBEdT1/4N6Dkh6OrxED0hIzK39fcNHTToV5YMDecEduKaWC+A8BxFsVnBVISn1FTOHSV3YGoIK+8aREBF9sdh1kwS0TXv4vWpoU74js23tu7d++KRYsWtR/kxTTpL0uvZEKpK6uXkic0E/i3p33XdZW3+Gy9Jqdp2mQAKuoODI/H07+2tjYVCgFJ07SRACYAuBTASCjeTTcMY9DSpUvXma3rJAAWkvdYeAhJrkmkJ2gCVRkUv+Nw78wXPBLqFsvsUwjgdoBVnBdaDgHPVxVlq9r+tI3ArPA5kLzM7jhMgRntG1aipfHFXfGvPnukvb39rw0NDZ1q/nTD7OWeL3buuZUye/5OuLMSpaEBg3F3dZH3fhDZXbdAPp9vORGdqUD7HV3Xz1GgawmapvVi5nEAJhDRBFg8A0ZK2V1FDwUnAbCY/LL3+zHJFwA+z95IqF5IvnXejGy9KyoF5eGeMcIMMN8CoL9JwdkDI+rJouMqr/d+ZXcoZhIobyoHUGh3HF2CGe0bm9Da9OKu+LZ1f4lEIn/r7MK/P+NL1/QWrZ8/5Olx1PUQbpfZoR4GLZD4qU2V/t/A7/f/hJmfUaHNzA+GQqHfqNBWxciRIz3dunW7gpl/DCAXQIZNoezSdV3JzrGTANhAbsmb7j79B/yVCEU22H9IRHdVTR/yvJlPHOMeXtmje3dxPUC/gvmzsC2DQD+uKvL+0+44TIOZAhXhzwCcYHcoRwKzROyLMNqaXtoV3frJnyORSOmRLvz7M2nm6oHc8sVjrl79LwUUNL4/BATaYEgZqJkx1PRz3SPB7/cfxczvo6N3hukw80WhUGixCm0V+Hy+cURUAdi/W8vMa0KhkIrGTE4CYCeB8sZfAvRnWFMcuJkI9w5wRR5/fNpZSrpKAR01AtGtuIoYtwN8miofhfy7uij7SruDMIv80qbh7MIKu+M4bGQckU9CaH3/tY3G7k2PxuPxx5ctW6akEjpv5qqhHNn+tOje7wwV+vsjI7s+yszqM6ayyPulFX6dgDRNex7AZCXiRDvdbvd3amtrk2Kct6ZpdwK4DwmyPjLzW6FQKFeFdkL8BdOZ/IpV50kWz5G6M6VWEB6Rme6HDlTZr4qSEhYr+zdPBPEvGTjfKt8uw/jKc0zzMZVTpxp2h2IGeWWNdxKRyrnxpiIju9G25i1EP9FXGq3bH3S73ZW1tbWWdGyc9Nd3LkQ8Okd066NsByuy5i3seXfubmLpr6urS4iCU03TbgagcsjQE7qu/1yhvmn4fL7biOhBu+PYj6d1Xb9GhbCTACQA+bNWHsPS9S8AF5goKwG8IFjcOq94yKcm6h42kypWnkbsLiTw9egY65vQCAl/V2sjEoVAeZOOJGhLHd++Hm1r3uLop++8BCP6cF1dnS1NcMBMgUdCP5WgMpHVu4dpskYMe975FyKfhL7+T5+5XK7cJUuWrDXL40jw+/0FzPwcFFaxM/N5oVBoiSp9s/D5fOcS0ZtIsP44RPT7YDBYokRbhajD4ZNb8qa7b/8BD4JwM7r478KghZJxe6INv5k4+4P+wohdR4zrkcijk5n/VF089E67w+gqewtONwFsZ6HbwZFxtK9/D5FP9O3RL96fTUR/DwaDn9gdFgCMuShwTtZ3RyzrNmQ8RGbX8gBj9ybsqpuN+I4N+//RRnTcjbfl93Tvlb9/AVDZCXOdruvfxz69GRIUoWnaSgDZdgeyP8x8bSgUekqFtpMAJBiTKsKTBPPTOLJubcslcFtNUfabZsdlNoGKVSMhxQ0g/BiJtitAWFldmD3C7jC6Sl5F+EpiTriCRmPXJrR9EuLIJ/VBtO+auX379vnhcFjJsJOuoGlakDK6az2GXIys034Ich1+s8johlXYFfoHOHbQG1zbpJQT6uvr3+5SsIeJpmnFAP4KQHVyeKeu639S7NFlfD7fJUT0ot1xHAiVOyhOApCATHms+VTDkHMAjOncO2gtMd9ZVeT9TwLcJT4sJs7+oL8rHr0KED8BeKTd8eyFhWGcOO/G4Z/bHUhXyCtvfJZAV9kdBwBwtBWRzxrQvrYesS0fz5dS/rq+vj6hh8NomnY5gOcAwNWjH7oPy0PmSWeD6Nt3iDkWQcvKKrSteQv49tGwbQBu0XX9sS4H/S1omtYLwGMArCh03RGJRE4y69aGSjRNexrA1XbHcQBkPB4/SlUBrJMAJCrMFJj1fh7YKALoPAD7P35IgJYR8Wx3f/p35VRvwj1BHS755Y2DJcRVBL4KalqRdhoG/WJ+kXe2nTF0hYK5c12xLUM2AehnWxAyjujGJkTWLkX7hkZA/reW7yld16+1La7OIzRNawQw5Ov/4OozEN1PH4uME4ZDZPb8xhuMlm1oX/c22j54AzJy2N/Zi10uV/GSJUvWdC3sA+P3+/OZ+a8ATlShfwD+oOv63RZ5dQWhadoXAI6xO5ADUK/rurIaHicBSALGl67pneGKZAsSxwOAIWlTZhY3pVrDmv/CTPkVzRoDl4E5v2OMr7UQo6aqODvPal+zmDyzSZMCQat92Ygjtul9tK9/D+3r3wNHWw/0so26rp+AxD8XhqZpUwH85xt/QAR3n4Fw9RwACBdgRBHftQnG7s1dtWxn5jlut/uBJUuWrO+qGABomnY+gLvR0czGKvbEYrGT3n777W0Weh4RY8aMOVNK2WB3HAfh57quP6FK3EkAHBKeiWVhr4tkwd4RtoMtsm3p271H/6euHZQUd5f3J78ifD8zW1LIyEYMsU2rEfl0OWIbVkJGv71jqZRyWH19vZ0T7zqL0DRtOQBLegTsQ5yZXxRCPNPW1vZKQ0PDATOpg6Fp2kAAU9GxrW117CCi3wWDwfus9j0SNE27A8Af7Y5jf5h5TXt7u7ehoUFZ35ZEn07n4IC9txnCAEqmVKz6vgHXWIAngnEh1FUw99jRuudcAEnTvWxfGHyJSn3Zsg3RL5oR/fJ9RL8Ig2OHlye5XK5xAJIhAZBSymIhRBDWPjC5iSjAzIGsrKw2TdOWAqhn5vddLtdaZt4CIIKO7/BeAAYA+AGAbGY+D/scW1gNM6/p3bv3w3b5HwHj7A7gAMSJ6DqViz/g7AA4JDEdcwhoLFjeCeBss/UZVDq/yPtLs3VVM7l05QnS5foMCn6/W1bMQ/TzlYjv6nITu8W6rl9kRkxWoGnaEwCuszuOZCCZ2v7m5ub2jMVi22Bfn/8Dwcw8LRQK/V21UUI1PHBwOBwqi7x7qguHVIO4VIU+gS9Voasa6XZPgILFP75jA1qbXzFj8QeAMTk5Od3MELICj8fzGwBf2B1HEjA3WRZ/AIjH4+cjsRb/Pcx8pRWLP+AkAA4pgCdDvASQita9388ve1/JEA6lME9QIRvdaOqOfTcA55opqJLa2tqtzHwNkqBw0UY+lVJOtzuIw4GZE2UXSgKYS0TDQ6HQc1aZOgmAQ9Kz9zaEkkYqkgylZ+lmM750TSaAH6rQjm4w98ieiKaaKqiYUCi0mJlV9sxPZmIArqivr0+am0m5ubluAFNsDMEAECSiO4hokK7rl1vdCdMpAnRIDZhfAiHHbFkCLgHwqNm6qsh0Rc4DqJfZuhxtRWyrud9NRHTZyJEjZxxuhbud7Ny5886+ffuejSTavbACIrojGAwutTuOwyEWi10IdUPYDsZWAK8Q0ULDMF6xO2FydgAcUgLpooVKhBljJs1ZbfqCqg6hZPu//YswwNJs2d7dunULmC2qknA4HPV4PFMAJMTMggTh2WAwmHQ7I0RkRec/ZuZ3907kzBk4cOB3dF3/cTAY/Lfdiz/g7AA4pAg1vxiyIr+ieQODjzdVmJBBbbGxAKpM1VWGmvP/+OYP1wMwfUwuM/8EHQNpkoba2tqtY8aMmSilrANwtN3x2MzLkUjkZ0iy2ohRo0b1ZmZVjb52A3gVwEsAFoVCoY2KfLqMswPgkBoQMYgXqZEWSVEHsLdg8VQF0jK66cNvdsMzhwvHjBlznCJtZdTV1TVLKccC2G53LDbyjsfjKVB9V10Fbrd7KjoKUU1HCJGr6/oUXdfn6LqesIs/4CQADimElPySGmWeAOaE75mhrmCRlsV2bHxGjTZczGzFYBrTqa+vf4+ZL0HHE1+68Y7H45lQW1u7x+5AjgRm/rEi6XV1dXXvKdI2HScBcEgZMki8CqBdgfRxk8vft7yd6uFCirb/wfxSfX19IzMrGVLDzD9DkjYlC4VC9ei4ddHlIQBJxGKPx/PD2trarXYHciT4/f4fEJGSIk5mfgFJdBziJAAOKUNlkXcPwHUqtCWkmsXVJArKwz0B6uT46MPj6wJLInpBhT6AIX6/PymbLgGAruvLXS7XaAAf2B2LBbzQu3fvScn65L+XX0NRwklEz6vQVYWTADikFAxScgzApLa3fleJslQ1F+GLml8MWbH3/6tKAMDMt6nStoIlS5as9Xg8fiJ6xe5YFBFn5rt0XZ+6aNEiFbtslpCbm/udvYWnKtig6/oyRdpKcBIAh5RCsEvJdUACnZM/a2UizgsHAAhBSnYoiLAQRAwAuq43APhYhQ8Af05OjrK551ZQW1u7NRgMTgBwDzqavKQKG5j5glAodD84AEojAAAVi0lEQVQ6OtYlLbFY7JcAshTJVyKJtv+BJD13c3A4FIHypg+hohqeEQVhKwFbmbEVhE0AtgG0lYi3suQtYGyGi3dLckkPGzsBIBalFiODo67MjHjNdad/o2DshtnLPRuMjJ4A4CFPHxfHhGTKZOLuAm4PS6M/k+jPkP0FxLEM7g+gH0D90fH/jwXQ2/S/LwBmnjy/eOh/r0D6/f67mPkPKrwAzNd1Pan6AhwMn893LoAniEjFrQzLIKKFRHRtXV3dFrtj6SqjRo3q7Xa7PwXQV4V+Eo24/i9OAuCQcgQqmh4F4ya74/gWdqPjGlLi9uJgRGU3d/99k5Zzzz33u4ZhrAXgUuAoDcPIXrp06fsKtC0nJyenmxDi9wBuRiL/Ox+Y9QBu0nV9nt2BmIWmab8GoGpM8Tu6rp+jSFsZzhGAQ+rBavoBmEwvJPqiQLxk/x2LJUuWrEdHkxMVCJfLldS1APtSX1/fpuv6bQBGECnqVGk+USJ6qEePHoNTafHPzc3NAtQ9FDDzk6q0VeIkAA4pR7uR9RbS8262ufCBFy0i+odC15/4/f7hCvUtR9f1cDAYvJSZLwAQtDueg9AGYKbL5TolGAzevnjx4ha7AzKTWCx2MwBzu4T+f9oyMjL+rUhbKU4C4JByLLrx1HYAb9gdR7JDcB3wRkWvXr1qAKg6E3al6sS9UCj0hq7rYwDkoONGRSIUCm4H8HA8Hh+k6/qNe3d4Uorc3NzvALhDlT4zP19bW7tDlb5KnATAISUhIFm2XBOVT6qKB394oD9YtGhROxFVKPT+oc/nU9Wn3XZ0XV+q6/plAE4kopuY+V2LQzAAvEZEP41EIifoun7bsmXLNlkcg2XEYrH70HHkpoqZCrWV4hQBOqQkk2auHihE/HM4P+NHCP2tush70DPTUaNGHet2u9dB0ZUqZl6zc+fO7HA4HFWhn2homuYloouZ+SIAY2D+5/oZgDeI6I1oNPrS22+/vc1k/YTE5/ONIKLlUFO0CmZ+KxQK5arQtgLny9EhZQlUNK0AI6XOk62CmMdVFQ89ZLGfz+ebQ0Q/UxUDM/8qFAql5HHAoRg/fnzmjh07hgshzgQwEsBpAE5Exxn2txWOtgP4CMBqAB8S0WrDMEL19fUfKQ06QdE07Q0A5yu0yNN1vUahvlKcBMAhZcmvCN/PzHfaHUcS0tJuZPbbW0txUHw+XzYRrYK675EdHo/n1GTtOW82BQUFro0bNx5LRFlSyt5E5CYiFkLsYuY9Uso9uq47xa978fl8eURUrUqfmdeEQqHTkcTNkRL7GpKDQxeQLBcSyEkADht+9dsWfwAIhUJNmqa9AuBiRYH0jcfjdwD4lSL9pKKystIAkNDjZROF3NxcdywWe0CxzaNI4sUfcIoAHVKYjAHvLwOQFmedZkKHN0/hd1DY/pSZp+Xm5vZUpe+QmkSj0UsAnK7QYn2fPn1UXoe1BCcBcEhZKqdONcBI1eEsqmAyjE43UtJ1fTmRmgFMe+kRj8fHK9R3SEGI6DLFFvcn81Ckr3ESAIfUhvCi3SEkGSvm3Tj888N8zz1QuwuQo0rbIWVROVhq3Y4dO5Ky89/+OAmAQ0rT2mrUwOkK2GmI6NnDfU8wGGxg5vkq4tnLSQq1HVIPAeC7CvXvS5XrqU4C4JDSLL51eAsBT9gdR5Kww52Bp47kjUIIleeh3RRqO6QYXq/XDcCjSD4ipfyXIm3LcRIAh5THnUn3MfCl3XEkPlxSeb33qyN6J/N0s6P5GiJKyjarDvaw9+k8okg+y+VyKet9YTVOAuCQ8lRe7/1KCLoKjJTYtlMDV1cXZpceyTtzcnIuAKCsUE9KuVqVtkNqwszNCrXv1jRNZWthy3ASAIe0oGq69w0IcTmrezJIYvilvt17/ghER1LIJ4QQD5oe0j64XK7XVOo7pB5E9LpC+WOYOSXGVjsJgEPaUF04pJpAOQA12h1LIsBABIzfjdiSPfGpawcdUWLk8/muREe7WlV8XFdXV69Q3yEFEUI8C4U3U4joFk3TBqrStwonAXBIK6qLvCs8A8JngPlqdMxmT+pOXkfIJgIelW46rbo4+76SEjqizyA3NzeLiO4zO7j9eBjp+W/k0AXq6upWMbPKiaDdAdyrUN8SnFkADmnN+NI1vbM80bOkwd8H0UmAPIlAgwAMAnCcvdF1iVYC1jJhLRjrAFpHkGsNkuGawuEfmGGgadqtAB4yQ+sgfBCJRIY2NDTEFHo4pCijR48e7HK5VkFdy3uDmUeEQqEmRfrKcRIAB4eDcM2Ta7N279l9knThWGYxEOBjiMQxzDyQQQMI+A7ARwE4Ch3zxlXP1ti99387AdrMxF+AabOA3CxJbHRBbpbgL4l4fdX04ZtVBuL3+49i5o8AHK3KQwiRX1dXp2yYi0Pqo2naEwCuU6VPRAuDweClqvRV4yQADg4mUfBIqFu8W49ehnT3FmT0IXL1kUwCAAjoSWAPAEiWgkj0IXA7QK1fv18avAsuYQCAC9gTk7wbHuyWhrF7YeGw7fb8rQ6M3+//CzPfotBiqa7rPig8x3VIffae038IoIcqDynl2Pr6epVFh8pwEgAHB4fDYvTo0Se5XK7VADJVeQgh/HV1dboqfYf0we/338fMv1VosULX9ZFIwloVpwjQwcHhsBBC/BEKF38iet5Z/B3MgpkfBLBJocUIv99/hUJ9ZTgJgIODQ6fx+/0jiUjll10MgMqnNYc0Q9f13QCU3lZh5vu8Xm+GSg8VOAmAg4NDp9m7lary6HB2MBj8UKG+QxoSiURmM/MahRaD+vTpc6VCfSU4CYCDg0OnGDVq1LEA8hRa7GbmPyjUd0hT9l4lvUOlhxDi5yr1VeAkAA4ODp3C4/GMg8LvDCJ6KBQKKb2+6JC+hEKheQCUdZVk5lF+v/8oVfoqcBIABweHTiGl9CqU397W1vaIQn0HBwZwj0J9l5TydIX6puMkAA4ODp1CCHGMQvmjunXrlnRbqA7Jw8iRIz1E9CvFNip/R0zHSQAcHBw6BTMrvefMzI/4/f4ClR4OaQtlZWU9zswXKTU5somatuEkAA4ODp2CmdcrthDM/MyYMWPOU+zjkGb4/f4/ALhGtQ8zf6baw0ycBMDBwaGzLLfAI0tKWZOTk3OOBV4OaYCmabcq7gT4NS0ZGRmrLfAxDacVsIODQ6cYOXJk96ysrC/RMfhINduZ+YehUGhFV4XOPffcUw3DuIzo/7V378FxVXUcwL+/u7tpQx+JVEUcLaIoamaQIdh092zKIiNQVCxCfAHVgo/O4KgoQhUE0fFVVEQeg844KE9fCPgKxNouyT13k2rVUYIP3q3ToK00pNak2d3z84+0vqaPdPc+NpvvZybTmWT3/L4z2e755dyz98hJzrmXikgbgB0AHhORfufcd4IgeKr+yDRd3d3dplqtniUiSwAchamDtHYAeEhE+sbHx+/etGnTs/XWyefzF6nqDfWOM033WGvfElOtULABIKJpM8ZcC+DDMZXbBuBka+1wLU82xhwL4DMAzsaBVzsdgDtV9Qo2AtEyxpyMqSOkTzzIQ8dE5Ppyubx2aGhorMZa7wHwDcQ3z73OWrshplqhYANARNO2ZMmSRZlM5mHEt9t5h3Pu9FKptHG6TygUCs+dnJy8REQuBnAot2edFJGby+XyJ2uddGjf9qzCfBbAoW7y/LuIXLNgwYKv9vb27p7uk4wx7wdwE+K7zN1rrT0jplqhYQNARIckl8udLSLfR3zvH6Micrrv+0MHetCpp546b9euXR8F8DEA8+uo9zSAK6y1t2AGnvDWSPL5/HNU9ZMALsKhNWP/71ER+YTv+z/AQY6INsZcgqlVhrhen9sqlcoJQ0NDf4mpXmjYABDRIcvn819W1Y/EWHKnqq4IgmD9//+gUCikJycnV4nI1QCODLHmb0TkI77vF0Mcc1YoFArpSqXyflW9GsCiEIceBHCptXZgXz80xlwN4MoQ6x1MdU9zui7GmqFhA0BEh6xQKKTL5fJ6AN0xlp0UkVW+79+59xv5fP5NqvoFAK+OsO79IvJFNgIHt3z58jljY2PnY2oV5hURlrrPObemVCr9Efj36/FmABdGWHNfLrfWfi7mmqFhA0BENenu7j7SObcJ4f7VfTAK4DLn3IMislZEYrtngIhsdM6tDYLgHvDSwP/o7Oxsa21tXa2qH0J8r4cKgG+q6jWe512nqm+Iqe5eP7LWrsBBLkk0MjYARFQzY8xSABsAzE06S4z+rKpfamtru/VQNqY1o+7u7iNV9cOquhrAwqTzxOihSqViZvpmUTYARFQXY8y5AG7D7Hs/2SYidwG41ff9TUmHiUtHR0dLW1vbchFZCeCNqG9z30y0PZVKLenv738i6SD1mm3/YYkoAsaYzyHi89YbmYj8AcD3PM/7djNMDPtijOlQ1fNFZBVm2KE3ISoDOG2mfd5/f9gAEFEYPGPMXQDemnSQhDlV3QDgbs/zHvB9//GkA9Wqp6cnNTIyciKA5ar6dgDHJp0pYSoi7/Z9/9akg4SFDQARhaKjo6Olvb39JwBen3SWBvK4qq7zPG/d+Ph4Xxi3t41SV1fXEZlMZplz7k0i8gYAhyedqVGo6mVBEKxNOkeY2AAQUWg6Ozvb5s6d+yCA1ySdpQGVVTUQkZ+KyHd932+Ik+Oy2WzO87yzAJyBaD9OOWOp6nVBEMR1C+zYsAEgolAZY14IYADAS5PO0sDKqnpbS0vLZcVicXsSAYwxJwL4GoBsEvVnClW9KwiC89CEH/3kccBEFCpr7dZqtXoKgC1JZ2lgGRG5oFwu/z6Xy8U+ARtjLsbUXfU4+R+Aqt67e/fud6EJJ3+ADQARRWBwcPBJ59zrAGxNOkuDe4GIrDPGxHZHRWPMlQC+AiAVV80Z6uctLS3v2LRpUznpIFHhJQAiikx3d/ernXMbMHs/NjZdf1XV44Ig+FuURYwxZwK4L8oaTWK9c+6NpVJpPOkgUeIKABFFZmBg4OFqtVoAVwIO5ggAX4qyQGdn52EAbo6yRjMQkQdmw+QPsAEgoogNDg7+wTl3EoCG2PXeqETk3Gw2e0xU47e2tr4X8Z7bMBPdt2DBgjfPhskfYANARDEolUqPquoyAI8lnaWBeZ7nnR/V4M65lVGN3SS+OzEx0TObzndgA0BEsQiC4KlKpWIAzJr75tdgRRSDLlu27MUickIUYzeJG62172zmDX/7wgaAiGIzNDT013nz5p0EoDfpLA3quFwud1TYg1ar1biPyp0pVESuttZ+AE36Ub8DYQNARLHq6+vbNTo6ugLA7UlnaUQisjyCYc+IYMyZrqyqF/q+/6mkgySFDQARxW54eHjSWrtSRNYgvr+8nhGRNc65l4vI1wA06rXeUCfrQqEwF8ApYY4Zou0iskZEjtrzO6nEVPcZVT09CIJbYqrXkHgfACJKVC6XO1tEvg1gXkQlJkXk5nQ6fVWxWBzd+818Pr/YOXe5iFwAIB1R7VqMO+cWhbUT3RizHMDPwhgrRH8XkRvK5fJXhoaGxvZ+M5vNvtLzvE8D6ImqsKo+oqpnlkqlP0ZVY6ZgA0BEievu7j7BOXcPgMUhDutU9Q7P86440ME72Wz2GBH5uIicC2BOiPXrcYa1NpR9EsaY6wF8IIyxQvA0ps4fuMFau3N/D8rn8wVVXQvgtSHX781kMu/870ZwNmMDQEQNYcmSJYtaWlruUNXT6h1LVX+RSqUuHRgY+PV0n5PL5Z7ved4qVf0ggBfWm6FON+7ZmFY3Y8yjAF4Wxlh1+J2I3FitVm87hJUNyefz56jq51F/flXVtUEQfAKzcLPf/rABIKKG0dPTk9q6detVAC5HbXuUfuecu7RUKj1Qa4ZsNtuaSqXO39MIdNQ6Tp2esNbWfZri0qVLX5VKpR4OI1ANHID7ReRa3/fX1TpIR0dHS3t7+0WYek0sqmGIZwCcF9aKSjNhA0BEDSebzZ7med43MP1LAltU9cogCG5FiH/hGWOWisgFqvo2AAvDGnc6PM/rGBgYqGvyNsZcAuCakCJN1+MAvpVKpb7V398f2omQhUKhvVKpfHxPYzZ3mk9bX61WLxwcHHwyrBzNhA0AETWkQqEwv1wurwawGvtfAh4WkZuq1eotUd6+tbOz87DW1tZzVPXdAJYhnpP0LrXW1jV5G2PWAzg5pDwHslNV7xWRW6y1RQAaVaGurq4XZTKZi1V1JYDn7uMhDoDved61AwMD90WZZaZjA0BEDc8Yc6yIHKeqi0TEAdjmed5v+/v7n4g7S1dX1xHpdHoFgLMxNblG9QmCorW25sm7q6trYTqd3g4gE2Km/zYK4EcA7s5kMn3FYnEiojr71NPTkxoZGTneOfcqz/MOU1UBsDmTyfyyWCxujzPLTMUGgIioRtls9nAROU9ErouoxCSAZwGMYWrC/Sf+c/+CSUxN7nvfx+cDaMXUpYr2PV9RvMc/LSKrduzYsX54eHgygvEpJmwAiIjqZIx5CuF+hLGRfd1auzrpEFQ/3gmQiKhOqnp/0hniIiI/TToDhYMNABFR/RrtTntR2Z1OpzckHYLCwQaAiKhO8+fPXwcg1k1wSRCRYrFY/EfSOSgcbACIiOrU19e3C0B/0jmi5pzj8n8TYQNARBQCEWn6ywCqyrvpNRE2AERE4fhx0gEi9qdSqfRo0iEoPGwAiIhC4Pv+46r6SNI5osLd/82HDQARUUiaeZKsVqtNf4ljtmEDQEQUnmadJP/R3t7uJx2CwsUGgIgoJKOjow8C2Jl0jgj09fb27j74w2gmYQNARBSS4eHhSVX9RdI5ItCsKxuzGhsAIqIQich3ks4QsgkR+WHSISh8bACIiEK0cOHCewFsTjpHiG73fX9H0iEofGwAiIhC1Nvbu1tE1iSdIwwi8iyAq5LOQdFIJR2AiKjZbN68+aHFixe/BMDxSWepgwNwnrV2Y9JBKBpcASAiisDExMT7ROQHSeeoUVVVV1tree2/iXEFgIgoAiMjI27z5s13L168eBJAHkA66UzTISJ/cc6dUyqVZmrzQtPEBoCIKDq6ZcuWgaOPPvoOVZ0D4BgAc5MOtS+q+oiIfHFiYmLlxo0b/5x0HoqeJB2AiGi26OzszMyZM+d4EXmNiLxEVY/e+y+A5yH6VYJxAFtV9UkReUJVnwTwmKr+igf9zD5sAIiIGoPkcrnnAXi+qh6RSqUOd861A1iw56vV87xW59z+VhB2AqiIyJiq7hSRMQA7ReRvqroNwFZrbTPepZCIiIiIiIiIiIiIiIiIiIiIiIiIiIiIiIiIiIiIiIiIiIiIiIiIiIiIiIiIiIiIiIiIiIiIiIiIiIiIiIiIiIiIiIiIiIiIiIiIiIiIiIiIiIiIiGa7fwGo+1uVRpHZBwAAAABJRU5ErkJggg==;" vertex="1" parent="WIyWlLk6GJQsqaUBKTNV-1">
          <mxGeometry x="1060" y="640" width="60" height="60" as="geometry" />
        </mxCell>
        <mxCell id="qbzAYk6FdeuOr6aEGjq--105" style="edgeStyle=orthogonalEdgeStyle;rounded=0;orthogonalLoop=1;jettySize=auto;html=1;exitX=0.5;exitY=0.5;exitDx=0;exitDy=0;exitPerimeter=0;entryX=0;entryY=0.5;entryDx=0;entryDy=0;entryPerimeter=0;" edge="1" parent="WIyWlLk6GJQsqaUBKTNV-1" source="qbzAYk6FdeuOr6aEGjq--111" target="qbzAYk6FdeuOr6aEGjq--101">
          <mxGeometry relative="1" as="geometry" />
        </mxCell>
        <mxCell id="qbzAYk6FdeuOr6aEGjq--106" style="edgeStyle=orthogonalEdgeStyle;rounded=0;orthogonalLoop=1;jettySize=auto;html=1;entryX=0;entryY=0.5;entryDx=0;entryDy=0;" edge="1" parent="WIyWlLk6GJQsqaUBKTNV-1" source="qbzAYk6FdeuOr6aEGjq--107" target="qbzAYk6FdeuOr6aEGjq--109">
          <mxGeometry relative="1" as="geometry" />
        </mxCell>
        <mxCell id="qbzAYk6FdeuOr6aEGjq--107" value="" style="image;aspect=fixed;html=1;points=[];align=center;fontSize=12;image=img/lib/azure2/general/Module.svg;" vertex="1" parent="WIyWlLk6GJQsqaUBKTNV-1">
          <mxGeometry x="1370" y="645" width="50" height="50" as="geometry" />
        </mxCell>
        <mxCell id="qbzAYk6FdeuOr6aEGjq--108" style="edgeStyle=orthogonalEdgeStyle;rounded=0;orthogonalLoop=1;jettySize=auto;html=1;exitX=0.5;exitY=1;exitDx=0;exitDy=0;entryX=1;entryY=0.5;entryDx=0;entryDy=0;" edge="1" parent="WIyWlLk6GJQsqaUBKTNV-1" source="qbzAYk6FdeuOr6aEGjq--109" target="qbzAYk6FdeuOr6aEGjq--117">
          <mxGeometry relative="1" as="geometry" />
        </mxCell>
        <mxCell id="qbzAYk6FdeuOr6aEGjq--125" style="edgeStyle=orthogonalEdgeStyle;rounded=0;orthogonalLoop=1;jettySize=auto;html=1;exitX=1;exitY=0.5;exitDx=0;exitDy=0;entryX=0;entryY=0.5;entryDx=0;entryDy=0;" edge="1" parent="WIyWlLk6GJQsqaUBKTNV-1" source="qbzAYk6FdeuOr6aEGjq--109" target="qbzAYk6FdeuOr6aEGjq--124">
          <mxGeometry relative="1" as="geometry" />
        </mxCell>
        <mxCell id="qbzAYk6FdeuOr6aEGjq--109" value="Datos ya verificados&amp;nbsp;" style="rounded=1;whiteSpace=wrap;html=1;fontSize=12;glass=0;strokeWidth=1;shadow=0;" vertex="1" parent="WIyWlLk6GJQsqaUBKTNV-1">
          <mxGeometry x="1510" y="650.5" width="120" height="40" as="geometry" />
        </mxCell>
        <mxCell id="qbzAYk6FdeuOr6aEGjq--110" value="" style="edgeStyle=orthogonalEdgeStyle;rounded=0;orthogonalLoop=1;jettySize=auto;html=1;exitX=0.5;exitY=0.5;exitDx=0;exitDy=0;exitPerimeter=0;entryX=0;entryY=0.5;entryDx=0;entryDy=0;entryPerimeter=0;" edge="1" parent="WIyWlLk6GJQsqaUBKTNV-1" source="qbzAYk6FdeuOr6aEGjq--98" target="qbzAYk6FdeuOr6aEGjq--111">
          <mxGeometry relative="1" as="geometry">
            <mxPoint x="525" y="670" as="sourcePoint" />
            <mxPoint x="777" y="670" as="targetPoint" />
          </mxGeometry>
        </mxCell>
        <mxCell id="qbzAYk6FdeuOr6aEGjq--111" value="Pulsa botón de registro" style="rounded=1;whiteSpace=wrap;html=1;fontSize=12;glass=0;strokeWidth=1;shadow=0;" vertex="1" parent="WIyWlLk6GJQsqaUBKTNV-1">
          <mxGeometry x="600" y="650" width="120" height="40" as="geometry" />
        </mxCell>
        <mxCell id="qbzAYk6FdeuOr6aEGjq--112" value="" style="edgeStyle=orthogonalEdgeStyle;rounded=0;orthogonalLoop=1;jettySize=auto;html=1;exitX=1;exitY=0.5;exitDx=0;exitDy=0;exitPerimeter=0;entryX=0;entryY=0.5;entryDx=0;entryDy=0;" edge="1" parent="WIyWlLk6GJQsqaUBKTNV-1" source="qbzAYk6FdeuOr6aEGjq--101" target="qbzAYk6FdeuOr6aEGjq--113">
          <mxGeometry relative="1" as="geometry">
            <mxPoint x="827" y="670" as="sourcePoint" />
            <mxPoint x="1060" y="670" as="targetPoint" />
          </mxGeometry>
        </mxCell>
        <mxCell id="qbzAYk6FdeuOr6aEGjq--113" value="La vista envía contraseña email al controlador" style="rounded=1;whiteSpace=wrap;html=1;fontSize=12;glass=0;strokeWidth=1;shadow=0;" vertex="1" parent="WIyWlLk6GJQsqaUBKTNV-1">
          <mxGeometry x="890" y="650" width="120" height="40" as="geometry" />
        </mxCell>
        <mxCell id="qbzAYk6FdeuOr6aEGjq--114" value="" style="edgeStyle=orthogonalEdgeStyle;rounded=0;orthogonalLoop=1;jettySize=auto;html=1;exitX=1;exitY=0.5;exitDx=0;exitDy=0;" edge="1" parent="WIyWlLk6GJQsqaUBKTNV-1" source="qbzAYk6FdeuOr6aEGjq--104" target="qbzAYk6FdeuOr6aEGjq--115">
          <mxGeometry relative="1" as="geometry">
            <mxPoint x="1120" y="670" as="sourcePoint" />
            <mxPoint x="1370" y="670" as="targetPoint" />
          </mxGeometry>
        </mxCell>
        <mxCell id="qbzAYk6FdeuOr6aEGjq--115" value="Controlador envía contraseña y email al modelo" style="rounded=1;whiteSpace=wrap;html=1;fontSize=12;glass=0;strokeWidth=1;shadow=0;" vertex="1" parent="WIyWlLk6GJQsqaUBKTNV-1">
          <mxGeometry x="1181" y="649.5" width="120" height="40" as="geometry" />
        </mxCell>
        <mxCell id="qbzAYk6FdeuOr6aEGjq--116" style="edgeStyle=orthogonalEdgeStyle;rounded=0;orthogonalLoop=1;jettySize=auto;html=1;exitX=0;exitY=0.5;exitDx=0;exitDy=0;entryX=0.75;entryY=1;entryDx=0;entryDy=0;" edge="1" parent="WIyWlLk6GJQsqaUBKTNV-1" source="qbzAYk6FdeuOr6aEGjq--117" target="qbzAYk6FdeuOr6aEGjq--104">
          <mxGeometry relative="1" as="geometry" />
        </mxCell>
        <mxCell id="qbzAYk6FdeuOr6aEGjq--117" value="Comunica al controlador registro con éxito" style="rounded=1;whiteSpace=wrap;html=1;fontSize=12;glass=0;strokeWidth=1;shadow=0;" vertex="1" parent="WIyWlLk6GJQsqaUBKTNV-1">
          <mxGeometry x="1175" y="738" width="135" height="57" as="geometry" />
        </mxCell>
        <mxCell id="qbzAYk6FdeuOr6aEGjq--118" value="Controlador avisa a la vista que cargue mensaje de registro exitoso" style="rounded=1;whiteSpace=wrap;html=1;fontSize=12;glass=0;strokeWidth=1;shadow=0;" vertex="1" parent="WIyWlLk6GJQsqaUBKTNV-1">
          <mxGeometry x="878" y="740" width="140" height="60" as="geometry" />
        </mxCell>
        <mxCell id="qbzAYk6FdeuOr6aEGjq--119" style="edgeStyle=orthogonalEdgeStyle;rounded=0;orthogonalLoop=1;jettySize=auto;html=1;exitX=0;exitY=0.5;exitDx=0;exitDy=0;entryX=0.805;entryY=1;entryDx=0;entryDy=0;entryPerimeter=0;" edge="1" parent="WIyWlLk6GJQsqaUBKTNV-1" source="qbzAYk6FdeuOr6aEGjq--118" target="qbzAYk6FdeuOr6aEGjq--101">
          <mxGeometry relative="1" as="geometry" />
        </mxCell>
        <mxCell id="qbzAYk6FdeuOr6aEGjq--120" value="Usuario visualiza mensaje de registro&amp;nbsp;" style="rounded=1;whiteSpace=wrap;html=1;fontSize=12;glass=0;strokeWidth=1;shadow=0;" vertex="1" parent="WIyWlLk6GJQsqaUBKTNV-1">
          <mxGeometry x="600" y="742.5" width="120" height="40" as="geometry" />
        </mxCell>
        <mxCell id="qbzAYk6FdeuOr6aEGjq--121" style="edgeStyle=orthogonalEdgeStyle;rounded=0;orthogonalLoop=1;jettySize=auto;html=1;exitX=0;exitY=0.5;exitDx=0;exitDy=0;entryX=1;entryY=1;entryDx=0;entryDy=0;entryPerimeter=0;" edge="1" parent="WIyWlLk6GJQsqaUBKTNV-1" source="qbzAYk6FdeuOr6aEGjq--120" target="qbzAYk6FdeuOr6aEGjq--98">
          <mxGeometry relative="1" as="geometry" />
        </mxCell>
        <mxCell id="qbzAYk6FdeuOr6aEGjq--122" value="" style="shape=flexArrow;endArrow=classic;html=1;rounded=0;" edge="1" parent="WIyWlLk6GJQsqaUBKTNV-1">
          <mxGeometry width="50" height="50" relative="1" as="geometry">
            <mxPoint x="240" y="650" as="sourcePoint" />
            <mxPoint x="480" y="650" as="targetPoint" />
          </mxGeometry>
        </mxCell>
        <mxCell id="qbzAYk6FdeuOr6aEGjq--123" value="" style="image;aspect=fixed;perimeter=ellipsePerimeter;html=1;align=center;shadow=0;dashed=0;spacingTop=3;image=img/lib/active_directory/databases.svg;" vertex="1" parent="WIyWlLk6GJQsqaUBKTNV-1">
          <mxGeometry x="1954" y="645.5" width="50" height="49" as="geometry" />
        </mxCell>
        <mxCell id="qbzAYk6FdeuOr6aEGjq--126" style="edgeStyle=orthogonalEdgeStyle;rounded=0;orthogonalLoop=1;jettySize=auto;html=1;exitX=1;exitY=0.5;exitDx=0;exitDy=0;entryX=0;entryY=0.5;entryDx=0;entryDy=0;" edge="1" parent="WIyWlLk6GJQsqaUBKTNV-1" source="qbzAYk6FdeuOr6aEGjq--124" target="qbzAYk6FdeuOr6aEGjq--123">
          <mxGeometry relative="1" as="geometry" />
        </mxCell>
        <mxCell id="qbzAYk6FdeuOr6aEGjq--124" value="Se guardan en la BBDD" style="rounded=1;whiteSpace=wrap;html=1;fontSize=12;glass=0;strokeWidth=1;shadow=0;" vertex="1" parent="WIyWlLk6GJQsqaUBKTNV-1">
          <mxGeometry x="1710" y="650.5" width="120" height="40" as="geometry" />
        </mxCell>
      </root>
    </mxGraphModel>
  </diagram>
</mxfile>
